<mxfile host="65bd71144e">
    <diagram id="HIP3nbAZw_EuaXWnEj3U" name="Page-1">
        <mxGraphModel dx="1045" dy="721" grid="1" gridSize="10" guides="1" tooltips="1" connect="1" arrows="1" fold="1" page="1" pageScale="1" pageWidth="850" pageHeight="1100" math="0" shadow="0">
            <root>
                <mxCell id="0"/>
                <mxCell id="1" parent="0"/>
                <mxCell id="7" value="http://ics2o.mths.ca" style="swimlane;whiteSpace=wrap;html=1;" parent="1" vertex="1">
                    <mxGeometry x="30" y="40" width="820" height="480" as="geometry"/>
                </mxCell>
                <mxCell id="8" value="&lt;font style=&quot;font-size: 22px;&quot;&gt;Select which type of number to generate&lt;/font&gt;" style="text;html=1;strokeColor=none;fillColor=none;align=center;verticalAlign=middle;whiteSpace=wrap;rounded=0;" vertex="1" parent="7">
                    <mxGeometry y="110" width="420" height="30" as="geometry"/>
                </mxCell>
                <mxCell id="9" value="&amp;nbsp; Generate random numbers using JS" style="rounded=0;whiteSpace=wrap;html=1;fontSize=22;align=left;" vertex="1" parent="7">
                    <mxGeometry y="20" width="820" height="50" as="geometry"/>
                </mxCell>
                <mxCell id="10" value="" style="ellipse;whiteSpace=wrap;html=1;aspect=fixed;fontSize=22;" vertex="1" parent="7">
                    <mxGeometry x="10" y="160" width="20" height="20" as="geometry"/>
                </mxCell>
                <mxCell id="11" value="" style="ellipse;whiteSpace=wrap;html=1;aspect=fixed;fontSize=22;" vertex="1" parent="7">
                    <mxGeometry x="10" y="190" width="20" height="20" as="geometry"/>
                </mxCell>
                <mxCell id="12" value="&lt;span style=&quot;font-size: 18px;&quot;&gt;Positive&lt;/span&gt;" style="text;html=1;strokeColor=none;fillColor=none;align=center;verticalAlign=middle;whiteSpace=wrap;rounded=0;fontSize=22;" vertex="1" parent="7">
                    <mxGeometry x="40" y="155" width="60" height="30" as="geometry"/>
                </mxCell>
                <mxCell id="13" value="&lt;span style=&quot;font-size: 18px;&quot;&gt;Negative&lt;/span&gt;" style="text;html=1;strokeColor=none;fillColor=none;align=center;verticalAlign=middle;whiteSpace=wrap;rounded=0;fontSize=22;" vertex="1" parent="7">
                    <mxGeometry x="40" y="185" width="60" height="30" as="geometry"/>
                </mxCell>
                <mxCell id="14" value="Generate" style="rounded=1;whiteSpace=wrap;html=1;fontSize=18;" vertex="1" parent="7">
                    <mxGeometry x="10" y="230" width="120" height="30" as="geometry"/>
                </mxCell>
                <mxCell id="15" value="The number is: (-6 to -1)" style="text;html=1;strokeColor=none;fillColor=none;align=center;verticalAlign=middle;whiteSpace=wrap;rounded=0;fontSize=18;" vertex="1" parent="7">
                    <mxGeometry y="270" width="220" height="30" as="geometry"/>
                </mxCell>
                <mxCell id="16" value="" style="shape=image;verticalLabelPosition=bottom;labelBackgroundColor=default;verticalAlign=top;aspect=fixed;imageAspect=0;image=data:image/png,iVBORw0KGgoAAAANSUhEUgAAAggAAAGGCAYAAAAernlWAAAAAXNSR0IArs4c6QAAIABJREFUeF7s3QWUbd1S3v19g2uCO1wS3N3dwsXdAgGCu7trcAjB3d01WPAkuLu7X9wu8n7jt7n/8xWL3WdL7+4+5z1rjdGju/deMmfNmlVPPVVzrgfcd999923WY5XAKoFVAqsEVgmsElglMCTwgBUgrPqwSmCVwCqBVQKrBFYJLCWwAoRVJ1YJrBJYJbBKYJXAKoF/I4EVIKxKsUpglcAqgVUCqwRWCawAYdWBVQKrBFYJrBJYJbBKYL8EVgZhv4zWM1YJrBJYJbBKYJXAPSeBFSDcc0O+dniVwCqBVQKrBFYJ7JfAChD2y2g9Y5XAKoFVAqsEVgnccxJYAcI9N+Rrh1cJrBJYJbBKYJXAfgmsAGG/jNYzVgmsElglsEpglcA9J4EVINxzQ752eJXAKoFVAqsEVgnsl8AKEPbLaD1jlcAqgVUCqwRWCdxzElgBwj035GuHVwmsElglsEpglcB+CawAYb+M1jNWCawSWCWwSmCVwD0ngRUg3HNDvnZ4lcAqgVUCqwRWCeyXwAoQ9stoPWOVwCqBVQKrBFYJ3HMSWAHCPTfka4dXCawSWCWwSmCVwH4JrABhv4zWM1YJrBJYJbBKYJXAPSeBFSDcc0O+dniVwCqBVQKrBFYJ7JfAChD2y2g9Y5XAKoFVAqsEVgnccxJYAcI9N+Rrh1cJrBJYJbBKYJXAfgmsAGG/jNYzVgmsElglsEpglcA9J4EVINxzQ752eJXAKoFVAqsEVgnsl8AKEPbLaD1jlcAqgVUCqwRWCdxzElgBwj035GuHVwmsElglsEpglcB+CawAYb+M1jNWCawSWCWwSmCVwD0ngRUg3HNDvnZ4lcAqgVUCqwRWCeyXwAoQ9stoPWOVwCqBVQKrBFYJ3HMSWAHCPTfka4dXCawSOKcE/umf/ml7u3/37/7d5gEPeMDmvvvuu+3t//mf/3nzMA/zMJt//Md/3Dzswz7s9lyfuc7nfrvPeqwSuGkJrADhpkfgDnk+A8Uo7TNMjJcfxnA9VgmsEthsHvKQh2wd+9/8zd9sHX5zw+8c/pRTgMJn/n74h3/4LUBwruOQebjKfZXAdUhgBQjXIeW76BkXRS/z8zXCuYsGdG3qlUsAE2BOvMRLvMTW0f/d3/3dLUcPAAAKAWtfAAKBAOf/x//4Hzdv//Zvv3nWZ33WLVgIJFx5w9cHrBLYI4EVIKwqcksC04jtokmjUFeRrRJYJfD/SwAI+Jmf+ZnN137t125+8Rd/ccso/Pmf//nmL//yL7cnAQSAQCwdEPAP//AP289/5Ed+ZAsoXuzFXmzz9V//9VsGIiZhlfEqgZuWwP0SIOTcygf6vaTQd0XES6cY3d653SOKffn5Pnr+pgf7ds//+7//+81XfdVXbX7/939/a+D0TX8ZP79FSY/92I+9eYu3eIutAVuN2G5pphMzFbNkXKZ+dpelzq5R5J08W/512/72b/9281iP9VibT/u0T9u81mu91q20whx3c2iO9V//9V9vwcCLvuiLbkHCkz3Zk21+7Md+bPPoj/7oV5piWNq9qWe7vpttzr4t7dzU+bvZBt49Gnd9Lb3fAoQMbr9zaBzddG4TFExAsTT0c3K4h2i6XOM819Ddjfn5H/zBH9y8wAu8wBYIBKjqS30X+fz0T//05oEPfOBd2cernlYByGQY4xLNPOlmMl3qT98vjfJFhvmq+7Pe/zAJANeP/MiPvHmjN3qjzSd+4iduHu7hHu7fXGhssQbv+Z7vuXmXd3mXzSd/8idvfumXfmnz67/+61uA4Jqf/dmf3TzJkzzJlc2taROzWdm8+T89XtqwAE7pkhlwLWsm1hTkYXpzN5x1vwUIlLboF1L3t88Yb/Tf93//92/+3//7f5tf+IVf2Pzpn/7pNkp+lEd5lM2jPuqjbh7pkR5pi+Qf//Eff/MET/AEmyd8wifcPOZjPub2b5+5jwkd2GhCmDx9drchadHLsz/7s2/zqG/91m+9lUF0p7787//9vzcf9VEftaVSyaPq67tBya+rjbEuy7GnF1Wpa0uG+nYAs3sFZmMkVubmukbz8OeY84/zOI+zedInfdKts1/ODcCAvfiTP/mTLVPwEz/xE1smjp787u/+7ubnf/7ntzrxoz/6o5tneIZnuBKAoA0B1hngzFUXS9AwgeosovQ5e5oupt8rkD1cZ+6WM++3AIGyU+I/+7M/2+b4/uqv/mrzwz/8w1sa/du//ds3KL6QLwX/D//hP2yrkE0k1wUAlmwBx2kSP8uzPMvm+Z//+TfP+IzPuI2oH/ERH3F7TemHu0UBaudv/uZvbp72aZ9289//+3/fAoTp5PTp277t2zav9mqvtjVmgNLdyJJc9ZiUV87Q0jtylZfmFH75l39589u//dvbz+gfRuZxH/dxt3J/tmd7ts1TPuVTbp74iZ94K19ANYA2wcIq96sexePvz3k+3dM93eb3fu/3tsHHrgPL8NVf/dWb//bf/tsWFHzMx3zM5su//Mu3dgPopjsAArtyFTYku/YIj/AIGykRbRUc+dGe3/qt39oGSuwlO6i9E8yye/r57//9v9/29Zme6Zk2z/Vcz7UtsPRZqzdW9uB4/bmTr7gWgHDuHFUUWDQXAU8k7G9G+cM//MM3X/qlX7pV+ChdBlaOvSPKDEAwcbAIL/7iL7555md+5q3x1vZf+7Vf2zz4wQ/eRgCMvMnk/5CzSacCWaGRH5E4BqKJvmvSTLr5TjD6DMPTP/3Tbz7kQz5k83qv93q3Kq8DUV/3dV+3ed3Xfd3Nr/7qr24e4zEe41b0cJFBuL8YiqXu7utXoPS93/u9t2CUzsx18ukqcEAPZ246nSRz+oOpAR7o1nM+53NujbJcdxT2Mj02ad/aOenifW2/LkNVu2eNz3SKkwo/dm4s+zj/P1RXl3LdJxfnf/AHf/B27vz4j//45ome6Ilu1ekUtRuHH/iBH9h8zud8zuZTPuVTtuP+NV/zNdvzMJn/83/+z83/+T//ZwsQTmGJiuinvubgfae2CAD51m/91s03f/M3b37jN37j1tLK2FXPzdGzaTONKlACeOlstksf6Kk6iv/yX/7L5kVe5EW2TMq0z9nXKcO7jV3dN/6X/f6QeXmuc45t67UBhElX1dljJ3/3KKqfxo/SUm4OTB7wsz7rs7bAQFT2yq/8ytucnzzhl3zJl2y+67u+a/MFX/AFW0UHCqBlEZ3f07BSZNdwnJz+8z3f822e93mfd+sgRdLf+Z3fufmhH/qhbVQon/gXf/EX20nl+1d5lVfZ/ogM/R9F1wYp9T1gc6osjh3wi87X9+d+7ufevOEbvuHmbd/2bf/VumwyEf28wRu8wbavjMJS9ss85BKwnaudN3WfY4CCXDT9IwMO/ime4im2gPNpnuZptgyBiMsPPQY2f+7nfm4byTHaf/iHf7iN4kRzquCNS+kJ0SZdfNmXfdkte/XUT/3UW4PMmE9nu0xpTDB83cZ5Ovup630+C393ORHnHeIwnTdBxqTA532XgCHAdpFeHWKY9cH8N75skPEAAB/t0R5tO1f87xy/ReLSlX58F7OJYQIujO+uGoB9ej/lGOgUJAGpX/iFX7j5lV/5lVtg1HPZRcCTfaKfbBRbp830LPZq1hywp+b/T/3UT23BjN+eQVedL7h6y7d8y82bvumbblkwQBZz4bslcLlpe7dPntfx/QTK/m7cm6PN+7lMtkB3gtgA3qxrOlf7rxwgNHFT2hRlTvpjjVY7kLlXf6NtP+ETPmELBKBc9Je1xS//8i+/NTAmCWrMhPA8aDiBUmLOnbGm8CYqpgD19gd/8AebP/qjP7oFHkxwjvTN3/zNNy/8wi+8NdCh6u/4ju/YOlL1DdqjbY/3eI+3+c//+T9v3uRN3mRrQAILTZClUpxrYI+9j7a+9Eu/9OalXuqlNu/4ju+4ndBNbhOdofmv//W/bouq9DkFdU5jnDxb5z0j4mPbcxPnL53H1NkiwZzcLp2NKXie53merfH8oi/6os3LvMzLbJ1F1zXe5aX1c+qC83wHuNJJ+vg93/M9W1ALRGCujJUD68XQqxsBGOi3lSYMffNiGnifcVLXeSwZjPqdQ/O/Puuv9s35cSg46F4VAupzLMsygk1Xq08ii/S1c5fgfZ99atWPeaPQ0Pmcot/ZBv3TVymIovH2T9BWYA+jwHm3F8Kh4zT1Vr/o3od92IdtsH5k4/6AqeDmJV/yJbcRvzms38vC2ZxSGzx1b32Zjkjb9E1gJVD6vM/7vI1CZwCXXgo03viN33hbc8Fm5gCrB2s+HdrH+8N5u8AmmZIj+RqnlsQuQYFxmTqb/NKzCTbOKasrBwgaKxLSgVmlTWmOnQiThcgYc/Rf/MVfvHmP93iP7XMAgA/6oA/aUv09rwluICogmmgrozENUvlkv4EFdQvWKaviz0iLAlBrImvI36FP2qTeAVvxTd/0TVugYYCxEO/3fu+3BRZReXdKsZ/2mdSiAKkZ8jFGogbHN3zDN2yrtEUiQI8++iEzBiHFZgh97n/Xc0iHRGHnVOrL3Ku2itz1PZBAHmSzrz90jMNGJwOJDLHJ/H3f932b//Sf/tNWdp4hEmO0k9sEHs2V9DaHRb/RxHTK/Y0F8Jrh0DbRoNUoAAPWwjM4HfeotuYy8jn22uSZHMlVn4EfgIdcAGtOjb5YKmjuBiwOjTSrHzJG5iwdxNLEbGmHz2IJndcOhq6NlfSZn557iO5qq3EvbTQ3O5qOtYCGDD3TXMkOaQ9gF9O4D5Qsx0H7gcnP//zP36YQOBv1AfTgFV/xFberI2qLc2tjbJP7zWcugTDdyebOVRrJzfmCqXd7t3fb1lYEYl/1VV9181Zv9VZbtkIfA67H9u9YvbvTz6cLdJFO0nvjAGxlM7W/II2e+Hv6TNeWosT4mPux6Ofs+7UABA6VM+3QYQLZZ2xnR5eRiP8V92AJROwmw8d//Mdv82AzdzYV0WCE0tx7UjidF1gIwfm8CMXff/zHf7yt6MdIMG4oQgZJ5P2ar/mamwc96EFbh1nffP+//tf/2nzsx37s1ghqg3Pe533eZ5tvnIClSXqIUTpFCbSzZ2Q4M4SU653e6Z22Vdjf+I3fuKUaM1aM2Vd8xVdsixdFs6JUP0UR+pTRkSOv/fruUHA3DdAyUr+TjMVse+3WdjpLRj67aHyqbXmFV3iFba5X3pecyAZ79AEf8AHbOg7gUZ0HWZv0UgyAg3MnIPE32TOsGfe5V79o9Cd/8ie3dTb/9//+3230puahnfzoFl0EWLBDWDXUr/tNvTtV3y4ax6IZ/Wb0pEwAGSuA1FW8wzu8w+bTP/3Tt3KZDJo+yt9zMMD0RWmCpe67B8BR2sYcZ0Dpu/FyH+0gO0445zcDjuZ7htd1E5zcTmeLAo1lgcUSYEyWY26p3Oc5Wm1aplR2jc+MGI35R37kR24+7uM+bmtbgEL6xb7QW33eFWledN/JGuSo+l0QFYidfYlxFEQpwqSX+kemamgEGBhdOuj624GwU3XyFLt4E9eks4H35j09zcaY+2REr6Z/mr4w9s25fOy0peeQ4bUChJSa0lKsQ+nOJh3BhNbleN/1Xd91KzzsAaMTnXZo1HGqYhQtMHwQu5oH+eN/+IeHbJ7gCf7FAHIEjHOrIbTpW77lWzbv+77vu61oN5By/dZFpyTk494Q4bmdpmgN5cdpuzdlevInf/ItpUu55FDVVWgfJmE6JHLSR2BMJGLlRqwBw6zN+mdMsSkcZODL89r8JUebI81IcFiH5JlPHa9jrmtSmaja1f8MeOvdLxqbolSpmK/8yq/cRvhkTBbYA5EUGlpBGwdpTDhzdQrYJswShoAz5dCdI2WFuQoYxBbk4KeR1WagRDoCQLF0FWgIqJED4IdlwzK80Au90LZdQF1558YkoJwzbe7OJcM+07dYo9/5nd/ZsiZ0CRj2o1rePDGH0d7y054feAKsOQ+sn7a6J1paH+gmG7FPN9K15n9jRjeNIbm0yihdmOzidFa+x9Rwqj2XvlYLQh4+F4Hv2u/gGF075tzGI0cdwBccvcZrvMZWZ4BMtVUv+IIveKvtgjNyPLc92dd2ssecahsGNrYEo/Z2b/d221qFWcuUnh3LHO1rx534ffOGXvFfpW60ldzYVnPWXKO3c+yXoLXAK11PZ9mrUpVkWl3MoT43ud3xACFklWEUNaH1Re+iMtubclo57eVkvwoFWS59ZOTl5qF4kXZOkfPnbAMAjIwBVsWs4pnhhPI/4zM+Y5tLpgwzB3XOtgNUEHxUJjkxnCkPxWGsnac/HEmy9D8HBiBY6li0JWLjXEx+ig4AoYfRjAwoQ6tP/s7B+My9M1jawNCemm46p4ym8T0FILTWnJzUw6B8jSt94YgBWWMARGERRP/YpVd/9VffFruqIRABirCMA5BAVmoZjM/3fu/3bp0+YGk+JFeypP9+OLYJGjhdzzB+mIoYhpl7ZpDMIekJLIbxBhq7p/t5ljYYb7/1CZsm5w4UKFSbEQs9Nq4VvgEBn/qpn7qN8q0KMkcq6tNGKzTopv5/9md/9paSpk9TVy4aazrcnJtpTPPL88w7+umY9qT7zcDCffRXu+uPz6ZcycVYa++M5s6ti5PhiE2pTcYH02fnRo6ETSRfY8feOGJwyOC6D+2gM9otbSS1ynZnB7BJ6sXURNCTAM8yMLnudl/H85IBvYodnIEJXWUnzcs+j7HpWr/NMbraPMU8ZFfJvXOSqecdqwt3PEBIMIQBiULHFA1Fz+BGoRESRYsWv8qBNngGYxaambCMCCNsiZs8oDYZZDunvdmbvdl2cHK6DD3KHjXsnM/93M/dGscKh84dnXzZl33Z5vVf//W3bXv3d3/3W2udKQ8Dw6iUY2RY/V8VcsCGQ1OAl5KSsbGo3kA/ODfOjizKA5d3dL5Ih5MpdUNuodurHLND731ZBsH1IuUP/dAP3QIAqS9yABSAQgYdQJCvFeVb3vbO7/zO2wJZzpCjpi90WyGs87AIdElxrLFSf0B+1RU0HhXbFXEE5Oq7uULeUhvAhroaUZ4xLE0U5R3IyKFO8DT/jrY33tIDFQJLEei76LUiteZo12fA9Me81j/AHz2urgjQArpvxwg2XnQ2QOIzfaLDgAu9JLecuc+cC7y6d2AowGUcaqPf2ZieVY1D5x2qW5c5r6iTvM0nAJTekDtgYMVUOqF9yZytugmGLtuY/ba6TLDENvQde0NPzAGsUvb7qhngy4zDOa6dIM/f7TFBz+ipeTKdvXHtvR7OpQMTvNPr7HcMQumemU4rXXlMHx7wz//8z/fV4ENpqBkpZIy6dtc9qkHIkB2SYpjISTTHsajCJRgFcyKSNiZaGrVjBHDKuTnSBqO25gg5VIYd1Ww5kPPsssZJK2YkI+doPycgTeEcND4nvo9SPaXNAIlJ+F7v9V6bD/zAD/w3S8JmzQXlIlNOgxH1438RI4owtB9tGA1GqcmgPSIyUoEBzzCOrYIgN2MLIBy60Ur6Rga141h53O4etwMI5MHY9uxdz6UbaF4b4lgNY1MtOgsgALWMJAflR/qBDLFgUlKurYhVZCXaR9c/x3M8x/Y7RYccAgev7xU4pf+Bzzk/d0Wh87OiCw4VWDD2FT0FOOgqA+XH98bYOS3Z5IAnm+H+s35Ae1yTA1jaG0WKVvqIgjEnn/RJn7Sth9E2+wa8zuu8zm0LXbMr1Q/QpQr+6OKsi3FubMO0Mclh6Zycw7BWj1JfcsK304Up56WuHGprXRdIqy1ST1g6uohFoB9Fk84t/WQMUM9A2nUfU7b1gWylOc2P5FiAAhAbc32qcPL+ChQm6zTTAPpujhizamACWOxkAWbzPBC7q1an+TaZJyD6GF3YjuEf/uEfbgFCit763R4+naDPovIzGl2bAlJOnZsGYwIEChGtnIP3GQNVGiH0497lyO1BIM8v8kE/1t4ZnV73JLjoeWRTkaKiPkscIWj9lIf+iI/4iFsV5fqquEjEyeAr7pGnLdVQPy/LKDCKQIocuNTHpKGnwpa7qlahCUw5OSy1C11LkR3lEgE4zgsI4DTmuLaczbMY7IqmOJ02snJ+bESgI2MxV00EDNIXQKSccX3p9zRUxqXldO7rx2fpfOu1fV4qZIK/ZX1IBapzxYtxEhGL6Dg7zk17AQTgjyGcsl8awaq/tWWZygIk1SiIqmdx2J2i96e2A0CSuhIR26QMOKJTASDFbj4zFheBZ8YvY0rexpRe+DzGKltl3ET/M8rNYTun6KwlivSMHTImfuiGe5jj1d941oz66F/Gv+LgKZ9AWPT6EtRl2MnA87SPPpCVVUbuKeAQKAXklrbQPV3bpm21yT1rk2v0oxU6p47hvutqmzaxcVhMR5X5fMQrvdIrbT7zMz/zVlHlEuzcKSu+9vX10O/be0c//WSHfN6YFcz4bJlum763WiD2LUDZqwPy23xsjEL6Xn3KtKl0m46wTQ/4x3/8x/u2fzy0Wp9iOmEuqchIO4diVUiREUtBM8o1JBQ0AYJOtY1nTsAk1vkMdAIWsTL8IgtRBgOJhteeQyPOQwfrnOdl2OekAAJUsZuwIkEsiIruwJA6BMWNBvijP/qjbxVdktc5JgaZK4aTArAKIwATAEnZZsTUZzlL417BYQaszXx8DuToo8I0BVP0xdiWS1s67WUUVSRsMpTzba11TMauyCudpRdzxURG1z2AkIzy8h45hRiCnEB1GBnniorILOZjCdzk07EDCjmlCrA15oeID4Vu0y56UcQ39W46iQnaAkKeNSvml07lnDp8XffSB3OBc1A0KY1IZ2ztrchRGo7+0Fk1C8ZiV5S/jI6MlXE07lWBx5JVY5FTzGgm8+zf0q5lrGdAVVumc/Y9m0eHo4+nPDPG5pO/J7DoGT6nRy17c3/BkdVQ7Aa9op/64vo2Y5qyqR05ATpbfUUBoOdoR6zLVY37tIntq4JNYz/Yduwp8MM+tYpl+oP7I5tAZ1tRlG+lg9XRsFeNU8uufZY+z0LbAnfnL3Vx2rtlyrCgx3X8djb0FqMcfbA0Nk4up5fS9P6CNmJpAk1lq3Hl6ZzrXiLPJpZJa/Bd38SekUE0tYIpKxX+x//4H9uo9/3f//3/VTXuncgezAlmMKrY9znAIxKyWkBBmCIseVqgwAQ3MUScZIFGlKJIYS5bxEf28n2WhhqPlK/2TqPn+9BqjA+lDNhVeRt4ycGihkUGnqESnf5gHURwHfozHeSM3NJBz2f0nEtXWs++z3i1K+Ys7mFAjUH54l0Ao0nluwrSXHPRKgYGNQBdm/3W15aU+R4QtHnMBHidP+tXliAh0JYBmDQhmRiHClr3yeRO/17fbOhjvbyDrNRqBJbVIShaJEv1OnPXyPrmHjEFU8+ySzP3GhiIPeKg2uEwh8S506ECp4vGZ9rMxojeaMtMo+1iPRr/wCv97Dz3Mgdi4bRZwSuZ+IwdZD9yCgEJ7Z+Ala6UTumcuWlXIITOLu3BVehNadXkpraGjTM+bKL+AQv6L6BS0NueFPpyFanXq+jnofecdjZdLa0b87OM+MmQ/SEXNpJMCronoMie5+iXaXjfxyi5V6sglgHPtgZhGs2p9FWhUzwKrXEUeSKXXcKYkZsOTIDgWe5blTsQ0PmzSI5xVojD4dhaFroskp3PnMjp0IG5jvMyGDnENmUxEKrWv/u7v3u7dbPoqX3PtcsbE9HQBl/EoOjrsukF9yUn6+EVgXHg/g+YiDAwAFXBa3vGybXOq2BRhGe81FhwiCrYKbVx9pkNgBQdAYT6bOyXG9bEVs0Jn065t/uRSfnT6SAnoGjyNJ7pFn3NkVRwGZhpouwCCk200Pzc86DUC2PWEs+pR8uK5PKJZDSXBu7q+1IftVFbZtREBhOQZUju9shKv6rGZ18s9QSc1UNIWSledI75b3kwFmFXnzlAejyBbmNNjzjBaiDIe+a5jW02CbCLIb0dQ9N3sQ6Nx3JZ4a57THao+eWzVk5UYBlbYv7J3WsjJ2onREfRoPZ7jv7divweygjH5s69EAqszA39nddddf4/ex1TojhbvQ6/osDbJmCWQPpesa+UaON4fwMIFZDGKBmXbLDfMZqlm5f2wPfmRoHMTDuW5p62Zfpt8s2mtAotVnPOoQf8+Z//+X1VTmpohRDdOAMfovF5BrscyjTaBrpCiyqFTd4YhIw4AfSZjtdYBhX6ZiTkJW1BClVqVxPrWKPoWToP5HhOy28gLt/NyXUdrAQmQY5adCmf2NsTYwu8ClbUZOmXfLZ2TgeR/I8BOvoIkChWdL2fFDP0Sg8su7Tu3hhEbZOJMZSiaAMa56lpqF3lYxl1rI9rKF655PSGgy39oE3tgNf6XJ8Zn2oDZp0KfWv5VE7cfTmGGZFXuT4ruHO6fkftBQjKwVYpDBi0zNH9PUt70uPJ5rgHp6Cf1VW4pn63KdjS4R8zdvf3czEIUi/YM0viyArTZhWIyNJqD3U8lmqyCbuOZZ1T0WoOkz6WIgtwL2sQ/N+4VwuSjs5AZgKKjLffpYAmoK+GwGcFWnQwhqK+tFdDNQ0FFOaX5YDesgo8kQ8wynY2Z9gTc0r79TdHoZ1SXr6bn/k7QHQdzMFF+lvwBARIMbApWCLFvXTBvhrSllgk586Ug3G5asBQhN0uhdnL6e/q22R6J3is3ca1epPpW/nLdNRYG7NS78YzRjMfsKxfcn8+GkgowA58VVBde+jCTJumK7P4Wtu04VYNmhRDN2DMdKQ8cxS5gahwIiHNneXqsAZWUFORkO+WkzeHlKBzMtGENlGx65tJbhUAGj5K8NiNHnJMGXoRMMfWfeTLDRyHeBHte24DTd52G5Nz1S+bnaAMA0qcJkdrvTiaTUQeOLpMygFat2e6sVNB/1RP9VTbv9GXon8IXjGd/C8d8JnvjD8nbAJTVAwHZsPnDKd7lctKdzKW9GGmCOaumuQwC1bnxKP07csfGNDW5TprhGwaAAAgAElEQVReOuIeDGaRRka29FWGxbktvQxklUKp/RnMlq3GUjRHYgAaK6ChIripJ9quXRni+yNFeo55Yc5h0+z5YIWNug0RJVaBM7Qs1Gd2SfUZ4LArQLgdQCjSLoXkmQUcS3Yug5ueeVY1MdmQloTOnTZ9t0yn+SwaebaZAU6/ptPzHG3LaWivolR7i9AnfwcsnAfIo+gxrL21FlMw7dhkMKajMF/OUdt0qg6Yf+1PQZ6KU73V0nJwdRYK0u2KS6Y+U5gb00F+52BV97VduzjViu7pRktjp+yK/HOu1XkYB35muZPw7QDCXB1TJN+23MY2lild7JzJ1M52TL3rnNnv5QZL6TF926bYZorBw9qydNJXDHP5jpx5aYOLqNpp7JcMwqQwQuju21pONLvUQsV6s0OnRmIEz+HKw4tYUJfaSDHly0XsgYnrUD7yVdBnVz0IGp3mCE0CDSYIBWNAW+o26z72Kfj83vMa05Rm5rd8x9hYbYG9Md4iNrIic23EQKA6bfQUKxNwa6+E1lw3xs4j+2oKctrpB6Ta/vcBR22ZOTifxwoUORR9mKjl5Kczd31rhl3jPPeoOjg5ZjRrbxNvMggzSmiMKp40kSaj4z7a5lXh5oj+3m575mPG8P56rjSb3TcBAeMGyFr2Sc/IU7AAqHKQgPSu43YAYY5f84vOVIw4a02c6ztjmjFu35MZ6TmnCC295czagtxn2pRzWbaZ83GUCpusRO1xDqYRg2KzKynCGE7to89sJJYVkAqUzyAqWjkdnSuRAtSn2tTL6KNnalPpN/uAAEJSS1Kr7J0VUZglTIJCdXVZxkA/rwMkWHJsxVnAxJiX89eOrQMdxf35j+yrQmXLd9WMxCRMmU3wmDxiEHbpbIyC+wOKjWl2nb6lf0sm3P1bvTPbEKiNdaBz+lStyhYguKAIJ6orQ+y3SFJ16WzQXBvcBMm41oDOX+6D0PcpJkFRauiMgmAMRKV2m6sYa+ZPjlXM6GUDbEc7k8lSG0JUD2BZHiec8T82hXFse1IGExyLALgwAv5OybTZHgkiform+4zNKe1bGorpGPv7tV/7tbdtscmTCKP0S0wSpxcNWH506kR5s6KvqHmfF221Lj2ZFWFH45UKqjq7tqXI7llfcsbJo9++N6YmSxFa4LeJ1eRO9zP+AZflTopLAKHdpdDmPRo/O8Vps59Zz3GsrtzfzydX0a/NkaJRrfYAUo2d1T1ScFga6Yai66Vc9qUYZiATG9c8bIe57FEsQgxWyy2nXZsAIeNqPmsf48q2YCdtfJUOL+2kwGtS/L0uvt317MqKXgeQyKj20Sm1RAC7OTn1ftZZZM9aKTVB7a7A7jp1Ldm32kS7BSPeZwMEAo0CN9uRY0jUOmGQgKTkcNV9UOtRuqMxoStAv7GiA+yaVSVYaSw03cE60Bl7eBgr/8/3KSTnJUAo6Jnp1jkmBUDOa5fQyUDRP7aXDd2VKm9F2RIg9A4Hcu2+6ex2J8WMn98VNwQYGNu5ljiKmwB6oU9INOMewouGCbU2oDW+6zS4nIed/uTcRK8UY5m3OUSJE7TnQJ7eL8DJ+t+uY+5tr3cTq5cTQYuOWUnc/1ehiBkVAEBUbodCRrFNg3wvHSI6YHDsLOetbCnJKSDhdrIzzvK7lIxhMnbWJCs6NIkt03u5l3u5bVSM/ptGLwfpd8vKkqPz5mY1s0Lcd87XvwpkAgBVnue45Vk5if6ftLFxrS6gz9uxcVKByw1Ibk2CBzxgK5rpOHppSp9PtiVDX6Q5VxSk24yGVBlwHao/95gdMhfu9HPI3Hy3P7+DcxBBcs5AvOV8HKlNmaTAdhla1x3CIEydjQmld2yZdmAMGtvJYM0C1Opysn8TaAcGi4o5BkCxey5BeXqbfTH36DFnRHfU8ljqqdr/gQ984K26IY5SZM1WWDlkZ07Hsjap1UJTd80retv27667Cvt2rN6RDTuDMcGWANVSTTYXY6NF4lhfgdJkQI99zjHnK5YUOApU5+qZbMz0e8mfLG0ExXepITOmdGlXOmcXgzBTDLdrq/NcP9Obpa1cN/14elYNTu3W1uxkMo3xvMWQ/NM//dN2H4QumhGeGzeRnDP31Hdj6HVOugxsE2oi3olSUtLW51aFq7oeWqYI8uA6cAqVVEGI9kgpMDCK8xjyKj/nygF9Wz4n6kgfzl0MM6Nu7dFfBVnWevvb4Dap7S6GapUKMXGS6TGKfsi5ZAZMMUxym2QHvOg7g+W1sW/zNm+zTUHYLhVyLlpJf0o3eN5EwTM/FhOQrnDErTqonRXJlCfWhjamce4Er56Zvk0H3JLc2uEeS+Wfz2tMYhZ2ba+r7dPgu4bctKd0RuyGanu0OHq0a1aA8G81kT4rwJNuI0NRJAZBHtpntm/Gaql5yVDv0ufbAYTqVGLgdqWEYoyikEsrmIdLsEg//cz16K6bu4R2nTHPuUxHzVizR6Uztcln7iPwAprYQKmXNtty/Xd+53dudQ7LysmLWs0JP7to5bknCbll68hkAqKb1s2crv55J4yDbLAINhyjCzadU7Rtd9Jz2+RdOiX9iwVgm6e/mOnzGSxI0aoZAw68qE2KuJelVeM0n7OLQWhc/K7QdrJM+SX3qRwgkBcj5ZxZgNv3cxXgZL1607LrYoFvFTMCCD205UBFYz4vwmNcc/JFeXNShVrKc7THvkm0ZBCqFqcUs9BHJasBUcUvqs7YHqu80LWaAoMKfYq8UUWMTWyJe4rQLZ0SnUBiqn3boEcfl1HjIY720HNmBCxSV4hj4xCFWfJxlFLEDjRBoowBkCOSuAqQQNZSDJ5rj34yqZJbFGwcKTzHh+5sDFs+FRvg81YplNqphiWlXr5UhK70gpkm3Nwsyb2jfVs+GJNgktHXjJ3rgS7GJTCS0dcf9+38opaWqJkcDpNj1iA4r309tEN0E6D2XbuXtU2se3BydI9zo3fp06H6ca+cR47e5MgYqzviCAAGrB+wrPbF/LWR0ld91Vdd+K6VJUCIujZu/jY2dJPeTMfs+S1NTKfIvvE3bq2cmeyie839Nlyzaxl2Swnn/gMBgV725L6cAf3UXvfB2NFpNQbawJZhUARQ2my+ABGKO7V7udQtAI55c/9ZKExn5xK5O0U3jRMZ2PPCmOiboIjs6IAaBEEMH3EVgdtyztFLKS4vJDMWk2nJj/SZcQMM2EfjYqywHsYaC2sMlizCEiA0/s5tBRiZtKKr1Q3Z0TaPqy3V+mVDtSlf7pxY2Nqcf2+FTf6uhQbbtMqDH/zg+4qeGe6Z08goAwYtGevhKXUdcK4bRrdO+piQAhfOK0Km2K3B1DnAQM6OkagmoWjxGIMJdUKh6Df9AVpmuzyXAbBsiEMMTWm/aM9Aq9RHDR8LTg5tZ+iQY6YolhBqYywChyzn6hC9Awfo1rlV76HPOuQ8ckbzAlbqDLwzomWFAIu2AComTasv6I3xY2zIkBEi77mkyn39hIJ7D8dMCQAIrWYgb8aPfLpXBqzKZ+e7p++dOwuHmggiqwonu76Job10wtE2zU2O0gYZXed4Vs+ml9q6BAktoa3KWf5SGguL0CqcO4HKPUQXrvsc6T16JWL2VlR6KEq0Jl6uHeAHHpx3UcpxF4NA3sZ57j9vHAOKxrVNkmZE6pxSCGRRLU5slOt8Vs0APaw413UVNwYifdYW34HT7GyMWEvVSoOitgVJL/MyL7PVPZ97noiUjmJv2/a81K72xUjkNNpTIfAyddB9qg+6Kjt3qC6VDtFXr4jGJGkrn6Q+Bd2PDdZv0fl1tBdIBRDUQcy3eRaR5wuzHZatY5GMg9ep8yXef8Om75r7uxgEujJX2cTO+owO5fQLRmI86VorqmrXsijReNODfGpbEkxgG7tmPLZb4N8qQHjoSBb1Nbnagc7nFfOETqeAUgSKWXVqxlanK9RybRvvEKS/GVwTwlbKbUmrcY6KQ0plzGfPZ0YJ+x4VKdpV4CMyiVYjCEupDJhDLh19J8KDEi2phLIcrlEXYHmNQV7mCw9V/EPOIy/tMCkwGZTsa77ma7YgR38gZgyDd1Do2ymgaV87jJHcpsnIuXqWScHpM76AFEBlh7MimpxnjNJcGZAeGNuiF58FKtqG2z1KYzGWDFYRX1twu679EObk3KWHFYo1cVrGU05tMjcZ8Bk5pueeF4Vcu01OMtG+ueQygEnfQ/7eu6BuxKuaFV7V1ti6JuJktDpnF1W8jFgyHFMey7/3jfmd8L0+yzPbD0T9keWM9M96ePLHGpCl9fDSbeSwK58bC9D4xg75XaTeOF8UCSbjalUmY0CP59sb5z08MyM787wXLSNMX3JyHEVpNmydgID9Eomykdk06SrgXQDUvbvXTLPlbLO12l3aLsbW/4FdIBYw0w6BgeXPOaD0dcr9KuxPLCGZW9FFJxT+kUe0uznjR00G23jVIMFGfTam4uiTd23wv2CAbfNj/OkIPWQDSqOrISFT/Vu2t03cZgDkPgXHt2Ms0tV8redWoJivbOVXdnqCYOekq7MGp2dmv/9VkWIGpqiWkkSN+Y6BjA3IuISe5v/+prBNzrnM0XeExwCn/BRA1C5qkHtMkEV5UdJ1fGnYQsnanUJTeh3n6EwG2zVz9m05apLZvtlEFL1INQAOqmVtzGTJVZMOomW4YiGuIhKUZrBqwSCi1gCEltWgq9BuqHsTeY7JuYy8sa3whbJhcsqrR9kbtzY6SldyZjnblJ0TDVAW4acrJpAJNmtaJtirktb5oezJbDU5mnSNR+kG7e6gEy157HkZONdpf2BC/1uds1zG1nLNlrb5vtTI1IcYNUt1GTqAj4EJRPVSoajuXqiCZTDGimkxNW1P3b1nLZDPJqhpvuwCz+fSj6u6D/lzhFIJGTBFiuQAJADOnIS9QDCMgffZHnpQGjPdKAcbIJ2psGmop/3KaDp3uRlW41oqrOfUDrl+K73SWfo6017L9jZ+dMjYxpqRBbbEi6vYJzbHPW0/LWXlOgwLENE92LTJ/pJjgZ65Vj7Zc2JaPFdAJupVd2QPgpg5fZfKtNQQm8sWBP6zsVdRA5BMMUlSCoIVcwiriT2NCbYtt7qEiwDYuXSVPTEOnivA5a+yF+SqHgsoKBVunGJRyRyYU2iag75diiH/mnwLrLKdvr/I/7V82/OXTFg2uEAs++z/ueR1+tpA5/Z5cx8EjWsDpLmevWjF74ppon9SnIRQdFV+xOc6WzTmOueUk6HIFN/GQCg1dQgZbA3MOU3EvHTQUX7RZTlW9/E3IyM6Fpmg6K2xLjoxCeWIvGWRUS9iBxCwDQoEGShUH7opSvtcSth9rPEmA0qIJbAckzJiVFBcaDVUf0U650bPOXjPLILPKZGh8XROOqLdAchpLGMA+n4qZH0t4spJGtsZqRStNSHKHQOVk2LOwU+qtHvNKC3KWNsavyLN2CXPpJPlGmeR4tTtwIf7c0Kz2Gs6cytlRL4Vctae3mMyC1HdvyIzf5M1UGElBCCLwbKahaHGdpWuKzXYMrZA27l18yrvZ0zQ5orTBAcv//Ivv3WMALLdExtbuWhR4y5wnj7NOpYYmsaOHal6fxrSxrH899zZbjIOMRLuk22c4z1rtDqXwzWWE7DO9rSRTo7HeHo7o3luI7Xekuoe9KN5EPCgs47lC9QCPdqhz57fHOUI1BhZyoypDOBLw3CCbA+wEIiWZsVg2qMgcOZeVwUQ3FuQFkhWj6IWi44AC2ww28gmntsGLvU835ONmOmb5nOOO1tVm7JnpUrJeQkYq23pGvpA7ukD/XHfUkedV3SfLW78pzxqT4HM1Nn0GgCawHL6bn3d+vY/+7M/u7WTYlHdNLJLoRW1lZPVqSmcjPiysRrqPALoOSmyNACkakOJ3gOfw/L8JthFkTvhoyAtz1N5T7m0SxvkgkUi1s+KQkRq0ggiFlQVZfN8UbsoQJ7zK7/yK7foD6iAsAEX9J4KVQj/3JNDX+3/oN36AtmRFSOpcNHSHg4HeNJuQObcxwQIZDcRa2BuAoGAXuNf9Gr8RSDlVhuzOXbpCx0KUHRvY9aEmNeUh23VQKDVsyqyWcpk+cwAZ21uokTvTrTuXm1mM3U2I5m86kPPSg4MGqeuvXRQBIgB8kxMEYcIqNIpERwHY4MgG2S1za450+H+2olZABQwY/Kc0mBRzhfNj3PryjnvR98trzUPq0FC7bIH8s1Avfobc9icvAgEAXTTWNOhGbxk0GOCirBd09LieX73WoIE4x3bNiPH9D796PpA5Jw76bjnFXQ5HwiyzE8hHkbRQT6CAswhhgJdHRtSvUt21b1yMlHPbfLjc88Dur7wC79wa4ftAWNnSkEIXcco0FWpHramA3jQHo669l5F9J6MzAVzR2TsM3bRklcBFNDNLgJRdOMqjwKk/NRkQue8nLZysniBz/RqCWgqSqzf2dmljTF2zq09vs+BN75L21z7CoQCwPMepTLy6dm0Cns989/UINTZiybiOQYkB9G9oFO0IuTKCOwaiDkIy+tzqugc1zPAjCzAAYFSerlM9/XGRCkF6BlrAJD4HHiQRmCUGSoTybXOF9nIkWIaXCsv1UQh1MvuvNgEN2G9lIYx0A4boVhNQC4KtlBrJguUf26QspTpRQp30fgv6e2JsHOw9VPbM66N66685qR/dz03xfZd1FzUcvcPSDj3KozabFfPjNHi6ABOz2b46RCwR78AUjQpStLkxVJJs3F0gKvPgQyAAb0qH6tvzmM4A/HAM+Bhi2wV1IpdOVaRHyDRlqmMQQYr5+ge7snRiEbdG3j2mfuITFqil34cC0IyOunTBIcimLd927fdfNmXfdl2Pmm3vpqXnKG5YFUPOYmoyWCf3i/1+BB7Ndt2aFQ6dTl59uyL2jjnVPa1eeK5alVE9iJ8rJHPjDVnKTVA9uwbB2+sjznYE0GOtIE0MaDJjmCp2F6bx9FfwRHwyXZ6LtCiNkoEykZa6aRd+8bhmLZ1bvMHU2JZK/2U6lAb5m9zCYMmaMIkSEHEUJ4y7qe08dzXHNvudGgZ/CwBy/SXyzZnq+ezL2rHrRqE5cTf1ZBzCKeGZDigRYYMbapuIGS0y0Fd1CEGthcw5SgAADUNaBoFiJY5AgCBEFtoWjLkf+kEywk5YJuOuAZTYHJA6ww6FM9Y+1+NggkckDnUqNxOfkBOy71stMG5WDmgLkI/LJczYRl8E72K6nOMSfc4Vlnns+e45rCLkIx1P9US0DeOiGNyLcfYiojQ7ozyyLi6lTZW8ptz2yLdh65XL39sDOkWQ5Mxn3nlc8itPs++B1pKxzBuKrDptigZO6Sf0mqKwZyPPVKpT0cZYQA3FI/dAlCBBiwY0EBX5ak5TfrAiTgCWbFnKGOUuXMqCG55W/OrzzlrnxkP9wEOzEtLtQDlgNaxjmE60hnVqKuxEQ6GjpNSANsGXVIJIka7qZKd+WAuAA275toug3esTi8BzO2AUFFZ4x7LcFFQddG8mjaOXqi7UKmfHNzPvY1z2zazk+RyLFAzR8gYEyN9lX0EwAACxXT2XDDHMJSCIfooUgcgXA+MAjBYq6sA28139q0Ugx0V7bsCONJz9tkcAaYwHhNgnWNO38Q9TrG7F4HNgqoYpKWNzj7NQuilHZvX3AIILqgAw+AfawgOFWy5wTrYxhiiJ9RRhi406bwczZz0TcYma5W7GTJLVERsKHnGT6GL9IJtW1G7PmN8UfdoO+usUZmWVZk8k4rhWDitNlqC4qFvzzyX0/E8Fe8oNBEhgwHE2JxIn7QXlawdimMYy3MfKUrUl77NnNrtnhfgy/FH47umSJWBkbbh7Bh8TlxOVN9a8UIOGYp+Zwy1pejFPfu73y1r5HA8XzTMuXA4+nZuozZZE39z/BO4eZ42GUt6ZwMq/ROdYbu0WzTHMAOgKrfRu+5FNqJr0SLdpBsOY2LFD0ABOGLG6KvCLjUzvrcHAzZA3UobURnTZBBYM6+iP30vOuOktFd7tF9hr4i+4xQwnBFvHAHvN33TN90CI4WZVsYA6yJEz+MAzVeFeEAEJsGeJbdeIPPQnS+nPqaz+jPrVA4xvrWv1EF6EuW7dMbJLyAc6F2mKJYgxXNKSaWzrc4RdKDw7XtgxVJzxj2XetacOmb+k6Fia8BP0AGA2c8E4BA4mSPGBZOgbfmCgqDkaKdLDnu+h+KYduyzIb4HGoEZ4+G31Bvbaxdc7ArdBGqAnRl4nKsd13UfMs5/neJHjAkZAf3GqSLsi+7V+bGPfEkpivzucn5vixQ1sodQ4PJph0yuY4U50b5niU4YTMaRUzcZKygKDXEs0/BOxMMoM5Z2GrSsUdt1nLGDuik0h8rIMcqoW5QllIzKcq0cMMXrviJ1KNlvURjkKgI0gRhjAyCSo7SxF8fKYZ6fkgAnVlUYJPk2dLRnkQfHgVbjOExwE+cqDjIg0/KZc1OjQ55XVXbUtLYDfraRttEJR6lOxNiSH6OPWubsRCv9L4oo3xsrRLG1DaDolbeodW0G7jLonmGcORefcTYPetCDzgbmdskBEMgJaxs9bClnMsVU0T1AVWTEOHP+WCy6aQ64DmiQ4iI3+gBQVZeBeZCecO92tNRHxl8aim6IvjApGBQFunagU2xLxoCZeeJ7oIORVRToPM7JPTlvc0f0rrZHm2bK5hA96JwZEJARYy+t53MpNc+USzaPyEkRMcAA5PlOG7XfHMaGXOSEzWX6RHbm7DEBToVcZGy+lfM1B+Y22tPh194YEt+xU7cDUNnZAAcZ9CIvETIGUbEykBaQECVLOQbgpGOj348ZB2OPSdXHtm0Hno0HmWFP2RsBm3kmLStoAygwVvTVGOgD29nW2Me0Yd+5ATV6ry7FWOg3O0x/gUhzn20X1AnS8hGuvWyqd1/7zv19L6qbha/7njGDuK6fS6/p39zsb94vnaLfcx+auaPmEgw/oJ0Um2CMCnTYBJhCD61V+RgdqVHOd5QiqChGoxweXEW3z6JARMxyXHJfNuBxnvtvN2l46DI0HQggxDwUXXoOhyBaYlwU3agbUOjj+nJnjBHjiTVgkBlZSihK/6Vf+qWtIWCsRezSB0Wok8oBCkwaRpqhlwvLAO4b2H3fe44oSW5RfxlFhsLncrSK2eQNf//3f2/zKZ/yqVsH4shwH0s5XtQez2tjl5bxFVFUeOicWJXGtiWrsxbAeVA/itJ4cXT0jBFkeFCdHHnV5elQ9/bcaQAYfePdSoMmCIAn51607HpAjnMjR0ZG3YjIzOEe7jtZD/dsw6f64Nxy9zFKARt9q4gwR+L6ogKf7Xo1tXSVqnBGjwx6Yx1j7d7kQ6+AUflidDO2SFs5d0BH+4EBQEC7bAimf0CGYkiH9gFiWAhOxX3Iy+6E2AWOR/ssJ6P7GAggDkgxzpwAOvcYR5s+VmPS72QtABC5ajP9Nff0F7jDivhtvw3Mj2vIB3g0luY3gFAAs9RfugPUkFPL+oqocuLuGUPlu6r7s330vYidTMiZLTLOxtb1xpVOtBzWM9k1bfV3dqO5kgzavTHwYSwyzECv8dN3jrj9FrSLo7ZfCzDpudpMf9puOOaq9hbxt8dBwYyI29/GXFsVIbJzQDnmSVSeo0LhSy3NYnX9pXOApFoQKSL9JpuCgX027nbfBw6cQ/eAVmk0gECBpP5Jh9BXDKs5Abg0h7NDl2nDdV9LF9P10qbaEAuerlc0XkqVHrZHDHBnnGKzjb/xaPVPgILeGF+/2wWXnpFvDH3gO/u4XWL7kIc85D4D7WIPyuj20B5cXtPn7VOuMyamDvncDV1v0AIDzsngt+WuZ0WxMV7uR/lEjwmqxtbB8nyEEzVS9N5ykQwRpMmY+p5zxQaIwCFnE63dAAECis4po9lEawZlUjQZF+1xP4bM5IHi5QabIJdRrpw8A4NeNQE5Uc9Ew1r6pA9SGxyAyIrhn3mkyzx/XhsN2s6ZbaLBUHIsxqhzcuClX/xv3AEpDlv6BnhzPgek8K0jHWm5H6Wey358HlUcGMwg9epxn3s2Jaf4fsjEtVaeAHO+Q+0zhByutBOgRZ/prOems+5bFXgGV5sY8kBtQLd3Q3ieiLXiyPRF25ZUn3uYA0AxR+BcYxqbYLJjPeR5MSM+VwfgOg4SBc1ZSjtYduvZIn7A2nmWfnmmNroWAKbb6GuOgcMHxgEHQBqFT7+Mkx+gQXSGcVEge1G0vk/XAliNm//1y1zUZ3l27Retar/x0m7MisjQ6gypKOCOXMnXfF7uDTF1SZ/Jpo3VfGd86WKbtBWsFMSUAnKucSajHFU2pupx5zSmrZgokHGfDK92ZHjdy7N770JBDiDr/vSqQIrjM/elWHzmfp7HEbSPR4AdsG5HvEBQemnM9CXbqG2An+DJ+BtzzBB7YvWC8Tbu6l7cF4ink8tovDofoFRAZWzY2QDJOQKUnD02DIugjdIgdBZY8D0mwd9khxEJDB8LZPfp8HV938uS2mnTuLefSyltbWmZeTVXnU/XAq4t74+FL7giN3pA/8nNtT7zd5t0AY3tDOrz7P+tVQwuomwuyCA2adpEQWNEa6HqXofq4a0Dbm1l2zwWZfVOh3LTGVwvuICiGIui8fl63Jl/mwahzxNC13quXL3v0ZMiEAUt2g0QQKcMTctlGFDKyClH9ZdTDJWa6E04ggMyGKIKuy47OWIpyAbwABRaoyzSYuwZeZEEoy/aEH1p77knRs6/NdZtkdxWsHQi2tW5xjXDnWIzJtIJWCF/SyFxOPWz9eHGzITwP3kGUNtDo+2XnZfyR9sHBo0RJ2Ccyc29OEsFgGQHSHGIHI40EiZJWgmDZEybkH6Tf7nVnp2M24zG/el9b6VsI6f5TpGcyZJuLnqlQ/QPSwD8KUI0B9C9In2OBNOlKJFMPEOKTIRp7IEcbVUrIIdP592LjBn2cvvmM7aM4Qc6zAOOwg/WoSWzAJRUg7mAfWu1QDUfxxjLSYG6Tl/R14B1RipwqGhT7p7lmsUAACAASURBVNsPYKCd6V+sGbm6XtGw61raN9uUYwFg25vDsxqjdpkruPCMdgo0zkXbsQeBhBgH51YkqD90rd0WA6m9CyEQ4bzStoxv0bh2t+EYPTJ2lleL5q10wbhlb4yl9ALg4jdZGHOfK1oGuP14Nt3KNtXv0qBYGwEHYECn6JkNgAA1Y48VEKAJkpwTu9t8TQ7aDsBggkTzAMc85xg9WZ6b7TUnARQgxHPJpTQLX+F5+gdAYxDuZoCgL+wK/SNzesLu8y/sAT8Yq0l/8suuMzfbNXa5HDu/bT4EULEuBfb5+piKGGI2JRBB9ltmqK2Wuyjk4OSMvwc5qn6NKWBUo/Ncp4PtghddZeDLz1LskKgGMHyiIhWzjF+blETjZWyWyuRz7avC1sQR1ROgNILIUZ4TKhepOJ9io24932TgKOQ+OV6TrGf1ezr9ok3yMFCofzny6JnLAoSUnKzUUjDWDAGjqoDN0iJODtvh2SY50DCLsS4zOS9iEChLrxPtTYjGleJwQhxx7IFz2+kMjQ75q/9AZXI8riFHuhOYMxZFb60+yKhG7fc+CO3wXTlb1xUR0k+RUHrqHA6HQUGZ003yA1RQraIfTIxcO+NqXGMn2re/qK+NkGprEWUAVTuj6PblQLuWfusXZ8/IodZ9FpPUeNC1GLtAKxZEmoGTAsCsrNGPdiD1DHOKXqtpQUW7N2eszarVjYFCRoaW4cA8iNoB6l6pPQH4MbrV/HE9J4apsPFNOu7Z2i+HDRzVP0AGODF/6TgwR7foP3bDUS3EUs45dHNG/9HPPutlXbFUggTfpUcBBtek1xXLZpCNE7sWwzpTSOl0QDfGxXN9xr6wEfNFSZ7pGeYKWXMExp/Namk1u+q5bBbnLs2gPiDgCQhaYSCal5oyD7XXvTB3c7dE7RCB0w9LpgFDdpZ+mB+KEjEM2iwij7FayjhWSPqBbVVI6PkFKJe1gTFvGCX9pbfayQYCrIAzwCvIA5ak6LT3bk4xGE+AgAzbyKjgKT30e6ZhkxP9IPNq1MiBTqnd4U/JzDkx7wUnsVaxvflpYKNMQKzdNkBWpBjS9zCGkYI2cTXOZyaGAas4rMnn/yIDE4kxnrRTHfS5DjEQ/qaAfksxpADONWmKFC4yTEUZjIlclfYp6pOrQi1DnIwdAxwgYHQ8U7spoKJDVL3I7HaFRbvaICq1DJGiavs5jgYemjcZ3JvRNljQP2PDwHme6NjkaFJeBKRObRewGGNSXrboatJPsUYhUEooP8rQM1acMjaHw3a/tn2lM7Pq1rjTuVil8rg+6w2jxtH45Sgz7p4NGEDdrje+jCSAgNZmzOgCZ+p70SrQImoDHkRS6WZ1CLNtRYTaUdqsvHIUOp0NIB8jc30yiRXqiphK65G5z8mLbPyQtUkcKOo52gDUAMIoX0CJDgGamDFtluYRmfqxdtw9AGpLMOkOsOy7UjfH9GGCvTnvOTDP0GZOh3MSYNgNj02RMpD35vi81GoGDsbWvQBjBYvzHQi72qYPrm9LXGMRTe9zjpz8yKlxygG6tqLSinNdU3Fu73hop03nu9bvAiU66Hz3qRah+gZjOtMAnuFavzkFBlqNDmaQLqL99V/7gXA2Dahh9H1Ot40z8MUOSC/F3GVfY+Sqj5A2wOgJqBTKqs8iE0wURtWzMFHaYQ7ssic5YvojwNK2aO9j7eeuMXR/P+ar+anfZIJJY2vJFwtmrrEp5jcd69mXBSjH6Py5ztVf88N8oJ+lNY0NvWkcS7dW56Wv2UX67Fz2tQC7LZTTixi7GEHXzOXgriswS/diUm+tYmh//CKlIirCyCD6u7xqBWUaV36+nDSF80ATUuec47OKJ6JUUOZQqIhClBBt7NlzUi0HpDoJ54Skys3IY5oYIiSRuB/PoPQicACCw2W0oNWWTh0z6BTVlrAKFaHwcx0GklNDATKuUD7aT4RIIeQJLWvTZhOUXIsqzjFJi/IylDP/Pin+qK0Ur1oIAMbGJgrhgAOTmdzLoS6LmtwzhJvzpSeNfTk4ylwaIYfk2dpJ9zzfZOqlNO4h0pBGEDmLmhgVleKAhMia4zGBRFflewPBFQV5hmfTsVItRZAZpHRZP5db6u7Tixlt5yAnFV1k7D7aBNSI3ETbGDdOg8zpRkdV+ByViFSkBdD6HCjWf/221JdDQCmjjJvH6dS+tvd9ufraSGaif5Gp8fV8OmusMDeW2wEm1TSJeDgn5wMpxoYuAE0t8T2kLTle7TEm9Cr9Mi61M0ZgOpT0J8ZG21yrL+RItyrEa/yr9WiMMtLTwRqvds8sFepe7tv5fgOHmBYMF9o+XYgxqUZjrrAIKOs3BzNZEP1lA4tKyd18cB5qHkjDmuoTewPQA4nmbM9cpi5Le5hHaGvMV0HDuWyPvmAb6TWmD3gkT3ohHYaRxHaw8b5vKe4h+nEnnlMaszS88Y1xN1a+z8e1jfj0sbH+2ZFYh4Kt6vwKKgLwBdj59Wq3enaLEMjs1iqGFMBFlC/AMPNy0RmUPXrbwzmS6dSjbBl1jUSHRi8X+bkO3SlKFtWJmh1FiQ3oLjRbh+toRtpzRVCMuXtaCmgCeCYjhS1A6WgTdsFE8d2xCo4yNVEwEb0Z8jIKqB85Z9Ge/J52uT+D6nvpERFh9I9+OFKYyzx/eS35Mjg5X98X1VcAZeIWXXM4mBxFm4yddgJlvjc2Of/aW7V/y8KqSwkYZCBT2KrGK5DcKu5DK9IrbMzgajPdxbhUUOU+gCKwQF6iKQbHczlakVhOAPOhHYxgoMM1GfZbyPqha/Gjpo/VoRzqZESK0rpX/+dc0pP+N04cAeBrNYR0A/kD3kB0BiJZkQkHRKec4wVm9Cr2qlTJMbqkjQ5j5j5qBwAT/5uH/lb/ocjSeLMFxgXDgfUA1I2DlA9KnV4ByFIL+rcvbePZ0d9AQI4/3UvOdFT/ganl6pLkqh0BiYx190snndt3AdRSDc3FClj99qzJVhQpO9ff2k7nOEaysvLG/aOE55hU0Nj4VA+EQXN+K3nME/3gYIBzgFLNi0CjXSuBNEWR2DU6gLkAoHMaS4Dg/hy3axQPuj6bda7onY0GFCvyBPD5BX2hG+y1wEm9jTYAPj37XG04Rvcvey5dyn7QBeNbAW2FhHTBGBpTfWzu9zsQTD8LdNLDAEO2OjuQPZ8rFSu89bvAbvu8+brnDJLfE23UsCJF3xf5TSVpkHIiVe0yrgzuUqFE4gpzUInW+JeHvV1eq8nsXmh4QjUxREbWxarSlbZQfJNhR1uhrNBSJqMfjAUWINrlmMFurTWkhRo6xTksnxcQ0lb5QrSiaJFRYzTkIsmpfGzga0acx/Rh17nTATVWGeAcmbEslx6lqeZAWocsKDjD1AuF0pV+u196lqPPwUyw04SJqXLOrtftFsGl/AGF3o7nf0YGS0Wv6AU50k1OA1jgNF1fnYVnZdybB7U/vY/tmobpWCM12979AlHJP73IIDRuS0PR59qJVWDAOWaRHhCBXp5AgJ7ZmKiIkZyKbI/RI9ekN4x4byCMhWHgRH4Mv+JQgCCDlYG0PFOUKNrG9nAMMRoc0z5WI4CQzIxZdUPkVJF1kfgyZZGMGw+/08UA0HJsO6f+5/B9Pldyla5dBjrTjmkXgKDdmAS6GdvqswnUZ51KdWLsnzkJhGEW3U8QE+BpTqh1sJcB1lOBIvaMXQHOrA4AFDqWNs1zsTtsq+DKWCeDXUHcMTqUTQAK+QRzlB5Y+WTFAj1lc7Eg9FrbpDrM3eRx7Nw7tn1Xdf4MAnoGeRrPtlSnCxXnzn4m92lbd9nwaYML+JfyYtcDnOZsabSd72K4KmFMI6aBCmwoK2OlKn8ax9u1QUc4SJGfDitoobzy39a6t/GSKInSiao4Bfk29DeqtcjRc5ZoeV//TTw5VQ4G4rqschrUogN1EYwsuZi0GArFlvohpYEaxB4AOVUvFynua/dlvs8I6yvlzVGiqIE70SCDk9GYzv8yzz32Wm0jS4jb33KY8q4OgEsxGAcBMAIN8r7OOYSJmc4gw7TLmUynnvHL4F5WV46Vh7bQUaABo8aBcATyvLGFx9yTbMkhBjHKXT5bBFo6UUBAZy0vlnYK/HOe5qUoUGQrKuW4nK+wFbNw2aOUkH6310AAsnGeLFXsWGDgHID/mD5orzQLuaQv2ltNSgFbAM6YLvWvc2NyBBatzBFsAA+oeTZSaonec7gAOEbJ0llphiXwTF89U4Ei5k2BtLlzmWMGo+6NBcFO+FxhorYClApoMc1SUWoOBIDO8fdcNn2ZtqzXXiyBawcIEzlDifKMIgg5R8d0MBc1u6INjl4Uzwig8tDzDD9DI1LBEJgA1nWr7IZC0ZuQmQkjymUkjzXa2mhyidBm1HkZRUsu9mqQH7bbnUksBQPdoZBFCqrYTRp9B1K0/ViAc0o7iz6TFbnGzGiTZarRuksUe8rzTr2mXCxZtZ6eMUXDMzjAAUaBDllCxakBZIeC09C453C6jijn0LnnMXgMM0N9EW17ah+Pua70n0gMKFDgxiG0fvpY3c+JGmM6wDEBWOTIsaInyRlIxwg4xxzB7tFtUWFv6ctJSAtyUIz/uZxzeiBi5oABk5a1Ajf0oaWXItGZyjhWJseMx0XnAv9SoHQHiLUXANAkCDFe6gQUWguAFKGJ+slNYMUGsgXsHZ1kA1Hxxhgbg00wFlJQggp1TYqc/fY8YykQMV8C/pMdaD4LVARiVnAFvE7te7VpzTupYHabvgr41B9giKVZARdBCMAntUvHbCp3E+N0an/v1utuFCBQUHSVJU8i52WKYZdQi87Kn1QsxCCo6OVITRpGi2FWIS33HGWjSEd0qYp6mU8+dBC1QXRvQlNUaPcyx6QxRbkMpYhcW1XwQu7ldU1ixZUMbe9ov46JUsRCjihraQWMAaNF5o1d6ajraNMumWtna9UBRlQotkXOkpOQtyRX8iNj6Rz6dwgwLT+tbwwY4+sIoFU/0wuoRM8cZUbwHFTssXpGt2wM1uumOQJGttTJPvp++bz0oBQCINurie2zgKWT3gHAyVo9gQiwVQVYPw7QvMQgiHLJUtEZ+RxSc7BPBrFx8uoo9FIOpcQaB+f5jCOywqI0z3UA7mUfOD+MqgjdmAAFVmaRkeAGWOCc/SZnssUEkBunKtiyvwUgCLgbA2ORDOzEKlWp7oROsLvSGj7DsBojEfmSQUhW2A0Fp5ZY0qFzzG/yr7ZBP4y9VBR9sveF35hUhYmCIkwTVsqGdubvOdqwT5fu9e9vFCCguyBHBTSU4VAatvxixW6hWRRVuXk5G87WZ5Sc0ZZrRo+JoqwQOHWZDicJgdvQw2ShsJc5ogwZJhPBRMVuiLSABZPB5BEBcmYmBuDASV/nJGFYLK+yTApI0W85Q4d2ZNxvMi+ojeTG4AOJUiCodXKtuImeMaiq+4HUXkZ0SPRa34AiK2XQ5/QABSraq1BOoSZHqChsGt3rHC/jwumYY+pv6HybkMUAtDrjGP0lAz9SN3RSjpRjUgSHVQPQ29WRo5LvltaQX/d839vel46rPeAAzxnB59Q8gwP0bKlFEbfn+FEsyfGYT+yENjoOqXk4RlaHnDur0XP0bIGomf6Ktnurqz4JGARU2FcHoCDStskaJwpgOJ9cBRR0kUwwJnQAk4PhsioKODKHAYTefBqgjS2j0+TEXhtfgdixwHIpBzbUoV2ANgYSeLHKDAOlrVgTOsLO0C/MhaJK/REcnQNMHjI+9/I5NwIQoqxMUEYUum0HsUPQO8VVdAVhoy85LNejldvwAZ1m0jPIP/ETP7FFolAwoACBozQPyTvvUg7tb5OZD/iAD9gau8sesQhthmQCAj6iBlFXlc7SDYyYZ3KAjlmkctl2dH2OMApSeyzbYoiABBQog+FzBqyC1HM9/5T7VCdhjNGQ0laWQtkDAaCiZ4wKKlMah9zkzkVcGcXbPbcaBDpKBpgpII2TnKkHMuGA0LxkpF3LbZdP6d8h18xlh5yFiA9TJkpsR79D7jPPCUxUMAegKxwjOwf9BJTMZ3qg79awk7fPK0okI+kcS0yxbgz9VeSRPYcDYgNsKqbeCEDSj8niKOAE7rSbEypFdAhQPFaG+84v3WL8OEaMoc/IGhgofQrMKtCz0klf1JRgArCi0o7Gmk2UYgX+6KnPMAkcMIZCmoKD5XCrJyEDQDoZ1V72s3fbSMmZT6eAqFJdS72SmsJ06Legw3joRy/Ls2TWXAVitEW/fF9dxj65rt9fTgI3BhBMQhMYGjUZIGdHFPXtukWZXI9+gzBFbxQbdcoQM0BAQ8hXjtHnnJr8M7DgeU3KYw2CZ7X0hPKiUS975GDkajEc6G/OhaMzIaF9G5SICtRUAAjR11dBXbd9Z0uuOF3ggFG1bh593jicshLksvLadX3FkwwfXeC4RLLGSI5XOwFIdSj640cULMo8JMWQvjhX1NeSPXRvy9ECv3K+6lSkohw+PwT8nkMuxkU/ARjgzb4fHPEp47QEiu6tT+qGAqctV8VUiPTMx2TlnDZ6skyNkwIOyEx9xlUApxhG9Qf6ja7HXrQSp7H2PeAgWEBdt5LjWHtw2TFr7k+ZAU+AAD0DtPzNgdsoTYEepy9lJkhSY4AZUAtE1m0axukr+lTLJNXS1srto0I/XWuuW2JIRqVjjIt7ieyd1wogTEwFqsf0u761n4p7AO5SCg5zV4qkoMe8ZKOrE9F240OHpEeue4yO6ev96dwbAQhRrpyN6l1KjP49BCCY3DmCDC/FEdErChO1UXYOnKNFofkcGHFwDu15fmqBH2Vvi0rtN2EvezSB3At1LaJh2BjfJhIjBiAwxJyaqOCqJkrReGkcckWro+Xls2MMroK9OFWW7d1gKRRDxqhhldCnvTfE9r7SQ/Le2Cu5zgDePvo/IBaT4F5SWtisjvLYisbQu5alGqPWOJ/at0Ov41AYXykWIAFNzbmcUozrmYFA/SJfkSsdaPc1BXJoYWkDRcAtL9UGuiMqRIUbg4o5fWbeTJkd2r9Dzms5NrYNUBOlourbZ6MliVg59SjYR6ziTAUd8pxznhOwnOlGMuO0jaM+kTWnSWf1QcpUdC94UEvD5ony6STdBBCkvSwzxSaou5LO9QybIiloBCr8b2mhZ1WXQV+kpzBkdEBawnNjFI+l9ycIIjf1SwI2nws8tMU8AtqAH3ZbfZOxY/MABHMZC5zNuyrbd85xvdvvde0AIadOKaFX0QRH3vrWQ6Ph9kZ3v+hv6JojY/BFT5SdcjGSDBplBBZMHgp6CCDZNcCBFJPOpDUJL3NkHKqMJxOTxqRF6wM1aikYVhOVYeid7JfNBV7U7vKijJMcITDHyELwc++FUiN3wmRlvBg2ThlrgHEBPnPaVUpjlFR8YxlER4zlIUAn3Qw8oWpFevK59b9zGGXsD5bLYWyPNaqn6JR+YDY4CywTpmcWkB47TjEIFdFJx2BezCl6mLPtPSWMPJmo7bCEsRUcgK7oETAzJi1H5bSvgllp/wxjjI0DAmIQyFW/tMc4KeIUpV8VYDlkHAM16U+bh5G7JYXAghoK9HqMjfaXy69v+sUuNX99354K2bv0wf/+bpVAO4ECTkAfWl971B2wR9naU1IM2lFbMKNY417KBrgYA2lAgZwAyfhZNVG6BPMrKMKGxABdle07ZLzulXNuBCAEEjg/E1ikJdfEkB9rwBooqwnQiRkbSgRBu3eTp4pgisdJVMm9L3LcpQwMIkPsOW3EcoyBmbm+AIK+Az7AjHar9IacGVo0MQNR0RnKsFcpn9L+ZZ8yTLNdwAHwBshhK0zinPA5nnnuSZaTV8QlyhWN9GZC8kKLMzBqE3pHgCp8/dqVAkgmReUZVOPE2GFSOMLe6T5TEJyg4rF5bbLLGbhfEdsp9H/yK8qnz4wrIKlgUNuOrQ2ZfTDG1TQAW8AUmYhaFZLRS+kGYKGXzmS89UueWxSoHe4FuBX9nmvsmzvzfrVBXwQD5qfanqmzOSwpBgwHPbgIJMZYGqNDUlHn6lv3iRkrvSe4SZdq85yXMVzLYKv2B1SlIjh/dSLqVbwx0zgbc8/Euhkzu9KecrQcvV1KPVcNivlX/Zf6MDUUdjqVQjF3sRbaDtQpjtQ381gxKRahDX3uRBt0ipzu5GtuFCCgwgy8Qio5tBT42IE3IdxLlB2zwDgrdKni2moAFLmIReQzc8OnPM8z5bgZSc+c99h3v+XEzci5jmEVeQI72infxgCjQPVFFIxFMJHOCRCiDjkZE9ukNi6AF8cqN1gUfBNG8pBJlCEFBgAB480BiL4YHzKV+xYpAYtAGDliRnYxV+28l0EKPDVexoXBsy69Me8cEZJaEZF8u6DtklvvvTjWkScP0XxFgAy56nXsSG+/O0RuS+fq/4CC31IyUl50AkWNlcPQ6I/2kzsnw9Fqg7/pkbnBQUs9VHV/GSC0bOeU+fxuRriAoohVMEJOXaPNzkPJAzL0QH/01w9WEIgUwfZiJfalLW+PletlzteuXqbTtuW9Sba387WKqBqulqHGGtRf+qhuAWhyTrstzsCAvqL/AWepMvI4JVonX/d3P3NJ4SpAoo1tpwxsSvl6vnQQ/TFezjFvBUj6aHysRpkg+zoYucuM2/3h2hsDCJTOBIxBUINwCM27S+jdS3GUiRD9HjhofwSKx9lRSJXnMRn7HPpFA83BcDTth33sfZqUy+v0g1EyuTg46RfPUIOgaMghKjsnQHDP9pbwbE4A3YdSRu0x7O3WdoqxuI7Jkv4o3rS6BB3L6AAGlteht/1PP7zJkdytaBAZu3ZJddMf+kT2jFT9Nm7GRj5eYRWAMIvt3AvjoljW2HEqltdKZdgfwH0YSMaQfKXDHMfKdTo0NDSQLY+sZkXqK+dwjOxLKRQ1m6PAFVn6Doulcl6NA7DAaPu7LYU5Hs9u+2ApByAXwGTQT2UId4GY+leaq3N6hs+lOzgmaSDjUC2G7zhLjIs2SjXQf0wI/Z/7rETjYz96odExMr3sudmxpUP0eXozAW56UU1F3/nf+LBb2IgKHRWLsjOAJZ2kj72cquDnWACbI6cHVtDQIQAzAMO2YKGkLixxJ2OpIEXF2B6ggt0BUgR6GOb6emogedlxuBevvzGAQIFMUNEGGls6oONYR0u5IGr1BQyvKnZKRCEVq4lkOAzFWihPOXXG/VRFa8JRcIa/l7Yc0+5JETJG8+1wZCLiMYHdXyTfe9hD3ucGCGSo/SY0OSmQbKOhxqXoxTnHvrnwuiYXw88hkZcIhANT+GkvCbqgyInB4dSNozwrp7pr7HyP4rQCwljYrRN4E1XRNc4fNdsLnoqOja0IW7FsumKMgRROCrhgeF0nFYDNqk7iGAcaUFF30zbSWAtghiPIaR8j+5gD7TF/FMChmQMMPre8EQ3MiMeK+I3NYMilxvxYYicNxxlgxXqT4jHt2XVuMi3a31XDkPM0jxQiStFZ5z+vwWxgOJyjX8bE+HKWbJIld8APBoUcFPTp303o/mSvoudLJfR/AU+/Z11MAQA7o6aJExZsVKQYyxXY6nmlYY/Ry57vHuYeOwmEte+MzzGTPqcT0gyeA9hjmuiypanmhmsAX0WtrU5Z9u+y+rRef7EEbgQgpIQmJGeoKI8RMUmPVURdYwxEOia3SEA+y704Aoi0JTyeCx2j6yliS9OOVRD38UzUNFai10+H2A8BCu32hoGQy1YFLhfnEPGSDfrNxDCZ9cXEtiwIC6JY8ND1+7v6N9fLZzwAAKCg11ij6n1W9bfzOAoT/NiI4lgZn3J+oEtUIsXEuAMC6H7yBRxFKSLgNqBi8Nvoajlu+upaRa8iIMZMKouu+Zv+cD5y/mQ0c9RqRaSCgC3ggtPhLJ2nYhvQE72K3ux1cWhtB92rhsE1UinYMDtGotOXzuIQXZyynqkFwADA0n6OFNCWVkFR56T95nwtb2TorSZi1IELQEqap1qdc6Wm3KeoHlAhT/NJTp3TN76YAEBW/33GIUWXN0767ZzZFyzO0i6Qif0U9F/kfTdS26XF6IyUinFRbwA0++6iQtHJTNxuTpaijAUjK0W8gLl7sGMYNYBb2obO+F4AZLyAWj7AXOQPgDaBFxaBnZsM3aFtOsWGLOdCNq8VONM/zdqUWVd02efeSdffCECIxjSpGVgTjiM/FSCYwAyCdAUjYC8BBg2dy/mieykVlgGDAJlay7+LVj5kcLSbojDOKm8ZIEbx0CgwI6xNIlrORNWwqJRstNH9oWj3liIxiWxSYkIpqBLFeb7jFFA125ATUaRkMoqo7QDYHgiNS4Z15ngPkdd1nRNwUxtCrsaE7NDMQBzjw8CTN8ocfQkgVKG9CyDQFakJY2EJX2kHDtA9MQKYgaKbIm9R5tya2eeMCMPJKDOG9urAInhNdmO4z6FniNzbkjc6wOAz9q697IqA6GnyM4cYaUvo6CfQ2rvmyUGhL/13LsdAjgpDRdxABXZGX899tGRU2qA9UIADbcXyAF+AV2kW6TIMwKnRsL5aDYKV0jd1U3fbEUDQbk7auAG+Ao65KunUftENz7AigW0FegEB44IhMwbsiRRfK8uAdhtuYeGAAuMpwGvDKrrt+6ta6bKvr7FNggI+xLhjwvSJbvFb9E3aTbv3zd19z7sTv78RgJBzYuzswa1KnqEMmR8raIopUgQORLYMuWhRRMWRttRKRCdCFnWIwC8DSAwmByO3KqLMGBUJ3m6wowabtBX/aY/rRZschohMrpyBllJQtIhC1gftvwxAyBFUgMQJKkzqNdP1p34EpnJQx47RdSh/NQicNoPFYQEDohMMAEMkipE7J0/LAFt2t6s/7kfmUgkAReMT/Upf/R1gCvi2yqGNd3ze/TFGctkAsQ27gD4O1r32Ofeey0ECioy7vtET4PgcwC0AhGWzzNYc6k2r+sBY2uwIc2bOMppApfy1PjH+gYeWQZ5z7JszfvfuevMdQ9BOj6V60nEOjXZwywAAIABJREFUJr09hcWgBzZTMl4iYmzC3XgUeQPM6rD8YCkdl53P1YH15k7g2ZwTaLRxE1ZPOqw3R/rfOerP6C/ADCw7sJdAabVP52jjsWMW0/06r/M627qe0rDJsYBJQGIOXsWmX8e2+dzn3whAmHSXghkRP5oQOjtFESricb3IzoGG51yjfm0xKkJmRESFUgwmRT/HCpbyiOBE8wylKNJxKEDoecAF5IxSkw9k7LwUxecK6FDiIt+v/uqv3joRaFwEYKnQZQFC4yA69hxtZwA9P6qQvEQFkDL0H0uyz5kdK89zng/cqNvgRLUXIFDVjx635pscyU90wjgx+LtYGPKhK1gGbJRjFsBNIJDRaCXFpEFnrliELS/LOEtRAXx037jvk2lghDFiWD1fpIZxavXOZelvz1CIJ+I23uamiByQART8lkbAzEgrSH1puzlgRQCGxHlAA1lchdGcgIuuilQxiKUeZiFiwJasXOf/Y2XkGvl6BXxsCJ24G48iYsETp4Zh8/cyGDilb2TPhll1wJ45jIPoGsPFyQLrdIs98XzsqAAR2wPg/emfPnjzZE/2wO2cUAOifaUujh2zU/qwvIa8zFW2RIpEusNnrRABrrAw0nv8y2VB1jnafO573AhAmBE0RGnpmZwYQ3cKwk+JKBpjIXK0nIaT86PSXBRuAA0up25QTwUHGaK2bRZVtVPfIfcMmTKgCnVEsSI2635NCijcPdtIROTLWDu0G93ZSo1DAVXRbQ4+ZwOIMHx2LsOw+DtHhcZWSAq4mCQm+KmFnedW3F33a901oAjwMEbkhOWxEQ42iT5gEaSe6Io15XZU3CVH4wSMiR5UYrekLOYgBxgYqDDO/y3v6rvYjXSVQ7WdLBCInTDmS93fBTqMl2I7Tpr+aftcXXGskSrKblzpHSPP4WIF1HEAWoy/c6WfGEqpQfLoerUK5MSw97a/U+byPj2ZrBs9NZeNM3n6v1dQN576VfrnopRizEwM0dxQqdRQ77WYwHxfW++07+snvfVOA7pEr3tt/JRPgU56u0+vAm300vhLodGbX/u1X93cd9+/SCLGFuAWGPrfvDR+DvvTsIGCrVn3dKiNu6y8k0/P8z8Qz+6x0dXe0CkMCXBjnqgRU2ezD+Bftn03cf2NAgQdtnRPFEepRCWnKEMpC4ouV9/6d0omykGJQrH2EHjt137tW/vvX0bgJgT6DI1KSURRTaZ9900RGS5OimNjiDP0jK+qX88wYUTAzhX9orvVUhz7NsdkVBvdz9+Wx7knyhj1zfk12TPwHJgIWqRdXcKxS/L2yeQc39duEZFxBqSAmyrpOTS5eoWDZO58UYB+7zKAzqE/gJPImMzqf1ssMxIVMJVSIDfGQg7eWEkhiPql0ow3Iwp4ifoxMyIqNOwuFiNmoLystIKiWw65lTiXkd0ENZ7hZUBqCzgROq2d2tb7AER+E5A4D2XsOveSo5dPviqmaQIuz1BQC8QBCMmv1TbJZbalMZwyC7T5zD1Ku3WOa0S4T//0T7d5y7d8q+3cu1uPbI9CaHNaTQ57E9CboC6HfhGwmjLIrkyw1bJRYAGYlbIia4EPkKuehe3xHKvMgD3X06+bYgwmOOiFgFK+5nL6RR8ABsGdfVBsB31/PW4EIBQFEKq8N4PHcLdj1z60uhyM7mcgoTmTWUQmxwwccBIYBTQhZ4BRaPe8UwBJz2coUEsVKWa89ilLzjqHFqPQ9VIKqFw5uDZwwRyIhDNwqM72VT9EXjOK6vlyfpYzysdzOBxEFDmjzzlpg/vPzYLc605cxRCzw7GJRkxwBsiyKUvWLLtDzWu7vouEASNy3AXu9JPhwjwYEzlvjggg5DhdQ69E1cBEjJVxtQLAfXM6MUsocW2xYkU76aw2FbFNkJCxTb8BFSAXbUvPW6u+T99u9/1cvgikWwKcg5QXZvwAwxiyySAB9nSSrtIdOtmWxen0VURV6ah+YR+xkEAskD1TGjOlUHuWzt89Ok9bRdUCDMDOSpXeRWKlikhSAZ7U1N12ZFvSKYygedGrrgNJs1g2pvcQZ51NIZeeMR0q2QLVlrOzy9IQXYPNk5Kadqw6kuuU85xv/lZ/A4Szj1JuHdLYWGq6Um3SITb4OvtyrmddO0BIKVJYRpThgzAZ9UOd7BRABhQF1BpagEMNAqSM6lJ8J78O9ZXDP3VQ9cGEouiKaXpD2aGDor2uZ4CwAmg+Dosxdm9AiZHChnACojLV4OjbomDUdDuQHdKPSRlC9godUXueCbkXdbUZkkKmllRyAq7vnKsw+ofK7nbnVd0uQlFFz7jbj8AEr2hKMSvn7X8UuhSEfRN2RUnGCYAQHZMZhspWr6r7ycAGL3KQNloim1JYZCiPClyphUGnqnJ2vXY5L2M0a1Z2MQg5cODG0kwgxR4Dz/AMz7Bt82WBmnv4ocP0DpWO4gVMsUv6ol0xGEAXVst8BcSj49UfcNbzhUiH6OUp424sKkgElMjCWGDzAgLu6286QcbmTYB8yX5JjWAizEOptmRS+2MVjL23C7Yc+ZS239Q10676W0pTvwUI0lT63BtPydHBPmHjDkmbBrQCkP2fDJtfLZP2bAwfds2csFSXval+5NBnnlOeEyyrzVB3wO4KlrSrHSEBaSlMAELgFnN4J7Kql5XPjQCEonZKw1GhNBU2MdSnGJUcA0VHBTH8wACjLMoRWTAOvsNYWH+rJqGJf+wywdC2ewEijPYx7c6IUUiGlrMSpfXeAA4FMkVJM4YYEGhVha/lNp//+Z+/NVQcxkUTaQm0WjdO0YECTp+C+10xkO/Q3xyENqLR/M/JNmanALjLKumh1xfFoy71l1NA31sKpwJd9CKlQL4q7tW8xCbtkmOOAmsQ6MgASjnYU4OMpK/KX8fCeK59K2zW1AY9LbObNG7gNrlOPeo77RDBMOCAJNDS+cfq7i5ZkpV0GRYJa6BPwEzRIFAAxHMmwKrzOUk1PzaxIRtgFkhi7HexMYeO4SHnzQhVVAr8a6/aieRh3pg/fsgdkMOOVFNQHYl7iQbtnaIfxlLhJcdoHkiv+Nw9PAcdf8xcP6Q/N3GOoABwxoLSLXITrADQbCa9FdlzjvqfLsTApH+TOchGdO78P8A2bS4WweZIiocd5C5gbPXLZKuuY58BfWlFmdQBnbHSwhbb9Qlo8p6V7DMW8P6gDxfp4LUDhDm5OVoRlqIxA0JZDNIhlNbsUIVJnMAXfdEXba/nbAECg+uZlJGBEHFQQqCkSO4UI6vtqGJ5PEpzjJJk+EPTEzXrP/pPUZiKdysVULfaqxIYCBJBYhhEThcdS0cea8EgYD5Etyj2IlAyoPSodEwFJ8Q4BmZOkdF1Gz59BNYAQqALU2CbXdG8YiNgSEpIXzhB+gCUWtGyNGb72g4gSGNJWwEc9AF4q5gRM+F70UZ7ARyjIz3ffTkv0TzgY4MZjkpfzxGxRKEDm5wCEKJGg26i1TkJSzPJU2Eb8C36BHowKSJAS27LH183u6T9AgEg7l+cyMMoh9vqgHoJqRHARvvaMpy9wCICv6JYLCBHSCfIoX0BslXpxinjt0+Pbup7KVb2lv01xuY5mQDRKvfZY6lfgNBvwMFcyY7MJemnAMLuQ6YcsWAlJtZSWakc41eqwTy4LFu2T9ae4XlWFQke6Drw4vNYAilFaWpsh5TT/f24doAQkixiM0FVBrd734yuDhV+1KGXxVh6SMHkCXvnPOOBjmfwHL63bHBX1HboM13bxjnHAgTPaKnMjASLbjAGHJ2JK3qXemm7WwbMskQRMPBz6OQkI47SJJdmARREe6H00iaK6TL4HF9g5roN/6HjsDxPfhCwMbmBHE5AISFdUCQVGOvFMdgksjiE0mys/AbgOEy0utSW60XZCrKMl7oE+mEM6eWxAKR+6Y9CXowRg96ucudaTWLc0fMAFEcrxaCQkgOhLwwjUIpdEOGlM1gsIFPkzom018BVLGvcpwvYmgpFjQPmyNJMgEr/MDlYJJFxoErfsB7SQ8aQcxQtmnszD78EBXcyg7ZPTvN7AYf9YCYjBdQCS2yA4lzpWstcpY+MM/DALmGUsGcVNJ9iG2IeSgMZA4EbphTQw95gNgA7IM+YXDVA662ofIi5pram96RoE5CMbdJ/xZ2A+v39uFGAQLgKwNC8lA/Nfoih3jUoBlCEqKhMukKk6FBMBhBwqAbds0Q/FDKa8djouMiCsVGFTqmPOUKq6gj03xJG7RaRmTAMtUI4hk4kJEpl8Pzm+ExIObI2IPHs20WT2ss5Wr+tKE5awwT0OblZ6ocyVkAXIMgBNTGPldEx8jjnuRwqehiTBOljRIy9KDiqUG0KepWxY5RECYfo3aRTjQ+jackWhqD6g+QFAGKx0LYVmp4iQ/0AEo2Pgkvj1hbC53DGwLPaA6BTRGTFB9CEIZFnJavqHYqigC5Uu3aIzoEhxyn9u+zYNxd7P8iM+gs2AGLMSzUTBRSuceg7ww/0OHcuc1wCgqt2UpeVx6HXG2u6DyCxBw7sF0aULAADTAIQgRmTTmprebYKKFOT4TgFNBWQxISZL+apOSst5H+yZhM5bCD/qmWvTUACmSgExtxWg8NOkpkiYT/sB/t8fz+uHSDkgAy2AbHxjwhLtNcrZI81NO7pXhwuetQAy6laXSBSZFgxFP5m7BgGdCpHcipj4ToAg6FEzR97aAODZXJy9JA8EKDv2sWIiYD0w4QV7XBEbWyCBpMbrLBmF0DoJVAms7yZ58gZ2ycgcEBuHIT7epaJmCO4TAqGPObudVc9uT2PzES/QBXQY4xRlSIjhs6BzlR0qM/qVET7nLBjXxvJKv3lJAE7RkPqx6HiWVoL0GVMAQipgV7GtC/S6t7u5Vn0V05chK4wUG52FlId0ualXuZAG1uFqoAjNsTcAHiAXnQ8nWx+OF9EpbiMfog0sTJYue4VFXvsXDjH+fVryayQIzZRMZk5BGA5R6BA3+kKBgWQZPjpSy9OS76nOMBz9Okq72Hc9Zd+AnnT0WdP09dSoewd+WCRpCaqqdk3b3b1I5nO4mn3AUzMJ8Wi+QjAXhtLOdTWffPpWPnpp0AC4GUnMWalWM1FqV/BoDa2d8Sxz7jbzr92gDAVMafOEPmhtKcoWzQ7xCt/zkAzZAABWpGDiOblGBg1aLV93E95JgfPQaN/m2CHDn75N+dn0DKulle16YYJbJkmNG1CQrSuZcDVVFRZXs50Pp+yu6ccLScj4pU/k1ur+K7no8zcn3OVb3S/y+b7PNc9tPe63v7oWSIgK1c4U4DRRLbbINCFprc/Av2QVgDuACeFi4foQA6cbBkMUYYoTITjOwBBuomB43g4XWBEzcfU+4v0JMMcU4HZcL0UBoatYrlD9WzXed2bbgCQ7g2AYN2wWYyi9AKWLSMunYKdA4Z8Rh/9pk8tTb5Mm676WiCcfWmPBjJQwwOgY3mkFezBAvDR/2NroK66/VdxfykWLyKzWZeiZUyrIMH8IR/0uf0sBBPNjcnOXIWM0jdMKeatF/DRP+wmQN+GcVeRcjAnBJjsIaBcH30ufWgJr5SHFOxVPP8qxvmy97xRgEAhDDoUyzDJAR5C9S47HQoVVUObaHQrDBTatJdA1bOKYeTfGIhqFI4VonajskUjJpdo5JijSBRalbMGVCh++S0pBjLh4LAIDBynAzAopoLgTZpZEbwrV8oxU2oOUETdHvKAhRURogEKDxlrU7T5XHp3TL+W53KknBCgcF0TCpXM6UVRWmWi36rd7TdgzGJtOAcAD3t1yBFAICsMAgAgR0m+7m8pIqfDyDqXzCt8c80hRYWBN/fjuOQ9gVzA95Dr9/Wj9Jb2YdUwHZyjZyhEwzLRJePlf4YRm8CBANxkSQ/JTl8PAVb72nTV3zP4wGA7T0ZvcwKcYkuf6Y7o0Py6vx/GTlF3LxWju3Su9Iv+A7lWhihKtdeEmpoCmnPo4pRxwLU9LoBUP3SOHQOQMaiCMTrn+edmENg/eiJ40OdsFlvvzavmgxqdVsWdWwZ3os7dKEAgEI6a8RPZmpynCD0GQdQqV8YpORhwbIGIm+IbaMhUZTlgwjCe4rhyECJIVJRivmOOkDjak3PSbpGogk3pCsAFuBF5mrjurw+eJRcNTFjh0GTdlSZxT4yD/CGKFYgx+doJkONhIMgfxa740dEyn2PTPLv6r12iAYDnOt6AZ4zbM58RMdaiXvrQy4SMO6qSw8MuiKIseT3kmPQ8+QF2dCpD5fnuyegyNn4zKIqsOmefQw0gyP3TDwYSKOy6y45LBhhbBDBJPwEHwKlnM8ZqM+yDgVGgf4rUrPQA4gEKuXrG2xLllsAdIr+bOgdYZNQBgXaJND8ULuuzfgLrCvP0lw25vx/6Dcgq4KQTbJm/LXPFogi2Ctbotc+xjAIvtugUO307mTa3suWeL+UligeyrRrA+kptYYMDseccJywZFhATbc46tEuBuPR3LHdg5rJz8Zxtv6p73QhAmJ2BZNGZIjEU4C5nt6/zRbwUXeEMmh7o4CDl1Blx9zXIIkrnM4Ci9Kra9z1jfu9e2spwik6kBI45XN/STG1p336Kx6GIgNFYnJc2yqWL5PSFs+1dE5P6W+ZeIW4G0b1sFOVgzMmmbaGTA6fG+DsuO/GqO/BbakdhaLldcjpX9f0ueUcFAj5yyhgYFKkIWGGVnLP6FOdhAPRb9fp8W+E+Iza/J2OyxVqhYy17bctsYyoNgbHAoAS89t1f2zgprI5rsGpzuddljZL70zOyAErlW4vKLFnk/DnRDHROwTwBijgKfwOod8sacPNNu+l2O9+16Vf6CDjSDcxalevHzOm77dzqCsx7S785YPPV6i7ATwGeQm+2GYDCrtAb7KyaDczCrm2rLyMHuukwJv4W1AAEWE62DIuhTmsu9Z3+Yh/4XratlIbf2AF9UqCr39WAAZKWQws0ARXzstqIc4Oky8juqq69cYCgcAh6Fe0zjKdE9AmH0ovqKK4lOhyAiFle2FIty3c4WL/VO6Dtj1UqzzJRgA9LBikWpT3mcD1HjeLECHAwJqS+K6jEGFgepygMoMEAmCQivTZ6UhmfM6+QpjaIDNrsRWRURGQiyM/L5zEGDGEA6bKOR9RJ/mTBkWA/UHWepeCo17ceGkkfI8/OFf0qQhTlMnr6Rw/kyVVHGzP91AaV0r43hmQRODr2uUXkp+jRRSAnQCPCxe5kBM9BqaYrKFPAk9HD3mEIMBYMI0CCwcLAROWaU6VvXEtPTwHzx8r3HOdrJ6CNgcMasgstndMvjBygzzla0QDk3d+PUnDmCccr319wRc+sehKQkJ0iVmk0thMwlIYip/n23XPp/5S7VRV0TXvom7oJdkTdUMvU56u8j22DIK06A/YVe2D5omcBSQIHKQe6Q2+kDGdt1rHPuxt16sYBgmVWnLq8n3zgqUtHYhEYfUCD8WPoKL4J4H/7LbRTGlQMKYYijxk8RtY9KRLwcezhenSZ6A0VrRANY0BZAQKRDMPM4SmqkysGJpxn+RlHp7ZiGugoOo6ag3S+IjLpCrLhEBlGdBn62nkibIrPyV22KJEMGB33tWYeQ8Mxm3RQtwknGp3yPvcEc29FVwo7GXy6BChVecwRAAiAF/CClWEYevX3seM4+3KKHu16HmbD0i56QRcykN3/skDOfaTyjLucrr7TMUweoCrNJZqcdSj0w9j6zvIuqzKwQqewb8fK+Bznm2/YHv0iv/oTm0JPRIoCBtHxvRAZ0oPqDbChImfpRuMs5caG0EW0uiXh5pUUDGepbspvDrPamsvq5a7oXvu0w5h4vnQpBkO72DH1QwVsp4xZYJl9AATMNWwaG2buYQTpO1ZN/QqbXwrk3LbrHHp+Ffe4cYBgcFTMUjCFd/Jbxx6U3cAxWKhlCizyQsWjh6BeFLNJ4G8DDxXbwdFxrHJDntpppzxsxLHr0dsaWqSt/yJ8DlofOO2Ws3GwVmOYuIrDmox2UiwlsJSVyc0R974Jz/Ic+TxFbyJs/eUgARApAMYRXXyZw6SSymlZnnsBB6Jg9QexIJehBA9pn+Iik7nXKesvA8MJMjieTy9EwxzFZRgE9+o4h8FwP22XCpO+AkAdySzjdIgcLjrHPdzfc8wV1Kn7YwzIYjr95hXALZoSwXGmGKFe3nQOVuMy/TnkWnoec0TXjVUrfOitOcjBmM/qRs4xloe06ybPaZWROaC/5q6ASU0UoMiOYAGlZAADBc3kqKbHkmF6BFyqB7gM63s7PdUucwAYMTaALeYAkOPQpWONW+Dg2HFr/goc2UGgQ5qBvmOR6ILgRpoQY1I/AxbH+o2bHO9Tn33jAIHzEtkZBANzrLPV8XJXjBXEac04JRI1M4Ccrs2SKARKjaOkdCJI1+xDnzNXRQk5H/l0AKOCmWMGwP2amOXbAiooNLk3y20wBZ7FWRTtmNhSCEDVrEFwvXuKnBUcqkjuLY1qDyg4mSjOQx9KNUSvATynFpvFXABe0L0DQJECwV4wKIqfALRkda5oeylzE9cE11cvf+HwABQAoclt1Qm2xvcMnZ0JOb/LOt9T+zSvM8ZAIQBo6aQovT0pTl1zvmyXuggpBQ6BnkhBYQR6UVrn0y3pM6BA8ZbztQ+4NqdiGO4GgNDeEdNOtAIo8DX37Lhpw38OXZo2yzwxnvO+FcOmV2TDDti9kF3sELkrSJUSBfLZJAACSMRItizyKpY9GhP+gf3wfCwXgCptqUZGekyhbeN1CkAAEIEAcpCOFNQAQ/qGcWKL9Rt7NvXi2Gcd4x/upHNvHCCIcOXhRTO9H+FY4VMkCg9cqC2wtI/CujeHizmgAIqw0N8oZukH6+MPjZw9o4kGxYpI1U9gEvaBmpBq/TIZOSaIGFhBv5t0vkd564N0C8QuD8yIc2h+5OWAgGXdg2fETGAcXKe/mBSV8EVM2AkMi75XjHVKBMBhABXa3LvRyUEEAhgobhKFmGQYBCgdeFsaqnNOBn0UaZCd8RblqkgG5jwXaDHR0euiH47Suy607VidO0e7c7JRvVgN7Iax1W7M0mXbFQvQGNtbgRNQyNlukm2cldNkNNHHUlF0XAEmYIHaBbDoroN+niM1dQ5Z3u33qCagYlY6kdPtJWQVx+kr4Bjg6X82sKXFvpP+NG5sS0WZ2cld4NpnAghOETBU6N07KswdwNucsp8IBtMcAxSkh68CINQ/qQT1V54vsAH4McDqikT97QdzLFglK8ESG2VOYNYwwvRdcbdUr75KscwtuO92XTum/TcOEDRWcRTnYo+CUgXHdKIIwTUUtrw7Rw5hmkxAgQI/k4ZCQ6QcqcKbfYqlTRlxf0O0InubFZ3iXN3DBDT5KCOUDhU7pBIgebkw8jABRLwmgwgdguYAl6AkZ9OrcEWhomf9VYug3gH7YCKrTzAB/j/27uVGuq4p03DjQlvCmCEmNBjBEAewhDEjJniBhB+0F0it6xM3Hf9SVmXuY2Z977ulUlVl7sM6xOGJJ2Kt3c6Nk/b/btwn0ImuB+q00wHIYDvURwAKwIxn6KM+iNivXMXAyGKitM1zgCCpFfOPybAqxPbB0g5oZe3i7NSjBP62yN3Rc2OSzAkZJgeYA85bVO94JpvP2tCcNSbmHTC1HFTkNCNN0RqDCRiQMQAS8yP32htFLYts2ea7I+1nff8p37MHzQN9x3IKPGzuRZ/Nie8xrQoJ6RQKvFcxkxHyQ//YNHbJj4NOcHRY1Obrkc2qYK8XJrEfgL3iRPR7TCddEhiUohCEtCTw7PGO1cMEYmuNi9SCvrHb7DiWWCpgD+sCCPMP9EGQo0/qHLCzAksgCCOpfuVXST2tc/h2gEAIipKi+bZGTTMScw8rIgAAERmmwFIxKJRAAQ32QUAbQaKM8SuGLkNLmBhZhpMwESqK+uox89aUN/TLSXDmgIJiGegd1YXS1X7tVPgn2mO8Hx2Nn++MK2ODMfE3UCByNlaTHg74PHNEs905NtX/7RJIcSmwcTfmfqBvNDVlFrFD/Vvn9tVxLfppbwKO1jI+QMq6bsyJojyG0nyhK0UjAALwol1Xtu27flQngtFg/My3+X9FLl8Zn+ZOGkhlOkdDjttq3J4IAJ3VE0ACxkUNC+YNIBW5MZbqecig+z2Tl1fa9fuc/z8CxlS9ERCLnWt1jDOAXg58Flf6vHmdoBujw4GbN39LNboOIATyOh7JFjmMmeie2sJeCrAUegP9UsHOBWL8b1XDWbI6ZaJcf3YGIynIYLN62RrHblVD7OkWmVKIKPWs7cZdQMVuAUlqcsi6AkV1TcDEr7CB1scBhHLYCecew+MehKaXrMinmnypBgU2IiXUGSfJ+QIJBEykK6e2PnNGVVHisQhttOR+OdpXhLJ7ug9F8z/qjxL78RypAxS5KIFj9T3llBuT0jBGnDxlf6SQPSO60niIjhl+f1vrzUFMQOXzr5RrzVn2TKBIVCF3D22joVH1mCDtpXSMnciTgQJ6AATz4bjSEUP6+oda1Tfr2kUJohy584yZ5UyYIIZAjvXqdn0lI8begeVhoDAw5jsHsEcfViNb6gDglE4xbwAAQ6hYEaVsnoBRKQRAIONsriy59Tm9sVw4nbjCKbyiS3+2cwLtdLOiQE7PHLAFnBYnz1ljvsh2L+wCHDgvoIAuCiAAPwCB/tI7NtA+AtVcZSvnOMYwzZRUdiEb3Xx734iNx+gSBoH9elbHtXXOZjuwlFIA7CEbhvnDbEgNWGWBjd2jJ/YwESiqZ5A+m0y0gI0+WkGWvdrzjK39/rTz384gGBCUpkhPfvgMQy3NgI6nUBTMb5Q952qSMQv2GuA40HdrHrUCntC0yJ7Syd27B0dXvcQrxW3R/hSM0olmCbi2QPXWZ3tWTsIYiOLQfNomZSKy8yxRHVDz7KBgHDmHybhD39ohn8YRVJhobIz9mkOcxoHxaGMVf6P8erkW46OGRLESBVb4hoa2HNM9VSEDDHKYWJCzHN+j/hvZ4+MNAAAgAElEQVQjRpKTBaL0DTgBtlCv6iKwHIwpo0AG5n4YVwKXR+3NCPptbDA+nDGH/YpcPZMB3wcG3c9YMITyrO2kqdYBlYxSBQx6ha+xaNmqz3vF7VV08it9+bOeY244eQDBSq7y4Ef6G8ADKOil+W4fiNIFrVjppW7fPS8g677+VsTHJmIQqkU6o73VHRTskcNqDvyNTWF7sX9sPHbSkvFX06SzjTNow9xhFS0v1i9jRi9mKvdu+3BkPM+69u0AgbCZZDudMepnoDRCLO8md+Tvf//3f//DyVIMCF0+nzAQchHmuvdCiLlIyWC7DkXN6UDNW2m1Co3cSzvkCxkCa97lubRTgaLcMyoLzYxNUJOAcfA3ZWwN+jMBiJEpV2gJkwK1ttEVCVYQ9RUo02YK0niIXBTyoPXkyzET6iisuHBfzkXbOTigD6sAmOgvlN/bOhuDZ33Y+r12er6llgChsQOI2jWTsUTdo8tFH+Qgo3kGMN3aXuebdzLFGAGivVBozs2e+3ZNq2WkCaTGzJVnmTvybY6AvJbZ+oyRBrKxZcAVp6WGhT79Pq4ZAQ4cgKWvADb7cvSIFai2haxhp9Tl5Ox6V8qzZ1UAyT4D28A1UKvqfxZUPrvPV9+7PydNFxTnctIxFoppMV7SmICqNovusZSKzF13pFh2rnKZoKmgKQbuV2TM3g4QTA5wAIWK7kzKUaRGgAIeigktaVSYxkFyXu6fIFhLKwKeR5Sdz9wLNacCX1vRtPLuM73wrL2Twi8d4neVxe7lOSJf9QXAASWWs9duyiHqV0+AxeDkXgFSM0J1vroJjsHnIlXOoQKplUGof7Wdk7AEDzjCYkgnuJbjEIUaZ8jeigz0vev1p9oKRYJyeTNvuteYfHWdZzIs8pSKuKQPpGZ6GZPll4qdAAbFTdqK4ZB2ugq0fNfHoiWAC2DDTknRzGjomWy9MobkFjBQf9Hqnl5epO5hpZfbjdJYlsfGtBjLM9rzSpt/pXPoEYAgIqZvIuI9+8GsNizQR57orqJddpbMsy9zxcQze1LAwQ6I3gUO6ljUe53hONUuscPsCHAkWPQ/eWNv1QlhEjCUwAEb4zt95DcEUFuPAp+uA84Ei4GhfNFZbN7W9n3C+W8HCCaJkRIdQ4IU4wwjJPpFI2MOTLCaAUrgh7NiBFH68lCM8zwq3GOsOWV0OcWSq+ZUo6a21CBoj4ODVx3OgRWdu4/8OAfhGZgEeWJ5fsogHYHW12ZsgkK8ZwrdKoOJfhkENHa1AICHAqBZ3DgjT89wH9En9iSF8j8KjtEQsQMsjI+0CHBlrEXncpVAg/X8lltaRXIlQNCP3tPey5IYNGkWUY/xtRdDSy61rfXc+v1sTK9QWLIpEuO85UPXV0Mf1YVAonGhDw4yhfkhfy2d89scmjdFiyhebBVABbS2euFoe64Yw59+T3NEbzAIHKWx7rXGe/vWvDe/5hMAAYx9xrYJOl5dIkhOOe9WcLFFAP9MBexta9dhetlJAASLUJpEQIKBJK/ajXUtGHGt8Wrb+C1tyBZ1zdSFNWWxxdZvacOnn/sRAIGDVnyisFBEevSABDl0k8zYcQoMYg4ASkTn+p9SouAUMnJ2Ug6QqpfZQJAUFyXNsfZGwj1G0vMIP1SsTQROLQHnyYm3NFClORCg0BJVLrrUD/US0iIoNkq5tQ0zbUIR5ZX1TSpGIQ7lm4AlZQGiRI4BHJstGUsHlK+Yyv2wBRwxh4L5UAsAnAE5+mFdvWc63Htr+1+VCXOmH/omylDgBSyg10XEClUZXwWUajx8Z9nYo8KtV5+59zxzgjliuFWGA15tNnXknrE++sTItjWuftpBk2wlQ+ZBxOozIN0cWtkhJQU8GTe6IRXjXu8AUXvH4qdcRw6AW45PiknqUb3I1JEz9AVLobiQ3NMRTpZuxyolE3SHTRKdkyXzTtelnNgBIBaYPXLESJTSCtCQr5Zhkl92E8MHBDi8t6e3LQpapEywwNLUZPeTj17QFzDR93XZdylB55xd+LlnbN4OEDRaVK5ISi4U9X1UGUKeBp+w914DhXT26Zeflo8OJfY7YdUmnxFA5/dKVEr1as5uToZ7pRAUDBKXzyfUBEJbgBB0HQcLDIjQUYFAi++lYSB+tQt7lvS0bKp2GAvOHeDgLFWoOwIJ/kbrSalgO4wlA8N4YTD8b08B7QF4MB7mT8QuStEfTAWDB0BA/vrV2J5BS64CL38Zi4H5aYWKtmAQtJ0DBkQZO/lL7FC7FV7RpmdKybhhYMw3qvSoA042mm+yZ57JkhoCG5JheMiV8fJ+D7lceoIxsDS0NkhJYbSk5RS6lpZ71qff328fATZLXQw9FC333gh3OkMuKzQ2h4IRAQ8ZAaDZQ/KnDXShJX1kCXtEJui5Q6oJmNy78+ocmWwRGWUX/a+dChGzxYAB+yslhkWV6pUeUVsksNQuRefO+fQjgGA+jb1j6lRMbr9jqt/Zr48ACGoD0EgEj7E6ChAMKGEz0FBwqwdSNELoe9EjA41axRwwnBAqh8KB+Nsxkd6e4jHXiBA5r7lnQsUxKvw5V0t5GHFLzrQLYCAkPsdqcNby6nsLcsp5e64f6NzOfZw4MMRxiibc3/a6nALFZEAwBJTQWBk7bcSoSBtgFKB3ESqAYKtraZI57hw0gBOTcYbRWxWnPSmkEETAniH3roZEWonR9Xzzy6gYX4zNSifepZDmwDirCyH/5ODoAXiaB3OkXwAfuQMyFRwmfxgB7JUlqlaZMPzm3fwzWtpmzqUlRI+A1TtYlqPj8VOuj1GU9pNyAhJKdZ6hK8A9UNhmae0N0uoEeX9MER1nF4BVzpdNJAsAhHQsZsP/z3aPfTbuUfaAgfthF9kI98XwWn6LvQJk6DDWj20EDNQOsVfsN1YVUyjYOsNvPGv3ke+zv+ZTu+0twfb6YYek2AXLfhqfd/fpIwCC/DvhREkrfDl6zKVdLVmcRXg+M/CzSCXau8/9nkU8E1xspX60h2IRAMU0hJ9Aez6FRaGJ6BlhNLPcvUjPM0Xxln9ywJwzJ7tHaGZOckbxImhMAHqZQlr2KYoRgXuWzY4UJHJibeBjXDgUxoxgu1ZVszXXPrNJEYCgnfqJUQB4jMGkEo/O8yOAwDkCnL3LQntETLap9mx9AxS0zXpqq1PemV/s3QsKKc8oAgR+RIDmylhY1gjoYhE4BTLFwHJAPpdLJn8Mc1sncyZAnx0yFYVJc+1Ja509v3/W+7FHZBAQw+bJwbOJonTfnbGNcVFpRcnkn/O3ERCmiJxk+7IP/pcqBLilIlvtdQb9rT0xFu6ncBizahmtVAvG1PPZEcC5NCuQImXM/vieXAK5ZP2McbpaxvQZONBHetZREKqWQrDacZRRPNqftwMEEy+yUUSFWjJ4bRyUI3z3IG0d5Ak8ytsSYjk/EZm8vP0ZCLfiPcv/yrtJMbRigmOmnBA9hUG3lQI4GlUUnWgfBy4dAJwxGMCBqJOTMfYoPQge4tVmVJnCUgZD+sBeDvLV+ojpkJ9k3NxL7YF+W/1gjq88RBScnvoR6QP5VvQ9VorhAWQAUQVQzvVb9LHmAa9sY/eu/gDFS/7VAcRYbXl+Bt81jK65NA/6aa7MgZoQG2ZJ8dhYhhxhfshay3WTUwWxAKn59Jm/yWspi6Nyt6Vvv9K5xtq8cBzGGsMDsCebV4x7c0r+BC/SUHQEUAQ07cvQCrM9Qcl389feMNU6YTKy+3SjlEhvHMVkSncA+kCrH+2m14+2nv9U2dE3Yw0EspOYECBMcaoian4BQPgUn/cRAIGgckKiUXQwtMq4Paqu/9SJn+2KofBZtOzMt6UAcsCEQhTre2kNBh0SRusrCMQwOB8NXAR4RpFfS3cqZBN1Ko4Ufauoh+jtI2A+ROOoPrtPmhO5fAYEE4KGxhIoXAJksAfRgSh80SrQwCET/isPLAxDgu3AZhRJY0IYE8poPEUhKvkZJH0p13e2EVz72nOSDw5B27RZ4dVWZipQwJiU3yw9kENh5IEgLJEIVf+BTvPSRmDkTcQqMmOcMtRkso21MuRXOKorZeIn3DtdNIf0iixgvXofxxVj3jNjWM0v2XkU3BjDs3WjAAWLwe4DJWqbOMvy8vSZI/UDuAZ6BTIAbLVaQI3jinE6U36qjfNbP82z3/RM/7EHbKb+fUpf3g4QTIABkneBDkU2oupZaHjmJN1xr6pUTbSKcDsnimZtgxpQIADqCSwzpCyia3Q+JekVpJyqAiHjYsMh+4XHNBzthzZOAFb1rLHHJqgHET1ypJ7JyUThoUFVD0tPABL6B+DJpQE8gIOUCLajzYjUYOj/lQc2g9FgzIwzQKUfnKJ3ccipSt+IzKQ7ABv/3wUQMsrGwDPVRZhfqQWU6Z651c+oYU4e2AiIAaAYCnUhDoDAc2y7W7U4xs4qHvldwMD7RQBBKSMbeJlf1+1p25Vz/We7d9G8wlqFo9hUABLLdYWzCAgUbGSzsgPJy5U1Q+yeVBewSjfYC0Wx0oL+l3bDpqrPUn+FGVQ3Q3+xX+QT44Lp1M6fkGLQTvYdGLBCTIBgfhV6s0dWuelPx9nAbKvevB0gVLiB3lIwh9oW1aGOMkrvHqStg0q4KRpUqE+iMpS3IpxodnQ9RysPxViLsuXG/S0atyrAD6emeBDKFpnnzLa2aT2/AskMhLZSMO0CCoCTNgoBFDgO51r1IHfP8XNwiuJ6LTFwZ8lkuVPPtEmVe7ru6OYvz/psnAABh9UwHJ/xUv2M2ejFKyI1tSBAmyitMb2a1us5fnPsNm6y7BD9L9e65/ntd6Fo1LxwLOTMyhOyRWbMD7ljaDFRtQNbJP8MQAAqrVhhoMybQk9prupxfq9ieCaB+75PF11tzqTs6DtGRwBRfnrf3R9fNZmCwEFAZNYJXQmeAXe6iLnE8LEP+i51aUx6IRP7wZGSdXbHq5+xCeQUoCDXPwXA6oMfTIHAT38c9BdowCBZin2WnT8qM28HCDrAoTKYkCFwYPtOUalBMvFXIOjvBi6FmQU9FbKtOcG2GE6J5dvRuZiAdnSUf3fP1ri7BnDQV8+QWgAQGGBFgih9S3hsMSrSJUyUpKVFV4wJhXRoA2fO0TNO5oWDwfBgMDhZCJ9yKiqVI8SUcMaczWybe6L19V+kevXb0LSN3DA0cvGepx+K7YwpZ2cMgRrKCDhwiub2ijFdZSy5ikHghOWaRe/kYaucTyNvnqxU4GCAH1G/9JCKeIYIAOj+wKBVE5geQIKckTcG25ipU1DMidFSw/HuYx23OU7NXWMRyJo6vAd43dnnmXrSHyyeFIMgyRyIKmdKsOj+zjae+azmKvtOdpujUllqtaTH6Cr5xRw4XxG3olrXkAOsmfM+IYiMBZpzNdOGpVVi9iztBxC0vZVk0rq9mlt/S/vEEsasz8/PnJv1Xm8HCAmLwWXgGS5GS76UEW+QrhyE9d6hvGlYascU5rnsK+Ag+saGeBdBKYHesd6SS6kFUaMKdsuKODCRnqVFHK7lgzaOMh4cc4ViAZYrIrkMahGpMeHYFajJ/5U3a7mUKBWdL9KR77e9ccufZsW0/rknMLR3eearc8+QiLrUIIh+MTccr9QGQEOu0LacIOodewBQZFyuNjKBsIxgdTfaKTWwByAYWxXoChMB0Cmz2AJyxPhYpub+8rWYKikjm5IZMwBUmwBaOWHyZwMx9QdXg7pnczvBwZqice2cu5iZVlxcGf0+a/eW7+tjTkAAYdWJNB5gC+QWSFUrsOX+n3Ju80cPgFMgVJDBzksXtLJLe6UX2E/XkMFYA/YX8wo4YRoEHhV8v7uf2c5ZPzfr0ar3cJ6+Yj8KhKVa9FdKxd47AYFWavg/gEHHjcPRpaavjNfHAASNVcmtOp7CEBzGrVTDK50565wMeZW1FYCFEP3m7EwYKlvEJkLTbrkkkTQWRP0B525CQ3yK/eQYReWoJJXrhEA+HzioMMy95NfQ/Ay8qDjBuwogrAVLFTAyVGg8OX4HhdVnxZVYBuhezUEGrnnwP8fEMXPQe4rwtsyp5VCAAbZF1EWG1D4o+BStK060YsTeA+bGCgsg7S40HnVrXDh1oEA0geLf+3Iec0SepAvas8JvB9BJHtG35gxbgVHwbMwJJgijAjiYeyDDZ1gscivV9e68bgFEQCCQPJ1q4DzD2cZXpc+uBn5bZPSrc2NCfK9vaj9KOdpkrPevTCd0xnPvvEeATR+AHmm1dm2UwrTvioO9xWhZ1m0FjroMqQeggFNkSwAowKLA4xPmOCdOHsmi//WvwLCxxtRpOxvUngd0GPvM37Gt1YK4R5vzsRH8Bb/A5gJIW4OKrfP9UQCBsUQfcTwm3OYZUObdFKHcv2U0lNKkmSzMhnbIi5lwjp6gM6KoIga65YoUgTNFHRMA9QfuwXHJe6PNGOG2lRa1SUvYKwC9qLCu/fndHxvh2aU5rlCG0Ok0xPNvQq3ojyJbpkMwUfQAUo6/yLj5ItwEWv5QQc7VwgyFUxxMjHYCBEADZG78RSkMDBChENMWxJRNu/fsTrlV2WYUiDWwAoTSt5vjjIhfvbd2WyLlHg4AW199rkKawQGS7KfhB5Cz94EorCiFEQNqRW3tMNq2z1fI2qt9cx65BFzoBtYKAwLgYLKimYEYG0Cps8DKtKfKlMstz7z73KLMmWrAOgK12EjMEHuSXhVw3N3OM5+nz/Y9sETRHgZYq4CeQJFe0g97cACtAIUfjAo7KnWpuJcst3/H3X5iHY+YZ/1gLwF1v+m4AK/CbcEh+y9A5O+cb7dSTCzADiCQ5/aFoMP0mx4XrJKL3qVx5rys9/oIgJBjMcCoJ0KQsoiqReMGrUK6SSsW5R8ZJA6aoHEajI1KfMIpZ624jWFVLKgIDO0P7YlKtc2EySOZbMtW2gyo/Jp2McCMGqE20QCFtAJDbmmg57qftAOKnFIACZ6ngEebrnauz8ZPHwg4IVX5T2jVThj/r/ZAN5+clCi9Kv1nzznyPQDjBTJAGHbAGFvSBxSYM3UeohB5S+CGE7SE6i4qejoAbRUhqrvRpr1pDvcEECoAdR/j3ooOcuQcYEkBFBBAl4pEyR0wRS7JW7UilpGZ47MBQqxUrA25nkV6ngeAkjGgEigAEGaNTNFVbYtlSHZ8Lq3EgIo0yQTwEFNSdOe6yWpFgZ/d560yrV36KB3GZgBDnCT7YPw+wR4865M+zBRsAQi2TH/IWoC4eega+wOwuWyvXWQxqGRXWhCoDzDQG0DiU8ZE+/mD3uGjYFgwiV02n5g8jJ4AWJAoja5+wnXGxLLO3imRDGb39ZGvwPxJjar7AhyvltWPAAhT2DgiDoVDzslCmIrgUDLRNxmFKVx7IjDXtMEOJ485EPVjLgimiEoenZHh2E2UZWKoraI2wAWoEKGiw1KMgI+JZahRZpwWWj46SiU7RRDVyp0TIk4DsrbBDxblEyp0JzpmYHsh1jTKcx7LByvW1HcMy9XCbLzMk/aRmZydZwME2AWMArRuLtVPyL/f5Riixf1WGKhNitEA4Akonxnf+T0AqRZElMJ42DvDveiKvhZVeQ6wZFx8z+mSOUAKSCKHwC1DTI5FKFekhBqDmY9mUDkOrBxqHdCmM+Xb0bEAO2BjlRMwxPiiWJ3DuKoCx8pwqpyI67MVxoteY+XsseLaona/S9llU94NxrU30AQUtJMqcEeX3p32eUU+A8MreCP30pVqXCyl9Xd7AZA3wRr5Y3cxgS3ZBRQEcSJvdV4+p9+OWeD4StuuOmemaPVb4ITRw3jMAIC/AOp7Y+eUu/RjpsfSFd/xEX4wacbtapv6doAQjTiVEjqC/Nunu21gUTacN6cpIpgDW/57j6Gt2p5gWl/L6DKUoi7tsBRN2gHyQwExZpAeMCAKpLC9HRJirEbBxIpSrfOVx8c4YEgYad9Z12vXQgyEVAYFoTCUyJJBCpECvJs+m4As5S/607bVqDoHiOCAOW3FcFcfCpmwB8YRWEDRitQxNObLfHIOqEl/c5IMzR6Z2dOXIiTjJf9qnskVoDAj6i33xuBIZYn4Gc5erMUwKUTkUMlWQJPcYcEUypJZhtfzATnASeQGXHBMVwDTaghK69A1RVkYAywb/TF/6kek3dp6eO6yFxOQTObgu6coDcjgQERpGDl99WxyQLcABQa2Jbru9UiOt8zFWecGDrRJu0WZVhaRXXIrH/8JIOZZf5ufbLPxB+SsruHo2XdpQXVKgUGglvyRAcA+wItJwqZgtQR0WC+p194d0vw9a9OV388AwHOkloFawWTMXnZ8taEBAnM/AeBkyQRpisHpOyDc1tdX9untAGEOahG3DsvHMGIGGYKGnkUIzhEtidg5HkJDyYt2Gvgtg2bg5f4hPc81QYyWqEU0jzYSfakH8Bzfe2UqlMsoZ/iLRjzbBDLMqHV0ErSoL3L2qsuxEwpxfG79vj4wZGh7f2MbWipJqK6I5raOUQ6j3HWMzex39/QZgEBBKDngdfWBVhcpikRFWvLWxhqSV/CKohShAgwUEQNkToomrza65KQcImAJxACJGKkZMWwZJ/fLOGZkXS/KZoABVMAakLB0DD2LuperJ+v0R7+dK3fvfAAdwLiyGJaRVyxKPwLX6GJ0LDBT8e40pNmKOT7TCTWGgRDn+Z5zBYroI1AYwAD29VMtENBAPj6Bvtf+0ij6IA1UwSJnCkz5/elHc0dGMVVYA2NcMSm7K/jTX/ZN4EUGKsxjB+m0fDxbwhaLnP0vWCPj1S1MJuGd4zIZE+3UX+BmgtlSItXQlPJqHErH6Mfsn/PpKGCA7b6jFuXtAOHRZBIoP4rLRNwibEiTkYcqVbG2wRDjD1Gjq0T9FIdgmZxHTnUamWlQAidNSDse9vm8rmVU1UQQXtSY/Ly8mMlDc+oDI6QSFyDwmfw34yfS5cCAA5POYDJUFADC5thWtPlOwd/6bEJuDPUVta+e4+pD1IgFYlSAyL/927/9Iypt90SKaiMln5EPAKEq/sDO1W2MhpQW0E5UvkKlV9McgVFySeYUzZI/hgjTxXgArpgEqTqAyDVAAXDACGMN5HlFYxkpgFakymGS0fTgDNBUvQN55vgsnxQJYT04ZGOh9gZb1+ZcZ85DANC4ACTeNqoQbvZR2xQl0ztyYzzJSKsLsgNXgKZnfTVH5pKsaA92hV1seeoEiNmpq6nnwNcMDjz70f/aAgSTdysVgEDz7Nx++1vtGYZErRDbCMBK9WKRzBV/YP4sDTSH72ZVv/Jd+RXBh/SYN8fm7Ns3x/8rGOUv+LdWNvEv7BP2DIhWtCioiD25guFb+/RxACGkZXAoNMFi+FGf1ohyzjbBMVAGU2GHgTK4fkOkqEPKIwIHGPwtUvfTa4kDD377rMEuP+TZ8kQMpusAEjkxE+VZnAxnzshx/trhmhnFEWyGGM2JDlN7ACyoGMdIyBmrrdAGxlt/CL/fa7R0h8I/M1RbvqfwlEEqqJcFbbl+z7n2bTDfKZE5kabhRAEwKR7OVLvICUAXdX0XQMjBc0blzBVs5cS+m+cissArWeRoyaboSvrNOeRSgR45I1cidbJHH7ByNkKKTm+VAKNMJl2DKZsFZnvmomvok7F2P3qjwIrc+1ttD4dhr4qo4ivmIZuSThkvLBPQSmZiHLShPTzYELoITCl4NC8tnzwDNG0ZU+1mY8hM72YBqqTPpCtn9HyXnWicAgrJy8oI97/CU8wdWyiFYA+Alo27tmXhQCJQwKliA8kKBhkLi+3CgqHsAeBPBAhF/35bmdG7T/gszBx5k9aUDgVA53xh7wS7MyXT+Kb7fJWAR0B8ha78CIBgcENcCskgetGSCAkFz+CgmPwtEpBrRqPKZzKOaEROgEJPCnKmHyZAcD8Dz1Awugxwe9yjqtGTCross6ltKUQ5I/cz8SI038nnMraoNcsfpURsOIRhkAM3wZyXKA5SpgjenCa6kjcuJ32HEGwxVq+ea6wpNSURHXJSVx9VAZsHKNzKBYbIvDI8AJ78nfw/YOen9wzsSU1t7U+ySD4ATwCFrGI7ev4zgDANsnN7K55+tNyL81PbgnGTmrMlNnaA/AHLGW3zI+cLfDvIsiivymr3P8MZMpLuDcBgAj2f4yXzrZTwnBmtbx3b786fTqvnOJ+NUEekPkYaovOMZeMpOBDxYsGky5xzxwY1a3+MH5AHvCUDAK9d97BGbWh1F4MQW5C8Nq4zZ84hkr3YQwBMXYwxBbqMMTsrtdtOnhg+8ks2pRt6qyw9VpwnSFRgnH84U07OuFfjz+aoc8EQ6ycgZ4z0y3yRt4pse66aGbpndQIQJdhRtM6u0Q2MBFsBUPNXdwCkj2QQ2lyCsFEMjh8lL0K3s5+cNjTJGfu/1Q0mgjGC0jgHaBXljOYx0Jy/1QG+d28TZOI8DwApimNE/aD+0VoKthhaUVqVp4psTBpULCLjCL1QSYSk0FCkJkIk+BQDPchpoQodahikQhhnCsRQykd7RimMMwT2nffAsjCqiuCApasPzta8GW+AQF0JJWJUjK0oheyoLSEnorI7KWPGoz0KeomSiMjcO57Vmaxgl6Hk9LEgagoUPHJenAjQaVUCIC3aRElzIgEiYAm7QEcwGMCSa+lJ1Cf5PmqE2gKankhzoEzJO72KXg4cBUbOjoKn0yzFExtg3Blgzvdf/uVf/idCp5uKAgUo5sz/2ixQ2Lup1V75zxlzLgo3rfAy58aWQ8E4cioVt5Wu2vu8V67TJjrEpnH2/m8nTgCd7HB4gDCHz347p6CtZ2CHgYIYCdcCqeSEzLCzAJx9aHwHdKysySvtvfOc5M0Y0DM6bqWQdqtZi3Fuc7nahrHG8mGVMc7uE7Ndiiuf2DVXr2j5OIDwaCINFAerKFEVLIPKkFVx3aCFSDlq0YmaBHRzuVbCnLOQa0SpoqpEcgTYBJkckQ4F5ODQjKJ+gAMY8Qz3ZoCd62/nYjcsFQNWTK5rIXzCofiQQ+GfhFcAACAASURBVMAiACeKjjgyBtouaRSMkivOcpxtIO9Ujvksc6Vq3BgZ06sP82csKR6EjsIzT+bNShJRCIfHqDrHypLovDvGPOdEDjllMkI+REmvRn4xYwyH6ISs65O8tAhLP0S75J4BV9cCRBRhMloMNtlV7Q8wYRtEJSI2zufI0X4FjScQL02IPmX01ddo00zF3TH23/UpVlDtBd0FmswHuhd7QF8B+pgfaUMAlHzNgl3PKK9+ZAzXa6fDUUdj/MhQgEqgQw4EKgUXXeNe/j4K9AKn5lcf2TxpKUu0W8bnb86cAwz0YX+l96QMcmbm21gCrwIoKR/gUSBBh4EAYLV3iRhncg/gW6oa0DhzjO+4lz6z8caCfdJHMudvvoFNUrMlwJRWuYPVfNbvjwcIBikFlscBEgwwIZN/NZhF9Yo4UPsKWbz0goCJAiiTaym7/BXEKtJvhyo5akKt8IWSeaZ7QXsQLgeDlqYcFIBxxWAADu2KyMgCHaJW16OXbG0rqgMutAudCRQ4j6ATDAwHwYe0H60GeDaBn/q9MeAA0WS9wvXqtpoLzpaMMF7SCdJQip+soqCAokUsDRZBLu9OgKD/ZBlbBTj5zYHGIDwDh5NBaCxjvfxfikFuH5VL3qUQqrEBqukLNgxAoQOAAXYBUJAK4miOHOmqccXoSKWRcwAZ3WzcYyY+Rd57v4rxNYZ0WG2EIlbyhPEAPAUAUpqcLf2nzxgy/8/0yNmAJxtY8ZvVGNmjnDXbxK6xT9raEmRzeUbhZ+BWATbASXYUXWM0yokD3OoGRM1SvtoLhNJF+79Ux2GMAZ1qg9hdbAEWjNMEUgEdQEGQ5zoBHDl1VPV/FPQckfM91xpDKWtpZLIFZJkzTDN2SnApYAVABVRny9GeNv8IgGCgMn5oLAMIrTKwohKDC+1DXYph1CSoF8gwiqZEkM4vkqQ0QIMJknZQD2DyHBwNBw/dMRSQLQOgnoBQo4vQYCaYEEN/DAmjzNhbIglEiDIUElFw0Z7CFIABmMAqACCUvUr6HMAd1al7hGXLNYEsAAEVrlDx6kOUgYZsAyKgy7xESzJWwJn/GRxzczdAMC4cNYfp6K2Tz8BBY1d9DNnT3wxmBXb6AzBjD9o2OTkFSgGk9qVoHXWvnaYn6cDRuaKHinQZP7+xFlGqa13Duw3hBFlFt8CNzaUEAXTfGAH5ABdWytiijOk1kO8e9PiKvtS+mXplA2OMyLggSDvJB5BnWaR5N+ZVwx+ZU21wf5Q/+2UlGV2TxsKUYllE/4AnYAqQlxop5dHSzWq6KrgECIBarCrbyk4CCACBfkgRY3XasyL5eZaSO9LfK641Dhw/cEW+6B/f43NAsxelmVs27Iz6n6P9+HiAoINtX9lvSig6lZeCaDn00ClDCaF5WQ8Bsu8AB0VZIFV0pwmxrAu9xWmomuXkWw3BMPgM4LCkxPkUArVHWFubCylbogYUABMUVZ2DYkOH793fb46gl4/IYTKcFM2x5gyvMDJHBWXP9YTfeAFBovirDwaptcecsOebF/Q7IynaEfWQC+BMRPsOgCDfD7wweEWkRUXPjAIjK/oix/rIaJPt6gw4BOkEwEztju/V0GBxODRslvqYAAVDBTRJs5FR0eeRw/PoJjACBKNUq5NY5fpZX4+0Y8u1sR5zPXoROP0XjJAt9sZYcoQcF322Fh/joJ9XUcLuO1mOwCRmk31TvAa8sHvGnIywMYIUAZBo/miu2hhVxN3LgowNFhewpGu9aE7qVuo08Np7TqQctcl4kUXtpJfqPIwjfRCACdakHwR6zlE/pB6seSrF8NPspHbrP/CEVZNexOABdwA0GcIsYodKyb5bR34EQHik7EXbhEaFPFRq0KMvGUn5HIJmkClOL+ZhCFsZYWJEOKFdzgzVynn7mxACIJCtXBlwAHwwzgoTgRaKCUkDA6q0KxYj9JQihWbI0ZKM5xlHfT2jmOyM9sx7aJNoVfGUSOCsyPS7doqwODhGBzpHayqONLccI1aJgkrpAIdSUXce2kFe5OOlOcgjJzMdC3mbm6PM/LO2+p9MkzFAVF85d1SsPpJB0YiNf4ok2/NdlFf1uLFC/XIsDm1h1LfStoH2IkzgC0NhzukY+nlW/dfX+XvOwScaffVF5MZYYyCBS3Nk7NDq+qe/GENHDKDfV6VRWmUFJCiw9L/iVICAHEiZslfaBiCgr7FmwMSsBUi+jHv1FD6bBaOdUyADDLCv7BvZYz/JMXo8loD+t7y1F71ZuaKdCvEwL72sDkAg04C8oEydmLHsVfLYxzuLiac8Tt2cfzcWW0ChawB1/so+D/QUmDaOxpNO8i3AAR9kDn4DhB0WukkhhBkUg4/it30tQye36yCQzhdZOb9duSg7ZRLZ9mY4gg/9uqff6LJ2/VI7gCmgZACByEvxDYMcAJjK5lmeiTZDQULAnIL16SHgHV3/i0vm847e6+zrzQdHyPGgJSvAPPs5qzIDBoyUXduwBUCZAlBggYGioAymeQQY7jwCtWhr0ZEVLZiqjtWhZLB9LsropVjJdI6318GSOYyJPDCaknPmwLANorbYknKefldU6HzMwh7adjJ76Hd1DoweBsN+At8ds48BoE8DCcYVmLKCQV+zO2TLD/shvSAFaexjM/XNnG8FXc9k0j0LCswfAGPu/E2uBSmiU7bGZzl81wAKdAFQzOk25wVJnt939VWf2gU0AFTqQwDVplKtTHEPn7PFHL6AyvmCNjIJNGDR6ABwZXydRw7VDilKVz+kXqaVN+9yll+B2j3sI8YbMALo1SGUXqgejs70ltlPSDX/SAZh5gz9XY7N34SJMW0HPfQXdIoWdF7vHyf4c5lVxjsjPPdRyHAxyO2ERfEYB/fw47mURF5OPQTBR/sqkqRYGfM1nfDMGHz1/ToGFTAFVvbe96zrjCdBl59UrGksrj56tao5ktZB1ylKFckqjrNLmxQQ4CcqaT311e3q/lGkACbAhKZmzCfAXNkD85xTAlpVjDPe+kPOGJY2PQLGgA+plGRSMR3Hpd/kU5pNpEl+1e4ACYy4KnKGaw9A0P6YEYZPH/RR+m119tPYToC7x9jeNW+xIyJ1qxz0DxBF43OCgoSMudQlZqddVK94jfga0Rs7OmbHWXYOKNM+DkgKQsSu0FIA1VzFMrFTwDTKv1qo5NS5RbHkJZs3g7JqNgIVxqMNyrClMSju474ApIJEIIG8AexSFT6TWiDLZJBsA7jalG2+e/+JlT1o3NPXxuFVFoFMAG6CxWrqXGtc24BPcb3aqJYavxss/0iAYIIaVAPIUSvwaDOKhNrg+xxgMOD+NxHYBfRV75anxOVyo8YII2HtHd6ubwkdEICq8z1EzPBqQ8/NeUfb+a29Gf+9RviRQWQQ9CsQ4tmit7Ojlj3GGFpGP6rfoBRXH+bR3LTTpf+lfoy71BA2R87fMkcFXgqB7j7MF/DCMIo2AZXWjbc5FqDDgJBFMk0WXSc3aVWNaEwf9Y98m3/ntO+DdA4ZU0sDBLmXezLEUmroTPUX5oZDBxK0iSxvlZsYAO1Rx6M+QhSIKg6EzzFOJ31XFJzDPZonv2ouA2nah4UydnQerS4A4OwAB9Gf8UO7G8si8q1j+ko/sjGzeJud41jZNsDRnPe3tgOjagbaA8K1bJPv2Dk6CtDbsZFM6lvMgd9kkewFhvSrjbqADyDTGLg2YOBvcog2V4wovSsVIQ+v8BNbAMBb7VK6BrD3uZqEakHuBgfNQaDAWPqZtSDs7BaZjQV0z+5jLvgGqWhjycfQT9/r82+A8Io2PDgnZD4jcoNMqPrOUsWW/ET3NeBz4LENJmW+MS6UyIhNauvdE7YaW6kOEUKCrC9t5FK7X0W4O6fi4WWe2atZRZN3AIRSSOZcJMcBy8Wqio7ByEiqWbGj5Z0HZ86gMBQK3lDxco7mKWNQdbz/m9Mo4pyx30WtfmNMzLnIUW5XoZfaC3SyaxllQMC5wAPjXOW7dItCUhFoIHfLmAROjWeb2cwtrFX9S63JLxcd0sveoulZok76964887P+FsHSffMjUgeE2iRI1b7dUjlnc8PB+Z7TvSLF8Ki9ORzfYQ2wTQAAp65WwioBjJXz7OnAbugHB2XspUkCNJONpFP6ZWVMQZb5otPZRrKKqSrNAFgYJwcwRa6Mkd/kwXlqgLSj/RGwX/SDPmD62LQtzvfZHB75PlArKEwnCypjnN9hY4/06dVrfySDYDLk/xm5ifQIdoqSo8xJVjyTkZ3C5ztGluA63J9yRe1SIudftYzp1claz9MXdROUqX4al/kK25D83mfsvc4YMg4Mg3wiB3XHwSAyRPKvnJ5oNlq4LV0ZdrUqKPY7D46R8SRPvVBKWxnTIgmRX4zUdNgzV09eySODikpuHT6ZZ3DlbqV3FNHqM8Dgen3uRTmMuygNYDAOKvUDxVvGxDxzGG0Xba45lFJ9AAj2Qx2IdjkfUPlJAMF4x+7QM6tQOLJqDWJzJgXdO1WM5RUMwjpHMZTVo0irmldypl3khNxjzrRNGgobZV7s/YJVRfNz2sCA+WET2VPgrrcuAhOtpCGfCsMBcdS4gmTpCrKJ7TL3Nkkjg4pq1Rg4B4DH7FkKK22jaI9MSP2pR5Ci+SRb+xsgbLEIH3Au40bYWyoTZY/+YmAZXIbYxEanRfen7P5PcZ1P8Gd1bymLCRgI7Scd+gcgoOzawtQYoL4yTOX+7jBS69gwPowUpyGKvPpgHM1768UZLvl3xo3zrDDI3Iuwq+C/ul3dP4cuN+zZ/iePVtiYH1QrQ04OewWyeY3KNZfAg//NM2ZAf53LIbgf2lueVyW75zDKwAH6F43rHsZJUZtVOoCw3yLgPakv16OQ5U39nuvf5wZC6ZHPfhqDoO0BtHLu+isiZxPs6Io+9+4Ljq4cvnoPgOxqerzIf6480GZ6oB7AqilMmrkyxyJh7VR4bZ8XfSCDNssif/riJWv62goES1XpkwJHzxGIiJ6xRu2qWE2X5wGFCnA9T0U+WW1vGswieYupwCZYJYZRcy860c6fd+nmd8/5DRA+YRY2tKGiIQLPYEZz+p9gMZjRQb4jcC35oQBQMeVxn4oMV+dfZW7FU87/FKHVp6qLIf8qxX2uCAb6d+jTrIfYMMSnnGonS9GJIji5zasP/QcQgUfzL80gWvG/VQPypDaxshWx3Lwla3cfHDsKGA3PUcvZir4ZW1EVeWO8yay6ANFqDodhFmWppbB0kez6rjk23z5n9BlmesDYo2zVBzjc0+odchNDJpJEQe9Jn1mupWBStAikdJh7egb0mBN6p63a9VMBwkzZsSf6bR7JN/Bl/MyX6BkgAwxE8CLwOw4yU6Dgec2neTY36kKkoMrrYx5F7/bBsB7fOYCC4tLug5GyrBM4kEZyT3JF9sgxHbMEFPj2HIwA8G2/CADEeLg/+bMkU/DifgoQS61hspJP4wpEVmR7x7g9e8ZvgPBshG78vrwWo5cDL/qIwktRGaCqP6vC7boqu0tHcJqumzULLfGa9GG5JKwCYQ4gVJW8DkWFVn1eG2MsPLOaiM51rxwBGpwBgZyBHd8BJy2hFBUCPrU9YKD4SBEgQCB/B+m7h6hR/tNGOfLtFM/9Akz1Z2sF7h4RYDhVSYviOeg9DugZsk82urfIR36VYbOMynzIxauoVsSHdpcvtTTsjt0dZ/uTDW3TpvZAEHmaQyBBblcUri5AISP5bkdCBWbajCYWndntk0Hm4Dl8KyOABzu1MbrmnQFX/AWEWNFhHgAmdL8ozxyRJbTyozxqn6WX/ifPMXNqSyxn1Rd9cNAxY0wObZ/LSXb+yiCYN+3ovfePVvmsRb/+736rTs8K/KtYM89nOzhbeXxjov3mFDgASkXa0jacsGJo7aw9s6Zpj17tuUYbSwdJNXHgrehyP+MmTYDib4dN7eXMAUx7h0hHOY8tLV2nz9gwfQL8yC3n7m8HvcNiuR64tT8HNs/5dNULsshQ7XNNgd5XzMiq83M8srHJ7fw9QdN6j1XukvcYoxjrdHguNc6mruncnh1w2zNv777mI2sQWo7IcBEkRq9tWlNGk2LSFCZW6d265OoQorCqRyhPN4twMmjVHFTM6DejmuNpK9OoRgKUUZvGioNn8AIqCVR55Vn7IILlxD3bQSF7vn6jj9tsRB9aYVEFuHO0EXoPEDFGIuXoPtRiu+NlTD2rtl9prDgGjkLlvDz4FUcOKxpXtMrwGS9jIFLhSDlZQEXEK93BeKNH7zy0VdvIiDm3qsDrerVTWoABlZZxXi8SQ8uiaP04h1Pi3OWQ7TDHEANhjDbDDxSRDysTRIyMu/tz4ChkLwsT+akqBx5Rv0AEOZ+Fajk0zmKyaxNEkHPyB3wab+xI7FypEqxbkWJG2HnVILif59LvqRu1xf3SDW3MeZUinGyazzxrgnTA+ezUYAbfPHKqtu7WTp+TPzl0oE8dDKDPScr7ZxOuTjk8kukccNXx5FBwQg7IgHFiQ4yvc7FM7Ao2SgADXBtbts49FP2af+BTitN3wCqZA4DVGgC3mCXBlrFymGNgFINHJ92jd+kUVPmsgtXqPNj2mQIzlq3O8VubkzPzXfFgY5HsrWCTnLHtOXzy6trGIVChTQLGCRDoWYWoybH2Tv/jefyT7/ek8O60T4+e9ZEAQUMVt4iUmtA2y/B/VL/XiRr8Br6o34RXcGjCAhzOM/E5xRn9i9S7JnQ5KcVHg8cothTI9yI2z1jf1Z0Aa5dd5iyBsjGI6N/udq7LaVAMKFy/GBuG1N+BIQbH54qBtNf/FKxctftB6dC5+gR7/itYc039NYaUt8rxR5HjGYLJSVlSyEDKT19xMHQZA/3CEOg3hTY2Iljjpy3Gy0ZCdmkTpd+dYtA+7c34MMp2c+wlLTbUYlwYZfMmPYAVYGQZYoZXFKc4F9Ahs/rBwQMSHA8DLK2jiA4AEckCERk2uV/3AKwtZ7MeHuhgVFs5UUTE4ZEZslIRYlGSzwFRbfYcjqE38Bl3Yw64kHXtdM8M7AQIPif/gXsyQq/MFZmeTFcbEunjbGPV9TNCzInTm0DFWfIXKDEWQJt9JeiSWgRL9xzmUR2IyNlYsFXOSdfOZtOe9a3AI7a0dI/fxh+75EVP6gMCMtlV8gZcYks4fsuWAQgpFralgMU5ihbZHvejg+xa9TTmiS2weiiAN+esv7P59SkGde7MaH4B066ZzIHzyYrvK66ctVi+z0ckY/OZ5sj9tT1f4345+ubXNYFP37sXOZ4HHdfXs0Hqs/k+6/uPAwgmhSChV0VElsUwMlUKmzhFb6piRcscQvmyljnOAsOZjqAcjE/RyjSIrinaCSA8UuJoL9+pwpX/95n7csJFMNOwVXUuL8shiCxEcSutRsgJdRTuNILaVD8JN+F0rjYw3sbMc0QFlBeFSBFQ1sbPeDHQa4R3liA9uo/54aA9Wz7yzEOenhOkgHKbImxjIo8v74kCbX98jtbSM3OjOI8hJ1cM+N0Ho2neSjP5zdkreCMXDIwcLtZMn3xPVsyzaNW18t7mWwEouXM+IGa+1VeQZYCh15xjqeSWHZ6DUWHYGWoG2/85/qK4IjLXkMsAdEwVOSJnxv/f/u3f/sf5K8wTPTOI8trYDnKnbQC8aPNRDQJA4Nkt8+w56WI1RHQWwNA/9DSdN6+udQ9smW3S/UQPnx2xl8YwRsCQufIMaR7zB6QDYhWX6oOiRsV4RcR3y91an9DzAw7+Lx0qcAEapeEUOQpA1KjoW5v9SB+RRQBRkNQmSjlK7K89R9geABLjZXUVgNw+LYH7GaCswYr/28emlTuByUDvvGba7Jm6mnQ/wNKeOd/NQwyFfrpXhe8BBH3mS9zPMVfBeZ7Pjemn1K7tkbm3A4SJVk1I0QEjzrEwhiZmHowiVAudo+4cJiuBoKwMGmMRsszZJlTRSlX8O9/fpRBCpv0ffZnBNPGMNuWhUNpTjnHma1M6jprxJGz2yKdoHLv7VyzW++UzbNFsxqVtXlMWBUWU0NjI4WENGGQ0OpaC0aaUlFyeWX5YpMqga8MddBc6m8MG9hQyHTlS8Gow/G8ZpTnX99IogACnwWgz3pxjDrCd8Iw52XrHRkmMxoxoRW+cqTYDUS1TY3j0TXSKQWBkGWusmrkEDjgdsqRSnrHFiJBFn1XwSEfUpfhfSkIki9ol64w8cNH23xnXSdNPR8L4t4lLbzxVfQ5kBLaLxMxP8ttn+kbugIC5zNF9Gf2WS0YH1w6AgMwCfkBNW0Sny+nq/K09wIn+u3dgfE0vHpHJrgW67Niq3gBAMzfGyTbuUjz6LK0FOMWEnvHcK+6RnjVe5BUrQD4V1CpyxcJhCP7rv6RU/vcfBZptHscekifAoU3met+AeSDTsUPZ7VK0ycy0uc5hs5zTRkNT1gKHU06b45iEAEkAtNqywOcqE8mf70v/kt3JIMRqzDat4KQVR1fM0133fDtA0FGDbKIZL4aMYRFtM3gEUtQxj4pYFNAwegSLEKFlCSDqC13GabfuPCNVNG8y/U0B2iCJEKQYIiROp0mvBiHA4doENYo7+s59AA5C7TzRLEfFMbT1aTk/zoHBFO2lnNrqefrpnu5hsx9K6ZmACeDk/kAGZTQWctiAFaMIIHAg+udenIvxRPveZaQ4Js5NnwGco0djH0iIJu2+xh1jQY6MGwpdVb85xNz02m7jKgd6NqvxSv9K7TTXmBCGx8HJAwDSCRwM+cN0aCtnbgxVmIucFSsCPpYocqwiVikIeqMQ0cEhcahqLRSSGQuAWhukWci9LXjpTWknspbjrW4mx2vc6AU59hw/UkcAh3uRafeeTqY9OYCAWK9HDIJ704Ei7PTQ+ERNV7RpvPRdqgSDKNrtpVycE8BkHD1TBIsSZwtmsPDKXL16DscpwmYHWu0kBaiOhN6RO+MG4GAc704vvNqPed6cw5l/97m5yqkmN+wSEDcZiVkkygY5YjqzteaEDYvpzXZWj+J+rTQjm7M2oPRXgML/ZLa0QoxrjHIr07LTAYBWtGUX21tkBpGuJXcFmq4xLnQ0hqol9GTWPdZ0w555ePc1bwcI5XsYP3l5L5axFE0kxPHZW37dZIcgABIoZtXcJkt0yNgxMgwQoWIoGJWKh2YldRTqFPAm1HdV/ke9ekabd0yEGYuQQYuOjfWw8Yg++R5Q0OaOQASBrYbAvctbBVz6jGL6IZAUigArMDJODvfwchN5RALqPvLZ7m8MoXxOhBJdWZxY/6wmENGL1o/m+2cE6P5AlSJI821jnowPMOm71nLrM1ZFXp4Rl2IwH9JXqqvvPiZAICvmsPx/Bk8lvDnk7HrdsD76nAEVpZIJkbuIzfjqF6ckuiMHojYgAnMl3RQIsFQNBY51cl7fOZ8BrLjVeOcYMrSNO/Bi7OiZ4jWyJqrnsLVLhGaMgZJSA1Gt7jtrENyz4uEcSquLPJ/TlQryHE7W6hw6T67ap9+4+Uy9BZm32kM+XGRLbwFnoKtxPttBcwiAkHGS7mKHeombolHjRBeAuV7xfnYbrpLjbOF0jjM48txsOJtJFoxDTrqUlflvufms2yq1m+MlP+Z53SjJebO2q3ZVDNv12lAKuWeX/vVdgVjgoDqDQINnVzPmnMC751fz4NnaWdF4wafzZ13aHTb2qnnvvm8HCBk6AMHEUvBe+ykqsuym14LWaILG4HMEKDyV33Ks1uqKaCy7ooicJ4OCTVB12xrbuXwxwVqpr4xjClBxWW0oypqf+6xCScKhutnb1QiNiF4KgPJkcAms/lOYhCklmm2cSigicU9GliBD33KbABLHDyCgOx3WOANSns94YyBEo4z7VUvApsACT4wzyvuMJYVFCsa5JWbmjxMFhIwdh8k4e7YxlF6RgjA2ZIRDRvcCowDk3ccECBkUUQjDpH9kQ2pG/wAbtQUcDPnVB/U3crtkhq6Qdc6nHLNCMn+TS/KlJmUW2wKdZEIKxueclmdWsKpNraaJkq1A0XfaqQiUM+akyRNDqc02ugEwADEMBVCTnuQgPGsyCNOBFH1O4GRu1RtUd8NgtzkUe6FtqHy7ADL26iKwLdbeA1kV+PrfipEr2DPzoN4FGMPS6Ldnk0k2SNv107gAtT+pYG0CxexQNVIzEo9xiGVyDmfsmM7fWMUI+LzNw0oVkF3Xtjqg6+n0TDXHQJDnArYcNRvcdvOuJ0+9ZK90k8/NS6sjZroqOzP7x3dUJ1Nf3aNna3fPnenou+3L2c97C0CYhh51DghwJJy9Nd0MeueghkUjjlkAyCEyohRftGg5HZodhZeBpKAiRUZCxTXn0XcEowgkNOl3nzGu1SSYcIK9Cm21BlNQQqs+E9kz4NIgDBchm/mvoowQtT4nyNFWCW51CRSK0aQAxkzfLKvCTBBgdD7K0zkMFWOu0lr9g3tBwYCLcWIsr6Jd9b/c9xkAYeYlGQfzKJXgc5FzgEcFtblSf2CJJ3Dpf47SeGB0FPtxjCLxu481xdB7CB6trGHAyDeKnLySJ4xIS7K0nQ6UhnIPckbGivik6KoFMN/k2+ZFKPpSVNpABjN2yZr7TaDsc/KJCQMMgHp6V2Fx9TZzlcGkomdNwaxByOD23HLWUmTmiNOhe8aD3JN3AMdzMWLy4+RZGkEf9Jl8uJ9d/dTqcMxsAaCawyqKPxrNexZmBkhRj4DZMQfaCzSU1jH3AIO0x9Fn3iW3k03tmcY9+9RYxsgGIvxPVozNjLwDBe3LMlePtdKg+W6MJkjpswK6gMWM4qeOxTxml+fySfYYA/GVHEzQUJqi/jYWXTtX4mRT75qjK5/zNoBgYHvnN3oOUGizFlXdMQHoQoV2TVa/7VQmFWGCGQsGixC0ppbAuAdqUg7WudOQlkLIMDufQouktK1q8waf0IY+Z7QfyiwV0UoKQipK5bAAHOf1XUJG6Bj7IjT3nZRbwjeFv7qE2tC7F4r6sAM+wyRor5oElKd1/4wTClQRf9FGgQAAIABJREFUlTGdCngFHdYyS7lYEefRI6NPATmhNqDqvgEg8gA0Ygr0GXtjJ0f95XTQz14t6/fdxyOAwFgGNteIWq2JNFsbZolCe+MbBy8V106aZNoSWcY7WTdOzW33Nm7+7l0PgOpcMjajvrkiyOecg7EDTDjF9idhbKvvSYdyFhnxgMDKIPR5v8m7fD0go0BOACFVCOixFUBOqxy0T8pEGsIYVkMRoFSPpCYH0NJGqQbplulYjsq+dlvBQNfNDTACxGiDucBoKBw2l/blULPxU44VIJCb0pzNb/bMOAYym8u2Pe8715C3bF6Fr9Omuv/c78I9C9h6VjUBM3DsmaXt/F8xNttrbvrM716BPu3rtInZdOeuKYZ5XnOJQagGYrIMP2WuH7XzdoBg4CgyClgxlTXcjA36PedP+UV/qpBFBXYMNNEMBIXzmxB4EQ+DJUIWMVFSho6RYFREXiIQeyq0X0KFJDMyyiAS3CJ837cURrvm0sPOdy8/sQ61y5pwRgul39JHwhYLUSRFOSqGTEhbzrnuyeCZFefZ9EZ+l4Az0HKtQIDDOHom5sUaeRGW/L9cqP7IazO+xqbc/VED+UiwjFkpBm01JkeipiKBokzV/cZXkRrWRJ+NISNgbT8aXV5aeglQ7DqOgsMFmER8dx9riiFDZw56nWzV0vo8DS5ZWSvypZo4TedNGlZ/27Blzm8sFfnK0LdRUdFVht/vaNP0RhvpEyeP+ieT7mN9fCts1DW01l07Sn+kN2uRIifiPLKcY+dI2zuDU2cH9MOPMcQeYYUEClIuZC0wpI2da7ywIxyEe2M87DLJnpzFIJQSqciSPbAfgpU7RdrYC//7UUD5U46vAEJySMbYrLa8b479TnaLqP3vh0yRWfcuip+BlvkDMqfst8ywcWsXyOrGJsCu6HvKnetbbliKd9r7aZvyUbP2JoCSbrg3ua/f+a7qMM5eWvsuebkdIOToRHboX785Lc5MhTZByRkDDwRAHcFcPVA+0wSVU6SUJpxQAQcmyv1Fy5zG3EwlwQQmHiHXGIS5TGXuBDZppgQ3YcRYcDyiBDlP9/fs9i/Xv+hw11bQUwFlLMLcOKbIreVg1rCjMSmSsRGd2BVPu+SsGUtUKnAg1WBcjRXHKGp2HzUJqtDbfOTsmgRjzBFw1tbzYxHOAgjGWlGemgK0u1qLHEjRePloFf+lhhhmP8ZNyuXutzmaxxUgFJkweDEjHO1cpx1920vIkj+ft2TQvaPmY5N8Zt7pxqQ9q5PJKBvPNo6ZYELbyMfM8/bKaBEylso93JsskSvpHksfOQBzEBVszEulrQyCe+pLu3v6G+OEPcAAmGttFJkDvlIcQG51G9roWdpOrtVhiEDR+84FMGJU6Jk6ATrROB6V/cCr4MI8ZuO0A3uh39pOR9UqqC05+sy7HMZXAKH0ZMxqDnSuPlgZ0aJq8119Qjat4th0ZG50VwRfDUDgowBpgj1y1pLEnHlpPN/NpYr+J7tzn4ICOc8kc843V9UgdE/zHPtRmiJwW0HlnwEk3A4QQlqUE/K3bzxn18YvjEEbUhTRTKonJ2Nii6ha7iZKkIMlMO6DonR++wwkoH7Ptbj+X3P/K+1ahXlt0l4CUNRG2FCI6h44JFGzdEd7O/hsFsiEvBnFlkZNw9+yyiJfylZeWVsYWUYYjY/aTHCtVlD3oH+MtmIx1wJbloI5Hw2NareXglxwdO2ZRseYSnV4lmVexuXIkRHO+DavxlT7S72QHWOnXxgGc+BcjI7CVkYcLS/F8o5VDO3sN42lPpCHKqYzUq3BzrmRlYwRGXBUJKuPUas5bfPOiDn87XMym6z3WQC05cb+Zxw9i9wGLrTRnFaEaAvtCUKAAedUwa79yZfPS+G1PCx58L9n1S6yDSDQW3t5SBdx6oox6Z0UkhoKbIDCSLKtnb2UaoJtekkOnAcgGwPbC7e6x1hHQ++VT/cwn8C3omppPelTqS2ACQPKaQiErLLBflzB2u1t/1fXJaMz3UrOKjQM3GaTza8583+BHtluB8kcaGDUc2OdppPn0N0jRij5d/4Eu+RLW6Zdd01LIbOd2i+lUT/yJ77vXT4z1ZytJvcTXJSGS+Zjx/Ink/FYmZEjwdHZ87rlfrcDhKigBpNAcVSMdS+VQR+L7kKpKxILZJSDzlkACCJnDknVd5HFagCi+HPI2kTQ2oZZ23I4MQ/l0AIbLUE02EACwZXO4JgZCM6bkXUEKhLkcmoV6qzgZE5g1yRgpSIYIrQlh8gQRb0CRZacKSBjCAm7oi0pCEqCHja2ohhpHA58OootwvPsXPS3fRBE7f/wD//w7PRvvw8g+E0+sDOiWKkE7JPDfBt/dLfvbVxj7OWAORpASloKULhid8dnHdT2NlZJnlpZQ35mrt69MnCTCp/s1WQUMlZkrmWwGeRy8zEGvm9N+HRUE6CuBs29qjMAusxnaS1Uv1UM7ulZ5lzBcEa/dvhNfwJw0wG19twzFNEqbI3ibemZmhIrdux1Qa4BFCsYjB2mAHMx0yTNB102LmwDvdF+RcszIn02d999H4BSB0XnpNP+6Z/+6Q97oI1kVMpE+4BAzMhRUHKkva9e2/xUr+W6gil9NgfJzyovBW1d0/9zGWJAlP0zLrMWIHbIfdt7Y+7m2X1rY35l2vZsc0svyV7sQu2ZNtn5Xe/v5LbUH1vbXOcHyB55Jl+zqH0+u/1yfgIoXGXjdoAwUVaNMbgmAR0ndycloBLfgLcscG34ZBBKSTCYjBbH2859Ob+JMnM2Tdi6djbhiB2YBtq15dJ87odR43QgZflXefEMfO1OIP0OyU6GBJKtynw6gdnvyZ6gWjEvKFib6QQQLPVkkBSSEV5LHq2isOKhPeP9lj9WGColkWK8ajheOc8YiTYthVMLYOXAkWM6GSkWuyiSkTb7sTTWeJIdOw3qm/ESPdocylyqu+AssCrk5IzNm7b0KYAwd1IsNxpFG/WcnjTngeLVqWZ8kpm5iib5nEawwqwcdUvHMs7rNekK42ysRfFApQJcq42ks0TndFBkX9EwABEgCby0xS09bROy6GP9IK/aYW5s8gTIcqpYCOC26vmYEXOODQKU1Ss8Klw1P9qWYee0pZ2wl9Jz1SpsmcdHtkhf1VIBMFJqwIIDk+lv9VSAvDHE4v2E7XcnQIjdiqkyX+azeZty6u9YlUCvsSBD/q++oGuK0mfOfwKA0mjuOW3nnIcp4zl5drnnNf/AyGTrVqAxgY7naTO55KPa6dY9+StHrHB1L3MvHd/rmzGqmPeInL3j2tsBwjohCZJJEwmiwf2myOVSy2vNAXLdZBBMoMmwYkA0AblzBG0KlMHN+TfJ0fuPlhUmTLNgMAFirELW6E4OyW6JDEFrayvsIryeFyXWmvOMepFikc6j9bb1XZvK+7ln+9sX4QEIaE0RdFsLo2KlFCigNtobwPm+VyOQUzhTAM2NtpoDdRmiyqMHJSQT7cZmXD1nbmDV2y0Vr4lqrV7gxFriZiMhRZ3qFtRn3H2UBmju23rZXEat9k6Q5GaCA4Zursme7JS+9H33mLlucz7XfpNPzzd+OecVIJDzNgmjI96vQb4wUOps3M89MGb+dk51QRll80Zmq/nBLLVOXd8qkkzPpRcAWCmBgJ++aS+gJxqXIrCM1pJBKQb9jAVc5zRbYYwtc+XEpZy0/wzZD0RhUtxT2wQo7IB+sw90zlj6DNM56eq7ZfDV502AMO1oxdbGtaWMbVm/2mjzkgzlKLtv55KTAOjcIyK7SD4ar9jXlqmvbLBrjHkyWwH5tLXJY8zC1LPJbNdP7a5ovfu01Lj2loLWrpXx1n6y/ZP2v2hubgcIRYImlsL7bbCtS/euAMuVUPSTnnxEY5XTTDmjTd2fUTEh8pZt01xeMgfvvIl+J7MxhcnnjNIEEJNBUEEP0Fj/zKhFGRvgkLRnVy+RM5tKkiENLLnHaqi7l3b4AQwIOGVwvc9EU2oQsArodTUI/v/Xf/3XP6hBkQ0H6TmMvO+ra7iiaIoB9wwGP2T9qnFaz2uetZ2DsWGUfmNremGWORcRSy+hklHSWAaMiUjO972CGji6610Mza8+RdMnYxmU5rt0V+AyQNv55qmc7qQspzxluCdr5rMAtzmvTbEasXA+n23peX1mTwF7bgBgVsw4pLQwNWTSffQRKAN4jLM5mVvkJt89yz1KMfhbLh/rpZZGGsk9/QD+vQyq5YzofEHF1LeVyk12nCP/j5WgE+1wepT6rR4EU6ZgWHCDDQ3YAVVsUkGCGouK9Pbqwx3XJT8AYH30WXn+gj2/OXjfxRrldGNOW5ramGTPpoPn1Cs2nfLsnlN+PK9ga9rJam86/yv9CEjrF70olR2bVMH5ZPoKeOqza+huKej6E2CaoMN37eI5Zb5r0sujcniFTLwNIJiYlgmiyKFuhsHfBj4D1qQnFCYt5mC+gZHxQE1C66JVFcOiR7Rey6emcDYZ04j+D2r6q7/6i7F2TsAmQ+QzgACVKiK1c1qRf8a8m6yR4KSxvprU+cyUIIGynBMI4CgYUn/rD+PN+BFeCgRsMZ7abmwtj8QgyMVaYoqm7zhbOM2tPRfUH3Ag2vVKv78T8sZEHYW5bk4UHJoHMmNMrF5RSMc56TenYkys6pCWkX4B7K5mEKpBIa+iy15eU+RiPDhVTAcmB/uzRvxtQuTcmR9NDqeRXuU3eS8/mxxOALwCi/n/IwMrf66tCu/oFzmT0okGBkx7/4I5Bw4nKJ46+EjfzKlCY4ycdIZ5E/UD4W0jbSWA7/WL88UiPJOb+gzISKuxC3YkPUvutUV6Ue2BZ9m/BTAVoJh/Oiqt4bxWm1xh0M+655SDNeJf/5/PLMiZczv1fsreo7am4+4zQXF/pwPJdM4+R5+t7Pqevdr5dKH2um/XpIMTpAcyu9/sU22eKeN5v55dm8mD6wtaq0eZLPdZ83j0Pm8BCE024yJ/aa26bW8Z+iqgDaplbFYGtI9/FHPGsS2YOUk0etdYOmmdO0QvkrT2/Tvn1ASuQjUdfG12rnYoqEQnyvdzvC0He2Sk9zjGR0rZvT2f8yOQlnQykARStGzZnyV/VlHIyzpXIZe135yjcVLEZ9zbnvhRCueoYLke2MMKiTbX7bL33D9kr08K2ciPfHi76ukHkCZnjRIUpQEnHLIdOlHL/uaQjd/VNQjJk9x07ykI8K6GC6jlvOZKlymXGZwJIFZn+53hngbyK6P5lexOw4W9UeSnBsZeB+ai1Eg0sDbOlQSBmIy3/wN3j9rCcZNXQNDKBMAOC6HQFBPkOea9FSnPZKlxIj82TFPnJH0BkDmOgoTuryZDKo+OWXmB3dJ+c4u5UgtjbACfT69BeCVwmuPeGEybuWdspyNO7vpdgJTMTBDRczlhP77rd+Da2McS+D3TcxNEJ6ctbfcdGVc70i6ufece5JHdqc7A9WSt++iT8/gIn813UbiP7/vuCib3mX589/1bAEIOXp6ckYGyRQINkgEToSj8M+i+Y9itfUYtG2DK166JFFIEKTKA2hU4oRBFjwqROJP1mEJWe+bvFRVn5AiWnKc3BWqvFQIipr4vlTCN91d/fzcxq8KtxjtnGWVFISytQvuiXRlXOWHV5NgVgEkaBPXpLYYMpTGbRvuIIK3Xag+K2GZMCtpsebsHKK0gzfhOZ+nvqdzkJJqSHHAC6G61EC1/RQHbme9qBqHIgrNQpAmg+J0RrPBJ0ZwCSqtKFHUmS/O8uZpmBQKrk10Nd7L0KF+7GvSAcLowwYH7GFv5dcAPEKWfFQ9G+2eEJ+DOuK/36zkTgP/93//9H3UG5prx9T+ZxUiYS6wUsEu2FKy+siIgg238jbVoHsg4I2prnqS0rJhRYwAQAAzSMcAIFqVUGEdzNOV2pq4+uteUsUe2aNXlRwHNZAvSBbLxyA6sYDdZYu/9APVSvS39db5zyAjnjU2WuhEY+AFcfZ999Fw6JL0mcADQWoXhXu7Tkkny1BJL95a6FXT2vOR6AhS+IMChfzMlEwDwPCuppL6xmEAwNlh7BVAC5Fdk+eq5n/e/HSBMNG9CRQUcrt0QW9pYcRlFMuioRTlzCoduZDQY+F4OYwIZDw6QM7IpD9QOsRMIxuAvOv3fCI8DTXCjfFpJMKO30h2E073aX0FaQW4x5EjIqirveQleaLqllBmVSRuvCrW2ed6TIXI+etdvRlrhGFAk7w8oKJgUfUklSCmghwNQXnClH+3ncMR5f2VgODygTSoG03H0MP4U1d4Z7YQJAABBOVVzgUGQapLiMP4iUgyCOhc1GeaMk7Ek7eixGtLmcDpHcs7xA22oZ/0o3eA8aR/pIPOHPs+oubdokzNG50sNyZuSmRye9rep1gr2XO9ZnsFBzcrrmStONtNNz5dL9f9cWeO86VADZs61YiXjTK84co5SW9tzxPPpqvOc31K2GAftdw7naswwPF66JhjwDDUtPmNgtc0W6oDvMwagsVL7YDWPAklsW++MeHb9MxkxJn6AAfLJqbgnEG5ZrSJd80cGjBmn8BMK1pLtNhTSx5iPR2M2dSH5N3YxTLFGziP/jcEEIGSguiqFnewZG06eJus0ryGj7K56lVblkBfP8NMqOfNP9oCJlilm21saTCaTF/cFJsiLYBRTGRAgs0X75pyv8kxtJFfGzDXuQebzNWyOwIx/Is/uob9YYGnIlp3PuqVn8nfl928DCBl0rADkbZCsPLCZCEfPsXFynLA0AYq2ApCoInlmBWkEiKEAEqAwFcr+J2wKHluDXxRGuKrejuLJUVYhboLKIRcReUcE8GEiPQfqE0VNgfJ3+TDCQVDazCbHkKAbg1CndoRctS+qbBp9n2snmleagLLaLa5XzcrTAk0q9tH6DK38u+gZSGhrakvMXNd72OcLS84SNn3klDlkzwbujhwBKmNPyYybXLhxQDtXREoWzAuZoZSKxvRVSoGD5RgwTsDDUYBQm2a0zRh4tv62SZDzAFzpH3MD4LYLnO+Mkzapq+D02lXOOVg0htKhyNQcOgIRZEBk1T7zyV860ooBctjOiBy284qSyHdV30X67fjYbnGxBIE0bJWUCCPX73TaPdYVRuSh9En64V6T6vX5bJd2kh31RNJ4gCHnyiDrF91W4/AM3NZ2MlBqTQqu49n1z+RWuz2DHhpne7pg8dr2m5Mht94BQU7ZvJ8AEJrPQGkbXZmzliQGBCr0a6yLhHv/TCsLArMt640JcJ9sYc7dHGGK7ExLLowZGWa3OFTjin1mg6Wb3JtTVuNBxwKzAVlt8p3P9cVzSvlV/E1uW77Zyo35tt2K56ee0SPPaLWCdrQBk3v0LG2kr54rCG4lhBQ4uea/+DssQ4HjuxmF2wGCySEUUcOUEysg1WDy5fRF6SJdhgFIsKmNOgS0o9y/Qfad6ILRVcOAxoXYOQACxODKvXMgJimDZcDb/15hFUEiJG2RmuC3lFD7TDDDL2fvPsAK2lM/CBwhbSlPSyIJUJW3oiV/E8KoM/c1Bp7j72ov+tz92jWsZT5Fg1Cx2gz3VBTmGn3BnnAmlIQBV4inTkIOXGqh6m0bzRBE17Xh0xWCKP+PQRC5e6Pd0SPZablYcjQpbvNpi1vPVNdiHwiGhmM13sYFqOSoq23Z267SPAE6ciSNgDpktLA0xp/xwGZhcDA/5lqb2wKaDNn6F3UPIGRoXA+QAjbaba58x9GZQ/+T2+axTZgYLBF4K1Q8r2VkruFcW9deLpWs+TuwCHT4O5rWPcifa40vRyh953+ySOZ6oyJZ1FcsH30BgGo/vQQaPR+jQtf/8R//8Q8mzOZIbAFQwID6bWyNIXDg+UCddppPQAw79Ex2nW+MgDR0dXsgxKIcZRDITzLpOe6rj1JH0qjkT7/IAPsg2ryq7mevLK/XTco/pxlbZbw5QOe0jDB7mYzmoLOR/m/X2PYMYMddF6PQPY0h3QCO6YYxDPAGErSl9+4EdAMW7Lv58D19aQts9qMid3+nh81Fy3RniqBUUD5D25tj4+A5yVFshfv5PPCkXea95dmlWfTbd96TQyacz16qY+ltu2fN59773A4QamgVohl9tCGHbiKAA4aAkUHbyV8ziowBg0SwUIWoR8qOLQAKoE2V/FgIwjW3AiXk0bqe4fB/S6iK1AlNVFHo1v8AjMiFo0XNQ8Ztyek50GwIte1Fi2oBBJ85n/HkPBhw9xdloL387ZzoymgqwudzQhVQoDQJpeeKSBhoVDSQAAig0Dkd+VYRjVSOiMt38rAKO6cROBpFrQKoH8bL/AF4ot8jzwixR+HnnI2DZ3HCxokxEF1YWeJtg2TGOwMYBoBF4aQCO206+obJGIQi4pgDoJWDI6tSHcbdD6pZPY05L59p3MgJwwD0AnXmHsDB/rheW8ksZgzFzqj6rYZiGldOl2yQlRw6Q0XeGN9YC/d3D3pk3Bi9ZCxQ2x756Yd7k1POnoxh0+iaIjyRcfsuAPRShuTL2GuPc1T3Ywa1m8wC+sbftZw9GcaAcQCAkfYBBcYUAPE5ACEosPEQ1ggQo4uvHBg1Y6l2iLNO3wPkr9zju3Pa+lwaQZADlKO8pY0wpGwSkIRlkDb6tGK0R30rZWAuiqoLaNiy9mQhM37Ih371YrxYqTaiI2cxDTln58/lhj5vy282nr1Sj9ZBtmN9Y2FmYa/5ZI8LyMyLQ5s8ZwZmnuU87coP8SNseyxeQRydpRP0xXPb2C4/UhrFmFWw6LvAZ/udaBt9sMTWswFxMuP+xsIyXOASKGLTzwCvR2T7LQBh5qr8HRVky2XGgAMzkYyLXA2qlmFKuBgtE8VQoR457ejcqB3CSXAIk8F3lHN0XwIehRa15f7tvuW7liQxYJSak7UyADJFrZbvpjTu3Vagodb6ReAIg3OibvWvqKMUhOtCm85rDwftJeDrPv6lHLSNMAFYBIxjRFMxsJwSml0uTxuAKvUIofKi32dR2FYhM3aUk5KjW1G7ewFCjpjR5Rw4k0CeqFtVeqifcobyRYyYJfNkvsiVax3uA7QcOZJjzwMGpDyAE5S7z0SOxjkA41lAiujA9+SSAWBYGQy/sWT6BFQ6D0ggn2SAYVIUi2Ugg0C06BrYaLOhjLLPUKPmgPMme20Jnl5knAOmMQ7aqS19HojxDG3QV/UtilCBITJm/IF4Th4lbCMq/bOSiDz6m546D/C3lBFwoVvGTRGi9vlf6lCbyTXGgf4wohysfgMbAJfiY+c+c7bGuneUABW9nyT9PCIDXctuYXUEM0CoNgI0wJDctZSpQ7SIRXq34Z/BwbTH9Wd+n3yxu72x0lyRl1Kjxpju9aZGY1udELlhX5qn6PP5Hpt03D3JLCANMJMlMjUj/kAKWWxPkJjenDed9zyySvbYZu2hU+4PHMQqzxcyBXRcr09th19dibY7p10h3QuLS1/NK32oTYI04F7b1ElhoMnJ3/3d//lf//mf//cPn8XOA5JqD7RTQbnnCu4EBL0WO7b0DFndco+3AIRnDczhEj50vmp0joYA+ozhMGGMnqIuBY6+L6fpO4Iy82JzY5IMXTshlj/KCZtQhtaPwkmGUBEZh+IczyUQBNAEFg0Sll4OVLGiiXWu9iRYFTW6LsbCZ73spGvbPKa377V+1hgU0fndi6UygmoPGG0AQS4c1ev+xkMEg1qXjrn60G7Cz6G1b/+rz5zsDYUzVpgitDPgRBGBIP0RqZqLmQfWX6ASIOJggANRvfl0H0YcdX/k0MYibCyN4lDPBEz6jqwCbi3LFHmLMMvnej4jIZoWdXP4jJo5MndkM2Bp/uQq/+Zv/uYPg8kgMTJRlb6nA34XzdGZCmPb9jUDRr67v3bEKDCCpSSqxtaGdmFkwPxg1Th7hpz+odTJOjBWigJgwhwADNrqO39LcflNfzkBDKI9O6SF6IpxxZC4j4i/YlPsj9QEMMLpAgjrYTxKt9BloAAAo6sA1tm7GJoL+zIAPdgq40IeOQTtxKIBQ8Cf75xzNiDfKsfJCZ2JEs/+aHvsqLHUVvJgLLOrpalKWZGTIufsrs9KYbnWc8gl+0bW3MM1frPP7KdrfWaeAWCr0aRmCvAqmCTT7Hg7cvq+eple9+wzum/stZ+8+zuGwPftIOp3gMU4GAPPwkiSveoVfF7hubQzxkzQqK2cvNSzomx2QNoMw003tJd+8A/0RTDsc8AfS9IW6W22ZSzsncGmsHOlNe4Glh8JEGb6AUWu8tukmxwCRHijNEXGvid4Bq8XauR4q95uSUsFgr2GtmrW0g0VB3oWoy0aFN2gJ4v4nUNIclwMTq+wTSAJXyxBGzqlgK3T971rCSbl0Td9L3+WkSeknpngalt7khM8hp+TEX1hVBgk53Kk6jMojsgZdQs4QLZ37CKoTaInSiMS3sIgVPhlHpvbuRuZ8SgqMWYVkrbJFsWSKyc3KsgppIiOQ/G/GoSjb3Ms8mqjI4ADKMsomtOiFIWS0gciCgBCe8mMc7QZa4BON9ciJpFzoM646SPZ4nAYH79Fo+5vHAIcjBrjH9g1jnTCXPi8AkVyV151bvdcca77uIfx8xkg5m/t1i5AwHM5f/NjDDh7bJHnMdyMJoPHeTKe9EBqQL8VZmEhREzSDowl+TSm9IoTBeKAJOlCwAnYYow9D5vkhUsMbqm8nGTpJ/NgXLCQvYuD0X7GOGx1tsYHS6evxkn0286Bam+AWuOtLZwHm3W3oV/7ZAytnrFM1I/5rCjbvJIbfTBvAK2VP+aGDADk5LO9Rgq0rDRgc6aeBzTZIPJXYXQgrtqC2NdW0GAcRducqjElo0BEqa+Cq9hf96sd5tp9ROTAR1F/u9xWZFnNgnPdn+6R7QAE22rOpg612sGzfCdwdF9zjDUCWgUB7K30GZabrGMu6L6aOLIMWAPPAIT0oroogJlM82cx0up87AeEZXuHzHwcQCjlEFKbKw9y0IQ92sskO8f5PjPBUV/ljKLFytt3PaGzR5TfAAAgAElEQVRoBUIOpmIty/Is08NgmPgKXsrXRon5zSDmsAl6b/VyTwY8YJBguod25gRLfRBU92stfwIcys9RVEzjPiJ0/7sH4aOERVtYgorERKTtWW8XOUJ65VEELYKHmK1Q2SLg0fKMl7a6n3mUQzZ25tY4MfitRtB3iqj+AD2n78CA6J3j5lwUcXJk6lX8f/QwBwoTsTZAiOfXz5k+CzCSj8Be9RT6gRnAUHEe6MjAUFQvOfW5aFpOFgisjsC9ybwxSTb6rCVjM53l3AoctZWcpSPNm3ZWOe5e7us6Y1qkZo44BQ4DQDCeqH/PBL6s/7feWw6efkjrAKiiaKyWAxtCdqUhULWMujl3DudPbnyunsXqFONUkEA/RYSPCv5iEzlubAWQyoifVXMw5YYMkPPqikSEHIUxDqD4znhqM4e7BSwfldFH1wMuQDSHDUAZ08aRXeQkzXN5++SlDas4O/IQaGj77lK3rRzQT860wkT/e5afWABj5GCf3V9aEDBkezGPpYs9I/bKNRxsywFz8r6vH66rXeR/1uZoR2A5HfHZLGSsWLjoXRsFd3QjRgWolTZkTxQXAraAonE1ZgACEE2/pBx7Eyq9cQ6AwIZhm4Ax8mrVnWACI0WHpObU3lTceIU8fHXPjwMINbTIqEjR5+UMYxicU/QQFbpe33WEJmFac27zf/dEeVIeSjT3VG+C5vKZ8riEqOg1h19buv9Xeb/5eQxHebocS84Ggi/PDrRA/oTOdeXXbPmK1tcejguCFaExxiJ5Ai2KvfIw1saE4bShjdUEWyK3WAGKROEYVj+QefdmZNBwqPnmn9FhvCgUYIEBEtlzXNoDHIlIAwxHxqCVLww+Q4ompOgcJYMQfdkc5hSa7+SiFFXfV08R5a9vVjO4t3bb6Clw0ZhOGe7vdGj2sesypP7X9pV2fwRuqsp2jXsHqgEwIJChBQKAF6CB3KGIe3cGAGSsLDFl3NXLkA3zA8y6v7EADqQFgIx2+/S59ID6gfRfkSSGaj2qw6AHGAtG3bNauXGmczZOLTMFDDhb4FTbsVTmzpJodTLOBaRQxu8+2DZgjCNqJYL2ZXeSoQIOss1xi+yNp71pYjtLH0yHnFyudR6rnM5xKOiSAsQqcbZYpuwpJx9z4NzYh8BI7V/Hdj7zUXumje3vaWd9VnA397npXtMfAC7pEjAsBcE+K6aV5jJ2xh7gZa+BYefQFcDfvi4KagFqAR29oi/AxRb7eZZ8fSxAONJBApEw5bhjDx4ZhxwOo8e4KyyTq4Zeqxf4rj2uI7ieS4CuzC96FqWdy4oCPwTTs+V5OUpggGFS4CVytpxMRIYCwzZcfVAyzgIVjhIOzM2UQEbBvMy5WQ3Jqtg5un6bwyhMjAIQpIJcFEJRzSPUD5WjtTla+e4jhzbqi+dyAkAIuWMopXCkpkS/ZK/2f8WiFLnHaGUU3Rv1yNkxLBwpgFgqbKXXX+1P7FUAvPtsdZ4ZZw7d2Jpv/Qfk6JK59z/GQEQGODgP+DEPxg2NCjAAEi2RjOZON/WrdKExNK4AQ6nD2uE8OkLeAA39VMPE0CZrW5isR+PZXHY/S6vV//TuD3Q8Clm1utoXfdJHfZK3vmLfkVfnvfOAF3S28S+qf+SszYkoloNr4x9jz3lld1rSJyDZa/sKjLQFKDB25ENKcAZYpYTNIXmYdmDrGHx3fvrF4dNJrPAjpurZMwPVyaVUo8DFskapE/3EDNI/6RkpYjLiM3VWgiN2ChPxGyA8G+0Xv18Zgi776nMGheAxaCIe0TfFYZzLOb346FtOW/sRM1LeGaWH8pIaYRhRX4SL0BFANO3Ve8EXDVJ21DtQUlV8YOArQPBsEHPMRRDO9xlHRJHLS8rrYRcAJ+AA1Scf7nvRCTr/yFEFt+cW7RtrxXUiBAenTpbIWBHsM3mc35NBkTeqHnOgIDcat2hqax+26sczcEz+zC3jZ0xQpQwbcBo1bV7mUrAAOzmZ80jf3K9lZhyO9lZY6d4YItGXvGxMx0xJinTNvTFvFU8plq/6vnUMM/iea+UChowzrWYGKPcsQEF6AXCStyd/e53onjZ+dY1AAehsdcUKDKtHEFgosvUbFW4FFBvS0tPJer0q11+1KZuB3TT/bEbp48lerdefOadn3rv6I+3LRkspCM7YYCyjFIVgQqoYcwBMSlk6BwvFRrGhUnC/UwwnasAjKuur6AjdyvhyJtILIu8ikpnGeNa8qwXV8x/1IQEUmchriVwVLIqeCVbIU9GMc20WczUaTSEUmTI28tDVk1B2TpXRrqguZgTdLdLkTNCaFZxVW8JRVADmdwVx+kPpSp1IbaC+0ajSFPLXWAX/M9jlwp/N6SvfZwicq0/arlCNomsPx7kyJN/ddzWGxkQU0YuAOBnnHAV5ZOErmXql3/OcosgJqLEKHGSrfpxfPpp8oFtF1r2yW0RFhoEi8w5cTIZkFi8zlgH4csdkQNrBmBsfdDg98L3zv3MyW/tbxAsIAi2ezcCLtLUToFP3g7WzZE1OHXUuCLla917pi8hV4TW2sZVX8zoy7RDp6ocVJlJBnBl2VYohFtLc72Wg5jONqVQQ1kCBsZqRyRyubMGZ8jvb0X2/Slm8Mr6dkx8hE/pS8TigAOBKHQC87JF5kIYAHKQe2A0AQSGkwuWjzNeWdnfunzLFsE72s0hV1SjK2USg3iYt9IoyXwkMHiHaBHc+V86Kga3QkfLPwkBV8oSMseaA91LTrwpZ1DDjyQihkLVXzUQbnbjXpA/rVwY/RX30zJkr9X1RGdCgfyIjdRecDJpbxGOeGWsRnzQSZH7kCJiVi68OgvyIKFsGiJL9LtqfYzAddtEx9gP7YCMsy7/MoaW3CvS2pgS+6m+Abut4NEcB6foy87I56BxJaZQ1TZSulYJ6FJ3Oe8QU9SxAELMgBWNuqx/q+dVO7KGKV5sSi8Xpc5oVwKlHSBaBHwBJoSxjD9hhEdrgZ+tYn3m+eh6OWH4bkKUnc/zJnPEEqjkz9gUgQ39LqagN4dz0G8ivT8Zlr2Mlgxhc+okpU6xnrmZKsjFYbe5VNnhNbe6ZA/dIv/zN1wBZbLDAFJhkrwFMzJNtuaUbjAOQBOhK0b3ii/a077tr/vQA4VHnCTqBohRtuoLGlestOj060AQhRYlGZdxy5NMpnGHkOV7FTww1ugoNWEU9I6DIraWZop65L8TRvj66vmivXHCbpThXYRnnzcFRBOv5MQ3GQc5WxTnGwHgpFkVvVsiDqjZHAE+bVUHeouwqnFviKspxnhyqKEiNANAkErKkUC78zKM51RZRsVSD5weEGIkiz4qefEceM7CxET5jiK2m8bd8McfDyUiVmFvfi7h/pSNAUg1Oka65B0J9LurCAlbHcYZ+zTFuDwF0MDn2HGDEXFllQ97IP0An1VexqLqMtkZ/95xpE0ZRm2JXSvvk5AOr7ZMQKJe+sVxTBGxsm4sz+iRIM2bSRL2I7oz7fuo9MJsAAd32N7CA5QQq2XD2gg2RDjpbjl8Zk18SIOS8FH4QSAgaUuNYTMJRpBYDMSN9lDMnhzYX3cpJpoBnoF/V0SIWVbA2ZEE/o3MhVdGs7asJIsVr171XBGTvOTP6R/WL6Dh0Y4zJ0C5pBhExBWBkgLUZlQAN5gYD4B7mhpNVhCivL21h2Z+jNf3tu17hlbkU4dlch4FTe2DOrWZw77MPc99b+8x57ZhgkQwwAvrSUsIiDGv9GQvzZ9WJiJQxFlkZAz9Agl097esgnfQrHclVu4pydAAvZ2KsRJ32T2hcz9CtdXzdsxUbIjsrN9QtAZzSKvapsKLBCiKMAQcL+KL1O95h7Gc/9EHxprYCLfpDLn1Oh3wmBQTAtxMt2fbT+2tiCc/Kjbsfhk9aA8NxdRDzbr0RAAGUim2BLilEY8k2sk98hDoMOk7Xr5DlZ2PwSwIEAy3Ho+BGNMtxisgYlbYMfTZw330fAqdMjD2HLSr2P4PGULS2P1R+1GBQKn1RJS7qpmzW+zMAVmMQOsaK4nFCvVTqSD+/u7aoqRoC44rih5AZTAiZMRDVYwvMgardxsHyRAAAG8Ipxii0ysR3CuFQ70CH54isja3lQu6HEXI/DAWQ4WDMAQzfv7qP/6tjZN7latGvbYRSGqLd5ciB/miTlFBg0m/GwDI+n8tJqoY3juhHYIkBAQBFGmhf/TSGv9JhPNuLxNwC28CSuhJjj7UxltjBUhlHAf+j8UW/Y+wAufb7xxypibEPh5SCmhig3RwC6eaxVSPvnrNoe+2oKLQ2Zb9KAfV5gZXvKx4N2B61X+7Zag9yjzWcxZzvcI5Xz1EsDmBLjjFgbJPN7QR0QKY0A3ab3XrHGPySAIFC270KarZLVdu1llfsDV5HBKTiFDUNjFY5WkrGiTHynvfd8sstzxedW4PNYXAknK1+5ng9x5pzTAMwcXUNwnSMbfSk75Cxyv42smFYbLMLSWfIsRyMPkcgWgYGRIwKvQA7fZS66J0C7iHapmSiONG2zzAFWCJG2ziYZ2yFpYKiO+Nx5sEJ2OgEC9L6/clIea7KfrJhZYfUCEOgngC4UfSFZfK9KE7UoM/ysZwLkKSf2BKUNuPxqx2laIwREIUx8BmZN3Yzv/+ohuGM8SLHgLgIHNBWWCfKxohhj+Tp6R55VoNjdYPP2ha72okz2rL3HjEx1c18tbJiAljtnstJS50WBOxti+tiNLB6UkQCiQlY/H0UhBxp3xXXYnLJB2BgSSdm1b4d9kRQMG8/DfoPNAikfhcpXjEL/70LXGtmOR2Ro/ytbTw5lKOCN4toqlblFFUwW0VA+EWOJp1ScVYi6J57BjJEU6nelvvmfD2H0Plfn1H8Ik6UoYK9K6KqZ9OXUbKGmmFvsxVjpGqZAkgdUBIsA+YFGNAfjhew8kIczr3cu3lEz0HhlgVxpu7D6WKI2ipVf1W0AxyiOzl9gOrowWCaaytDAA5zCqwBJYFC3wNlNnVyMAz6zjioh/C9QiS0rpy23C454mTaphqQtcGTMWQ8GRH9fMc8Hh2zLdevxY7GhTxgo+iTCJ5cAE6OLauOXm1HS/7SV1sUmzdzTL6kxsisw1bTjDkd8x2Z8ANMFAz82efs1XFdz7M5kvQQR0mX99jl7O+s8Xm1PTMtOm1y9WQBO9/FkGpj7Zwplwmaum9gK9ZYagxLABAJiAQJmGUBTstnFVNLj/qZz3q1T0fP+yUYhFCyAkGRGIq3t8757oxoOqFplQAQgjI20QpMUMIVTgEIqOJQ8RkAARjgKIuwpBYUIRFC0U4bm4iiFb+c0ectwjeXqBF0/0sBKJ50UAyV097Yx1HK5fqNJbDEj9LIM/u8LX+BAPs8UFZGW5GYe3O+xt/cGgfR/Hy9tfHmfBn4I0cKD4ABKAAamtkYq40w99qvTYANZ8aZkEFARV4a64FB8bdzpELkXjEtQBRgYOmqIlSpBwwK5sFx9xweGau9107jap7JuXX50mSW8aopqQI/w3t2pBWzaB6ljrBz2Jw28iGPAIHvySQ5BVrU10j3mV9ph7PSiXvH8pOvM8aCAak3wQ7btfWoWHJuhz9ZpAkAHt27QC8AN+1yzEn3mMtmu9dMyczgb37v71I4Ah12Sr+xUNLc7Aa9FjCxEc7FFlp+/47jlwEIjAtHyTlDYxB/9O9RgxKaNJlAASTIkHAgKEi0PoTI+XkmwWBEio7OAAi9Y4CxQr16AxpnymlyhKr3RaMcEDr26FKvPcKakoXIY1MAALS5760DxiK0XFH+jbMUVRtb4ykyQ9vqC2NgqZklhVgF9/Q5QNab9aQ0AALAEAjhwFWan7ECoLnX9uos7OBoHqB/O+xRbmyV1IkCL3Nvi1vt+uu//us/5kf7RcUKKr07QPvJhSI4O/RJiaEcGREy1EqcM/qwZy7vvMYYy0+rPwGY6CtgabwY8wz6XCFyZvuSV/NLPhlx89omQvRMvQHDrjYBZYwhVDeCNcJY1c5A5Z7o+Mw+fdq9sGoCArprjrfu8ZHjbsllb31UKEznpVCMee+c8Fsaz5yxNe0KCeA73/W9L4Iu07PqRzzL9+QSqHBttVCN67TpnjvnPYBgJRVf4Xr3Ku3J5tlAKUaCHM0U7J1z90sABJPDGJezbAvllkgddZYZJpE5KpwzUjDYS3AU3DEalIBAiXAV4pwJECwNspTPGygVtPgROXOGwAHHApWLUre+F+EMgZy5zCKp7isatAYYCBBR2zgk5aCwDgpqWWR0L0DRK78puhyweaTw7uF5+tz2r+aCEfe/IiC03tEIvPnr1cLayXAANKraGQLUN4ci9eEz36s1EDmIDKQXOI/W0XvTJkCA8cEUOJ/BFGXov8Nzy/8eBbdnzO2V9zCGVnGo6wAK6Y26EoCJ/lZBn0EGnNpp8qx2BRCkgcyjw7s+/vmf//mPJXmocQwSRyMYkLoiZ2SX7rdd8Nxr4jdA+MvZkU4UwKnY79XwW2U7x+tenCx5MQccPbnoSGbMQWm6PiNTLUfuM3YlYOEZrT4KpPfyMKCGzlYAzr6wS1KJUodqUMgmW+aeggbBjYBBqlt9Ev0XFEgJuz9bIrARSEz5OUu2n93nTwsQ2gbXACj2UgxGABnlo8tncgxzJzfgQ16SI1KJzkGLIhgPuXBCwClx1mflv+fkoq5R9pAnukouDwUrlYKiJnhyo2jw//iP/9iV33smTEe+z8ArPrRvg7fJOYwxIGBcKezcXY9jDuRN+pDDpbSh+yJMkboxQlGflVqafZ5t4Bg4ETUS5t3mKAwGuRRVqlOwsoRj8Xd7vltqxohIJaxbMx8Z30+9dlK30bbG0d8iuTaHMu9WKWBj1hdLnd238tht0sORAK2e7/A9fWLQgTeFdeYQgAN0MXX6JTrEYn1CUeLZY3T0fumK3+ypsVTQzV4pLt4DoHKgGFKBWnUAgiKFzgAcfbOSSypDfRZnnf5pC0fMqdPVtg7HbPhOmo8tAgA4fO3GbClA9RkwEoAI9DundpFpf9NvwN8hbcgeCyAxClgyqWJ1RgIKwZzAsxqbo+O+9fo/JUAoojcYqGToDKqHLIGDo5FjQlDOSSQB+XJKDJntXtHh8uqiWUV4zqk6Fe1FOM885KygTYImIkfb9zY5zAK6mzPFbAAQR1mTM9vevVqWRokyHP5uEyQKRsmjC3sxEmXrJS7mJBDRi7NmHpLyk4/ucWY/arN7aitjRP6ke5I5n3McjIG/zQOHp+/mBxBquZ77fcK+/WeO0aN7zeVzAQbjBhzI6VueK+0kEjO3WyPLre2fSwDNAXAgqrNk0dxwPoC+dEMv37EqxbJHzoeT0U5t50h+hTncOsadn87QEWMpXWM1yhGAgJJ3jxyyFWNYQzbXfRVAqlmS8jVXWCCpPWCPrLEPbLg2CSjacRWIYWOlAjAFZNW9tFsBOIYY2GCLBYZ8jhowrBPGi+3Bangu8A9UKF5WnyJlJs3ocwWtAgSrlNgDQRNfsmdM9s5L1/0pAULUI0dpwqE8QgNJEsijVcTlnTklhUhyoUWHXmerMA7FZZ2+4iX7EVRIRZgIkaj+zMOmGnZFc3gpk4i1PfxR3AwbdsFn7Y9/5vOP3it6MIOxOvAijuje6MGeG6jIGEfBz9xfuxTOquSj7V6v184cTEAkB6jN2qBYVo0BsMpI+PEdefIjEq3/R2X17P6dfb/mNbZHlGYlAAfsM8yfiDJadm7re3Zbuh/WqiV9HAQDD1hzIIC/pWeMvGJFxlsAAiCIDDkV6SFpIkFDQcQ7jPv/Y+/ecaXrrnKP+42OaAkndeAAQQfoBg1wRmo7IAARIYd0AxIkQBiJBEFEbDoABIfIku3v6Fcf/4/h6VW7alWt2pd6d0lbVbtqXeZlXJ7xjDHnetT4HHHd9J0TJ/OcKbto7ADBWyr2Y43JC/snZSnl417ofWkq86guq4eoccCYXmkg9lF7+AvzSC/V/UhhstvmmTxaKk2PsUXAIofOz7BBZFdBtX7wCcClc6xykvLEXLifgnVO32e/CRLYBXVK7IaaNWyil2JFIOctZOhpAQKhkOc14HI9KsdNWPTlPUJefrydGF2z5U0id9GOyKHd7hSYEA5UFAMInR6dJ23fd4VTDBeKHlAgqIQROoViCT8G4ej73zOenRvzk9NoWdi8dga3YzIkAYF5relcAx6OL0o92vkyGtHJpaG6F8MT5cmQ+X/mz7V7rdPw3dFtPGKejrzGTMtwutJ0nC0wz8i33W40bcDvyDas13IPc9RjtlHMgAAQjgKXzuN4gHy6bKmaomfUNgZBAaNi6B5c9RaG/ZHjc8S1J0hnk1DtomdB3S0sUSlK4A4YkLKT2jMn9hHgqFsCG60v5SgVrGhdECUNYa4sT7ezrjkkh5gBvgQDoAAZeGdDzTPbjpmm22RCkaUVU/wNdgBIAUhaweYcsiVtUACLeZKK9NIeq96AE+3jv+iF897i9RQAocK1WXxizbgopCe6BQ5uUdacS0aesVI4VVoB/SgPqYAK1USo0FmoK46ZoZH/104CJOd0NMWvf5RO+oIAAyfACCpNTYSX+gP9R32+R4DwFgrwec/XHYEKvOjS3I0P2OZ4MVxSYuhcBjIg9chWziW45Yw5DSk6TkVOGHvgBcBYZWIpHofB2IsiRZrSX+pLRJaiTq9b7M0j+/qerm2sjT07LaIX0EiF3gqMyZZCZCyBYEhawXJyAETqAmVP5sybpacid46c85frJ2sYIvPNb/jzHQYJI4QpaOWUIEyEr4BQWpecqPni6KUVSiUCFAJD9haQkK4ADgBfD2pii8kW9oL88zVkR3uBUWyEmrVYldeev6cACK1/JSBelpDJ6Vhbbh2y6tJ7qL4iP+8oTgjPPVyTEWE0CBNAgCYjAIQdnURY5cMYFC9UFBBxpOEgVG1FLHclLya1QchUv2s3FsUKB4gWQDlit8jXFtbP+338EUhH9aTHOqs1oKdYNqyBgiwAegL+R/Z8MjcoZ7rMYLMbokc5YkZce2165B0Qdx5driAOe8iZ0MXJcD2y7R/52u1XwFZypIIuBcSxb3trTYy5InQpX/ZfXYFIXKBkZZnADdOKoZLeYwMVwpZ+dl/ggONXA4OJwAJgCaQcyASA0Y6onLdADMuHbZCC4A8UJ2MHMEtssbaw95gowAIYwTawzYJH4AggVtsAYDhGmxTVAyxYYGzVkT7jWrl5CoAwixIJiMheNE+p0VZT0G4Z5Ja9KDDBCJg8L0IGsRIaOxQycDZPiZqEDtUiQKtWMkCg8pei+r3C/9KEUox2igRICJ8oBjABDlBsiiShXKAJXfpZOHWtinwed+QI5DhF3iIrTpXOoFBV/JPf0oC36Ootba2miGPgVES0ngEiVaiwmKFm1DkZAFt0ipKWzqPP+mJJsXPZIuAmyjtnd0u7nvmcaobYJ9ExJw50Nf9rjdE1Y2Ee5PU5d44aEwWstfOq6B9lz/4CI4639FvkD0gADmrKyKRCQ74DvY/9tfGVFIRzgAW/9fAt3wGRbKrgEGBQ7yBdQKZc26oXaWhBo8JIfkHQ5nHa+q3d6hykqsgWoES+vASXanBeSx/mWD8FQKDgBo+hUcxRjkmxl8mb0XKKe43AdQykCy0yACKKoiBABPVk6Qu0CVlauiblADWKNkTrHLUIiSKglSy7PPIVg1C7MByWyFAObUa1qZyXj1N5bQnNJ0A4cgY+r3XtCJBVOslQM4IANtlk0BVqTYdaQfGjDSMnBfzbuVIkK/Jr502BBuYNM6DegEPBGMgro4vpnAjYMucCiVIn1bt86tpvS0dpHQ5Y1M7pcrizxmTvvFs11APQ2D8UvTQVWyzlDHyg+aUd2GaONzA6WSStXRlnaQlyoV7AyjR7mWAk+Bb1DoJCqVxLXPUNOBAEkh335Rf4I6sggAt+yvlAMTABmChc5mv4C+kPbRN4AhHOeQs5ehqAACTIsavQJ3RyPF5Vkl9rwBxXEaLPJl90AAhAhrb2BQBE4gyG5S5oRlQTKkjtge/dH12JLmV0CAsQAY1y2ke+CFLL6IAUa2n125pxhg5lisJCcWm3JXYV96UIKcgsEDyyjZ/X+jpHYK5OqdDQsl/LwNQbVBXO+M3CzSNHaw0KWk7bPaTj5KdFd/RbZMfRqB7HHgDYdEkBIroZcwjksA2q0Dmdz9e+EcjOYDeBQ0ELoOh1C7vqeuy++Sv/75ocK/vHCZtTxYLmHxhkqzlqEX4PfuOgpZD4E+9SxnyKugL2PAA7i53nioxvvvk1eHFqwyyc3iquzm5rD/vNP7DR7ilF4RoAAkCi7QGXfSN939FPARBaKw+pWYKCpqlu4BaBM3FdkwBDeSZQjkmdAXQoomDg3IfztSOWZSqMDVoSzY9KAg5MbjusobdQWEe+SjEQSLSttopwpBlU5KqXAArUSqiByKBNoZ3V5D6/BVo9ckw+r/U+RqBIkXEFsBUjAgdkFJiVsqtgt4jxFgfxUm9XgEC3/bkvcM/52yLZdwA1PdcGQQHnoq4HMAAgRJ85BHrONty78dr7mKnXbwXZMJ4cYMsb96RkZp2Hz+wwu0zORPiui5WymgHI4x8wB1IQ5lc6wMqUGJ/p/JMZMtnSZECB88Y2zaWw/AAWuf1Xsp/kS4GkOgaphrZnpgsBEe/GAfvRxm9dBzgFYLASrWZ67VVNTwEQoEIoVF5JFfF86tatAMHEARscPyEx2VgBxkBkwcChjwgXowIYKDZR4SyfRtikE+Qs0VyWHXLUaK/2kD9KJUOi7QXvvgCBpT3uZT+Gtvm1RphhnkYzRdPnhPuziPGo2fm8To/7Vh/k0efkVJ4fWF33rYhleOSoaQ9Zp4sB/XTcHiYe2awdgIKoFN0rEpVmpOPsi8p3ej939nxkm5/t2uwjp2r/AzIggIpFmo7/EvDr9/ZSUHSI1VHvxemKyFH5giIrJLCr5hr4k3bIKZtTdVz+zCl777jq23p3XGmQGIKA7UxL6MMKOP2M2R4AACAASURBVCajEBsQW00eAQ3ARWpYKhuj0L3mMunXlIWnAAgUWf4KUhOtt81u6+j3RiQmBcpTTaqAZKLJAId7mNSu3TGte4dcCWtC5ndCxzlz1nvza5eEgqJRMoU0inIYYVGP6lerGXqmgZSHTUHawc/vqrX1Qw5MQaViGst/Pl+fI3DvCETnq39B45M7jrad7uZeEK1TP1o36kOORxEYoGKJGnuB2hYIKDTDutFt+qJQUSTKtkgNCkJcg17pD91Jr+8dp6/tfDZW5b/iPKALs1Q9wF6Q6FoKSNHxNqqTwpVCEOWzdZhd86vQVC2Y47EJovse6mTO2UxzqlZAzYEUBHtqvq1+cEyAthSteZtptK29W5K7AMKWP5qp3vrfd6UrXps9OIGYbya3/EGlFEWIPRDFm9S9gGDtdhOJUlRZSpg4UejScEGdnD/aiCExcX63fhX6bNfE8lqoKY7XqgaCKnI62ghaHiOqIfSTsmWgM9IrJVcbJpvgO/1RdKMIs6ecTeQ80zcfVGTeZbNnhLHO1cqEZZQyUGQ+A/uWnZtAOflq9Y7/5YXV62hvMnWvvq791YZZR+R/jgA9LBctmvQdPcQi+N/3GA7pP79hEjgHDkdE59kaKslVn0thsgVFgW853h/l3itjyYYAaUCXpa0i+7mfzSrvW/0sQndtLKm0quBLQaDiUnNr9QDw4NrpDLus7gAYaDdTssmes+uidzbeX6koBYr2upFW8rnnpLzk7I+28W8x108BEKB7Cm4VA7R37ytBmrTOlsHOOK+CEPLLgEQ3odQAiR79em875/mURSEN4Xb/8mrQs5xZj1OmKI4NPTseWwLooEwpCEMomrOet+JMSlU+7hHPMThyLD7ytaacmaeMIFlslUrRS3Lq/0Db0c5271iuAME6bluNkzf5erRutOneSHFPW9xDBMmRS/lh7tQOaR/ZFlT4znGMvny1avEep41lUFkfA4ihk8rEMlRMuac9X/uxk44PwEnZ2gRILYB6raJzv18TLacf3q0okfrFlrJn5jTAjCWy+kD6GSss5SCNxMm3PLxtmgFJwMA1FAqqV8AWkQ3fewlC1c5gnshFT3tMdwPrnwDhnUg9CrC1ypYc3fuahnc6+657aeJXUiZDmHNGZV26xt4+9FjTjFepDvfZchpr/szxhF4NhSU3nt0g5SDKsu2o1RrzWke3f29/n/n4AOWkMcuBRjdyfrFXIlx/j3S41453AIHBlZ4jP9qpHkZ0F9CcDMjRoMZYuT5QIu8sksQucgjoY+vd0c2ciKjR+ngRp/1BAGb1O54o6nyOyvI1RW4o7PlkxhkVXzs+X+txa4Bl3BUIcsSeIYPSd4y5kXv3d+nV03QtleWond9zGMiA9JC0lmWp6sDm8tNVn1pJkL2vuNb/ZFmhqj9sE9AboFD06J6KCbERjo91eAYb+RQMAqFC+6CT0Fb3vorGoim3DFgGLpS6RdfXjmnw1+PvbWvnh6bn9aeAzs9bDsh1FDSK8hh2Yyo/qO9ysVZfVMGdAhzV9s/r/O8IBNwYP0VWilsZQGPOmKLJ//mf//nEljGs5hI4tsubFNdbrz4pQvfOsWonAwoglK6a6ZBHGFGAxHpzOzRiDzBi0m+AgvQAAGANvLwyebe6h6xLKQAUljNqq/+1W9SZzsxCupzJI/rwrDqR3cRWYpOwMtgc3wMN7LjCbkzASw+0C3DQF8xQdt9ctPdBy70dO1nP2hDYnkBvgvIJatpMy/1sq23FBNCZDNhuWd2DejjL7Z/FRj4FQEChQ/cETY7/6IjkWZV19osCWLUhUgIGbC7CuKLjFD1SMFSbCuFSGF/DuNzbxyKV1YlMA5eBEr1a7oUqFalEaxr7ouIcVI+9JvuiWpGMJbVtDtYcvbbzAmLc04od6SlFsQr/qgqfBvjWsc1ZOz+wgRo2Nh6iIzWmANHL/QAEoNfYoJoVEKspIPM2a2qDntI5HrRmeaPo0/nX0N239uVrOi/wa/4s3VM35W+umFKvZV7MwSXZdR3BnPQC5tP8W7VgPgGNo/1AckcepGJtSMffYJr0IdYWMAFYtCXdTVY/2nw/BUBgWOWZFD+1CdBHm4i3bi+l9LAQERODSgkoHccj+uoBUza5sQ3pp9G8PGMz1VTUYtzQkxXoRW0qsrVpkCiKoQEARFAKZKV3fObcGD65VPIuJ8qQMk4cpGM5Y7v9ub5rH/1QsEu91jcRvLa6tyhL3U3tiOG6dJ1zv8/ozzExFmptgJJWGqB7VbP7TrEtwKvgGBUMFNjfRBSogLIIEyXNsCtGM6bN36es3zpb/3teINg7EGl1QakbTpTDxZYJ9K7dVriiRrVXnmtg22v2S7rtaHCgJwHI+W7/DMWR0g9sqN/IOplXfCnlPQu8L4Ge+0f62Cs8BUAgXHJW7Wr2COE4dtjf39UINgZB4ZZCLXUI9sdnZC0NgpYZVWOrJgGV9vl6eQRKVXGaXgwhMCu6VfzEIIqkFNZy/MCBXKqNXeRNyTRjN6PursXoAAXVhsjnisbMD/ZB7j9j9drzBOgw1Ghi4NI4tJzxKANZjhhIch/pMePJMNst1GoJKQW1NMBtVe1SDMBVe5XIfSuitDsqUFPOuZ1JP23JMdITe+BdYaL0jegbWAMaLH21gkTaR4EotuelsQ+8BRKAUnPvew7a/1YqPOpVf4B5wADragOwWA0An2xiN3rwVzrwqDY94rpPARBED5TeNpse0PSp1PtFhZCjVT2gBguj3kBeFuXNeHoqmWhLvpuxVajz+bo8AqUYGEVLR6UB1BcAC4wIGlIKR1QFDIieenR3BgUQYPRcywNorEgB0rzMhQgKuDB/ImhGC5izskc+9jVf+uGemCeGfqaj1sLYW9vVag73wnpxNDELxk/NhrGVC5ZykIbxvygTiIoRwDhaf692o+LDis9iOtzrres6bh2n93aeMTWeZFcaiA0hv0Xk7Dg7NDcIeqkPcykr+Sd3ReuxQkeOwaxJqC9zRYvUIBZDEIDxo6d+B1zU4rzVI5vvGYOnAAiQmglBW3kIzCdA2C8SkDgQYB96ToaDYRjteOdhKorjRGZyhAyqaG3Sbvvv+PHPKFqoAGpGyhkTxoJTN66cpfy36nnOG1tQDr2HijkPgGA0GRbgABVr106sgohEPl0O3bHSPUCxolLbbHPMzuvZJCrz6UZPGDxaN6KOqwGQ/7Uaxjv24CjGYEoLx+C+cr2YLn3i6G24Y2txD0MDmqQMFLxJLahPUrioPZap2TJduuGtWJaPJv3GKbAU0EuWys0HaJOJtY8BOykfKTVFtpgCsgPstQS88z5aakc/AFJ1N3QYK2iFjAd5eQGyZNarIsZWHt2benuUPD0FQGCYoUcUoQjhtfOuj5qc17wu4VbNjeojrJwXqhoFa4Mn7IzozG/eAYV2DXuEE3jNvt96L06YrJVKqJCQoRQ9cEIe9OV7aRsGgrMvZdD4AVsMhXSBc1VDS5up92A4OTkFc2h7m8BYN24JqmOBOWkgK3hsG6w+wX28Ayfmyw6b5rENvG7t79Z5MSQZOCAdW6L/FVIeeT/Xci+V5PK7wJl+G18ACuOFppbm+PM///MTGAOojJe5Mh9ARDUG79UwHz1m914vWUfd03/zXmX/uuHVOXsQcLCXhHP/8R//8ST3wKQ9BRRES2di1V6b+bp3fJxPV8k8fQNOezS0re+lTwSyQCy7ULFxqyCM53sERE8BEAyuoiSTI3L4fI7AbeKurkCRG5rMrnKobjuUEW6omFHmACy/U5yTkf1aAUI0I2VnDDhs7wrj1HIwflJfnJK6Aq9JV/eMArvz2XbW7n1kuPX56hRcQyGijWSwAfKcDCqnR+599jx798YUcJBynrbL9pK2QLWj+znIRxkhbQF0gHSMk3aRn0fczxJFBthYAQVW3tjxUDU5UOSFzq0innxyOsbABjnGXdvmXiG3aczXc1asjfm0gRBbIA3Zw45iz0rVbNkE+gJgKKbFIkgPOd6c2ZdCQavH0ZsjbMJHe5UqAQToAgZBn9XH6Kt+sZ36iPmimwHeR+jJEeP3FACB8EKcJoPj+ojCdcRk3nsNlDAn5eE0ogQRmMiUQCv6avtZhtk4O+Zrfs3NVEQPcqqcO3qRM/7pT396otujEctX+r9zGQbG0XHSY4BAbIBljoCvtIIcq1oFlffqGETEDBInyDn6LNcuJWRDIqADI/HjH//4lNboaYVHg+eMIt0T/fUUUUxJhX5Hyoixk7/GdBkbqS9GF0Oi4NP6emOrz6JU7ZJ2wYYBUDm6li8GFo5s4zNeq+jfeElFKsoz95xcK2bMt7lRHLq+qhcgIwIO4FehonmYzFtpi484L40R/adntngGTMkjNhDjpeYCEMLIGgv1FhNMvbdg6ykAAmGk/Iy0SfkECPtNFBTPuQEHUgpqEAi1d8V1IlMP2IGMOR6Oqdz7uZzj2gqGIEq6SKP8ZceuOfIouH6fCpQRif7c3+t9Z1QI56zaWT72Rz/60WmcfK8qXiFWjwHWTm0klyIoEb7xVBBqHES+UjqoSGkEx8ip2+pXhKZ4i2xjI6QUAA/nAyEK8mzSglZ3fw6aAf7Lv/zLU54XWMAGufYjopRp3BWwYqAqGDuqwK/niWi/6AxLYYzUXqiLsZzMZkwYFuwFAAswOIaB9khndQdzF8Q587N4MnksDeR9Mg1T1mfRGqfQ8tTSFh373oz+Pqn/9ugALfZGXl1KwFwYc7INKBhHzILVZFvg0PhYQmpJoPoD+uEBe1JmQBzWpzqFZ0gT01nFiYphjZ/6hFbNCAawYOpjyOv6yPNrbeotc7nnnKcBCJCYSELu82uPbPcIQMdyYlYtWBJGWeUHRQmiV/vUc3qMLAOhsIhiz73TrzGCGd+Z980QZ2xXIDABxJaDq+r86OK7rTFsa9eWwnnn3BkA0b7/GUhOy6sxAabszmd8GQopB2kIY2wpqbYzGOpnOPLGpxqFeS3zI4/JqGLNGGfLuaJ4MRCMkvuhgDlJ+XhMwjkHeYu8dM6MmlDHnAY9JBtHAbdkwzuGRP+tl5frNf8iUf0lk5wOJseKBU6q7xjr2JNzshLYmXI2QWHz0Lz2m//bc8I11POUp59LVO8Z57c+N8etsBNTRcaMp/5aMoo+N98KZbE3q662HNBxUl6AhXlQOGpHReeqgVI/E8vzDKtHyIgdPQUFggB6Sy6lc7Fagi4M4twrxFxP8PmWc/80ACEGgcHuSWtvObAf7d6cHxDAaYlU0YQoMUsbVcpzgiJXm/BwSPKQVeBPB3au3ww5oaf0GY8VJccuuG5GYl07zJAwulXlV9wTjf/Icc9I5gAsa2LcyBxQYJtejoH8VaSnfZya6mVG9fvf//6J5UIxysMyijErjc0541AkW3FYx4mabb/se6sbzB8qk+H2Mq9qAh7hrKpuBwwAlpbARh3fC9zWAlByiJ7GbNnjwPUBIekvLJj/e7qrNAs5nv0OSK0Mgv+NbyDBccmZ7yvwnHMAdLR6wzsmR3EpB0mfkt1HALNHyvnWtY0LW+Ax8MAsFiE9VTiLMcNgGXNjtc47WQWU2Q8AmdNMd+kPUAfc2dY6PXsE4/Wa4xbDqZ+Au+JdhZhshP0fsI7AtNSuXWofVdR7T5+fBiD0uGXU1SNyn/cM8kc4l0ET4YrEfv7zn3+3xJEhFo0pVqTgKG9VyB5fHdK9hj1gcEUXiutchyFlVBkSzr5nD/R0Sca3BxJxtiLhHsfqfpwR4CJfP0HDo8dau8iX/d9F5gyffSKsJNCXdoVToITuZzQBAoZBysDe/44JyPYIcecyiHNlxFwlEhjo9+oYtEVaQhGUdIIUBFrdmKlZUAvgOnL13o82utqlTdJSInlGT1uOfOUwzL9iWTlcS20xWcABnReZKcwkU2pntEnQwC6QvUmDB0RrY8tK3WeCBL83XlWdd27jX3rCOGB/OErzLL9czcm9IOnIsbz1Wsbw7/7u707zrFAWIKS3gJk5MQ9+r7ZjvY/xkfIClNkOoNZ3AcBSOQUNz8AeGIM2cGI36KV0oXQMeSxtQ4bYMozttbtI3jqPe897GoAgqrUcDBLtqV0V0nmK21xGMitui94IaIh4a//sedzRRnbvpD3ieGgX3SW3LY3wT//0T6fKe5GxNfzGRGQmGkYRotT3vgAL0UfObha4da0ZPbtnBjvn6zgRCoBhzoGOdbfBve16ifXwW88R0DbtAZpQofKJdvEDBirUKpdoWaL1z/Ktoi39xhZ4d57XjGzX3PYl0DVpd1QlylJFP0odC4TNsLoBoAPIgBR6cLSzqh0euqN4jQORWz2KQVhBqFVK9oSQykkmovrTUd+n7zN1tQKDdD459D9ZEskCXpwgFiZHlvObTqyVK2wKMFKKAdMBJGR7Oufo8T9K1rcceuyQNgO0beQViwJYcfT24GAzOMDJAjauru0zRlKBLXm0LNWYAHTeOUZj6PMjnnb7qHF66brTluk/24ohMW62sccoALN009ha7WDH2mT+PdRhPAVASMAYJgY4Bw7Viqo4Os6GwudMZpVsBiYlpgAmB8prja/f1kKStxC6R92TAAMIGAQRKSOMBreronFQi4Bi9LoFIBg/Ea2iHDQ0584Q+KvYMUq35XjOEWEzHI7LIZgTxgatrmjypaVV94xXCF87khfRk2V1xqZK+gyp3DgWxlhpk/G0jbKHFrmWaKLCxSMdhTlDYRo/c1UUzxCpGxF5YxAY5UvA45bx0jeRoegZKA8ATQdxy3W3zsmJYBF66mgFgmSEo/H0UYWM+ttyxoBmqahWmky5MifR40W0xtPcFzG3NC3GRxtjHmyh3T4XvgeIpaGSW9fkED9CEfUEU4IFBczsgnluLNq500ZgpXKa85nyK22jkNbcKBqlH+aA3Cq0VVMihWn82jX0GQMxxbT2QZD2U0hM/jC2xlfQQ4esGqu26q1BwlMABAJI6RTAtAUwZVQUgoJWcdsyNDQoBCv3I7IL3U6En0C3d35LeWau+CiD916uQ1kVIKFqRT1AAMqQ0P7hH/7hqQLXA2/kGOXRe1renvar2ldxHsszndWM/tbvFeYVtXO+cvltgINB6PijnV/0ccpqH3+b8jD8mIMo5FIB5ImyM3htKhUDQb4yujEjRxhA1+SUGV7OTKrjT//0T0/zptgU/a6dIvtHPOEuXSEv7iVFpF9F8UcCoSKrybastSf95n3WyBQExNz03nFTjlemIYAIPMT6zPvEMJh7MiCdZCzMgRU/ZMX4uG7s5NHjskcPrzkWEDO2+oAlIFvSCdrPaWESMYoYKjajosz6FVDoHctgDxUgA9MU6FeYa8muIj5Fp+7h+s+SYphjXarLviYKPQULipSlBdk0rKO+GxNszHtIlT8FQKCgVc4qniunjVGA1kR1qmUVhaF5RFje0TzOlUu2RAt4INAmS+RXdEDxe8Z3TuEaJftIxxBeQECRGyRvqRJj712foX5ASRqHUdibYmBsAAwggfHkRKYRyNFE+zb2/ke72YeBUfIQItGw+eL00HMxEEePdykFbRchAQjYDxR+RWvGjcEDWBhSTwNUn6BNpboCEDmsmXe9t83GTb0BY6NNjC1AY5zQ4/LDAJZUh2jtaMPr/vqDNaB35sO46fOjCkcDbj2/onRGzntS4xM09jlQUNtX+cn5d3w1EFHrq9w2h0C0PSnIAEArPWc+OE8O0BK/wNPRYPZeOVrPD/TYd0OqBDOr5sP3GCn2UCBBB3uWxQQ9E0AZNwWl9J/dYD+MPfDBCZaTd1xj+wyFnVtjqo9qdKQWSkEYP6yBwAkb2AOe6NNbA8mnAQiEFX1XEQgBhNQ4JI4PNSz/BRjYalXUZVMV6/4ZfVQ6I48CdzyDKhKw7a2qaee55rPkx1bh1TdAipBC8lgW40FArTe3hE2hol0W0YClG641TJRB2sKafAZmFuPMXF3Xy0AxFJ5bgKpVxIOak+9EawJ42ildkeG9tj1bx01KvIjfd4y7tpMT/Q6MUnaRFeZFPlFbMFk5xvV6M3o9R7/P6HiORcWJHEsrQoowAC5G1317FgIaGCgGbgFjAE9a5GiDo73uxciJEP/lX/7lO0Znqy/3zM8cj8kATGe7ytLahnPje85hd/xL6ZLYL8AVjW7DJmAWA8eWGHOpMk5BxX+ApvTl0XNyyxhPma197B4gjvWzWicmRb0LOynFxkbMWpo1Yg4cy72zK2pI6D7bS4ctTwc2pIEVdwK51zrGmJ7qQNr23D17tgNm1AsY6TH29GbKifbHMPX5XJ9uGdvOqfaN/cPCYj/ZVAEpZrKNvfSDvrYEegWs97Rh77lPAxCgW0Jg8IvepBxUkXNqHD3HooJWNa2JUdwFKKBeAQTRMkRsYhwrh/mDH/zgtDTHMpQtOnLvgL/X4wknY8AoyINZhkRJ5B+tGACqbN5jDOTafd7zYoCkeoA0FDyHshrG1dDnpNUZSAlxjKJ0RkbFOsDQw6OOUOjul1Gj0Ay96nQKbe22SD2Ww/HGjdyJkCzfAh68bjX6tSEHOJ1JBobTJ7vWTwMH6Erg2LGOYQjJt+VT2AwRraI+hXNHpDXmvDPS5oahVxdCj762V86GLUENA5Jze20V6gp9jT2AKUWV7LSXwK3yctRYz4jfnAJ9wA1nSu6rBWIH7frJVgAIZG6LlZoV+hguwEnKS7Dh+upxAFiAljOkQ5gE6THFepd0qDF3XPeii+yMIIccSn2wHQosAw9qHaxuYfPVqLHvpd6ag3TwaLZNWwOagg7MIx/lM18DQBlfNU7YJp9nSupRgPslGXoKgAAlYgsIAwahPeDlyy018+AaObCKYgisPA9FJVwmwlI+UTKBR4NJT3iJUgkV0OA1abCjlPM9XMc4UHqRelXcwJRiL+yLinz0KQClOAnw2vOiGIAFQ8nBGeuKu+Y7JYgN8DnGpiJBVKe5khbCRpjzCsf2tGfr2JS3mgO5YysDGH0RU8V3GZKiDdeq6C1wcQuY7P7Oraguqt6YkUVGGVsBEHg5FiDQ5gwlUNN+74Bej4cGlI+mtt0f4JN6AiLlmL+2V86KkwOmG2Oya7WLNe92tzR3WEnAjl4F1o4At/eOeRE0GdQuT8S0uRZwwJGSR0BQ+zliesjmcmAt5Vvb4Di6IlVJ39uGWX/Jb5G8cZOecX1AHMi+Jm04a0UEhhytZcQCiHSJXtIP781TepKucs7Ai1VG0kLp39HbkqevdFV7elQ7++W+Ut/kQioQqDH2WL+ps68NJJ8CIJhwNJWqZkJGwAh0ERVBWHOiCdfMfYcY2yTFZPgMfQYMXqIa71XStzyfMtsEBcInsIyZ/LVCJNvnQva2QkUpysej3Pe8KJ18pogW+KJ8ohTGxXsOMccayOu9deg55Sqf28EwYLGnTeux0+DI21sm6IUqVvDq3tHCk0VYi+FS6L3OeLIH5E7+GhMg0pIKQ5uW7zdmogxOmbFBzzLkVooweJgWQIHhY8xRmI7d26ZrxhPbJr0gapYO+hpf5q4VCtkLD+TBqki7SDsE6kTTaOVqVN4LQAgcKBSUNiNfQDj51kZBgaJvkS958n16u1bbV6+RvQSUyKE6L46RPmGdqu9YHV/3fEmWcvgCGSyf+rPstGAGSLaSCDABbLSZ42XTAAoAh8/w2Ytu0yH9BFSO3nAv1qiVNVIsmFgbbAFRBWn0CQuCwZGKKUh6bXBgTJ4CIBAKNBEUSkh6AEYCn1Pxv4lQvCXyJBgEG+XEKWIKTGI7WgUYcloEiJIX4UZbmVgoWP45IegY93P9rgU9PgKZzuhz5tRMcg6sYyYLkpL5TW5R1KwoULQvX4pRsEwPukZryxWKLnqu+bXOwPVFTtgI7YvqE5VXj9CzNBS6tZFS2xtTEuNIwdHq+oA6t2VxiP/eJUHaqG1kiHJqh6hE3YP7zevP8T4p0pcvF4dinlObK8ZqHtzHUwfNgWWc7Q5IfgAWhhCboO/eRaw+q7Uh0xgPlK3rOF5hGONo3IG8o42MdjP8wCS5AEKe/VWqJ5ko+iaraqG8OBnsDWeLmSMf9Ef9Tpt+9fyCa5zho8e0oEigQIYU4kovYobIPfpbZKveB4MVU/IS7Z0+sXnYXCnBxs7qDtGyYnCpL6ygtGO6NMek6/Sb6xWNYwsUhGLXpIIFOYCAmjEAwBwJGKV2yKg5EuiwX4oFASArf6SgpSXUBbD/5ozu9AyPxr+2XKPvWwFIKUP9k17RXuCRbkotGCOMXwEPFqFC8WvtzJGy8hQAwWDK84n0FNMwqtOpmwzG3uTLWQMGBKXJat0twaC0lJxD4sjnZj0BjpY7lX/l2NyDcvUcCNePRrP0SYESlsNxXefIiXQ/aJNz8Fmqxf31CXCpbxSc0FN8yJWD7lHZlAIaJ7CUy2oGlLG9JFTXMv5qFNRwoEz3vCg1Z8jxt4yplQw5R9djQFrrPtkd4+Z41wHwzCNQWGX1LQq7tt99jRkwhDWRVhFFtbXxEfco4iJXFR6WkzX2jESPeTZvGADfi4JsRqT/oiN/jB5jIo9pvrAHisGkgbywPVZ/MMbmy4qeo2sQzB1QCVChd/fKxR4Zei/HTnBHDtkLTojs+GzeAFlpKfaIPhojzBm9M2dsEFtzSyrqEeOQrpEXDAHQifL2Iqe+U5sEiJrjS0HOBA6urT7DeWSZDhQV53CNn/GRykWrYxpigtcN07TJeP7kJz851Yp5sVlsLL211wCwzOZh36wKUKcDgNAZOo1dw5L0ADr2jV1howNL7COg7traOTdMO8JZAzeYCvcjJ229TE/VagFl2m7cs3+PmPuXrvkUAIFiolyhQgLhVdTsPTRK0BwrH8YZ9jQxE8BwmixOgHOFQCkGpOzlvArASl1UIVtVO6UhmBQAi8GYEyznMtKu6dyjqSvt0xb9kmKJtktJy+e1JXHo27gQeu1n2FRhu46xYORULwNeItqAlzFAnSo43PsKCPQ+HW6ft44pQpu0bYytCQAAIABJREFU/mRDjloS5ZqMjPoGSxopbAY8A7G3z/P4mcIwR67NSDDKigjVxQSaRFblUzl6hs13wIN0gmOBBI5GjQR6H7DxHAaf6YFjyDSKWwQnSrmXZVn7rw/qSjBO2KYeVHXPOL33cwN55pMj42SwbOW76ZWxUP/ElrAv7SIYYAAg2jDpCOB575jpE4fEeeoXR95uh9gEAFBaQOqNPbkENNdI2/WNhToY16NnAIGUJubJ8QEBfQH8MV+cuGJbq3TYV2Ns3wBFwUAGecMecPDsn3oztgyr5ViA2X1trMUeY3bc29JNu45Ke7LH6tGwmurRCjD10T3ci/6UEmqs72XjtId+Yr7pkcBNUKZPWFIFlMZFOgo7cmnM75WBrfOfAiBwWgSQsWTcbTNrYP/4j//4ROEQAMIln8vwiwzRryY42hwF6zdOlAMkEByEyA36RfMQUudC/oQoASZsrs8oy2+h0tFZJp2iUQrC1dbP1xTg7J1skYzcJhpeFErY3IeSqDrmiBgyiNReB1gAoEU+kDJFaznPZwYMHWq3LwYOVSqvbckch8bQ7XkFVioQmpFTAOASKp9GJ4AQCxQlt6dN67GMlbFCQbZiYaYWjjDk7c7J0DKM7hPQRLMCXuQWTSrFo6IbM2D83R8dK2qSO+XsgTrtBQLMvzk1t+QAuENnMyzAHlm+16htAQT5ZewSQ8ZAP/sroIcNoyOCAs61GgSyKFplI1DYihTRySJoc00GqpV6iaJ/zXHkrOTE2T6PeQdovLCjbKVl36J2MqrNewuDC5Y4azZZekwUz7Gj+AFkgITtIr/V+rgX24p5ASiMPZZAesL5InyrFVzPbwCy+ilLtrUdQwq80SNtYNOxIAV52aFpR6o1ar8SbZFucI0A9hHMj/ZK62K+yQYdZ5vpqVVaxkVfABqfj7jnXpl6GoAQ+mTQIUz5pYrtoENFbQpQULaUANVuMkRnUCZ6niBAoxSaUyeshEwOWvRPQZzvBdkyytAfY8xgMxYMPIF0LUYDZYa6KrdNgG8pSsqJVhiUoa+IMoDguJ6YpkhHW1BxFRwZJ+0knIRP9MnZ2xmRYfC7PgBbxhKS51ycgzJ1HZEoQLX3NXPw1UlMUDBTDV274+bxM6q/x+G5TsaewQagOFz0HoDnNQsQ9wKEjH/Axjunwthwqpx3wEZth3qHv/iLvzhVjwMQIiJRm7oDkQ+a1HzJl4o0GLyesGd+FDKKlEQ9HFHsGRbM/KJMj166pf3aQh7oA8D50V7JpXZX3Ny8xMals/WXg+JEAWYBgvTltynG31GRchp786gOgd3AJnBwCk8BcPIGRLwVQEj2Y+XIEXsBDJDDHiLGJmCH2AiBQuOzV++McQ6XrXIv8ur+NvUSVLk2G40pA1YAY6kOOuNFdsk8kAJw6YPUmhQb2XM9QZwaIjLfknUOWIAkXQpcs82uwS+4N4DtWu7P3guOHCdd64+e8hfYBWxGKeK99mDVC9eh1x72ppaKXgsaFHLzEwJQYEhNiKDsLWpVngIgrAPf+nWIj1BBpJyaCB5FS7nVJKByCATlYDxF0sAAIQUUCCNqTUWp4hERmRd2gVGQK5KfIlgm00thGcUn1HJpEDNjwCi0H/6lSHkrSksoMyhtqpGiAigMUPf2vWgY8OlRxMZFezkLSoOiVpVMKLEuwA90T4FU1wJJVgkYQzlIaNe1jKUo96O/Ws5oTEUWohEOmqJ63UvpkYsAHIdN2TFcoh0vxoZ8oTmBVkbTHJgX8gUkGG9GqqflSS8AEyIZqR8y5R6BGYZRequ0kS2YRSSMoTZcyh3vndMcpgjnb//2b09M20d7le4JDOoTNoDet2cBo80hyG+bE7VG2EeRHpYAeGtzHucz6lIvxoQeGncAG5Brq3dz9FYAIdaVjPvMVgloyJRxaN8RwIDtEaWvSzP3zHP9LNARWLG17mkc6QIGl+NXHClNwG6TKxE0dgybSYe0j746Hw3vPDrkd8EQB6/NlrYDGwAzOwz0sOGuqS5MW7b2GaiNriEwdLy5AySMj6CJzNxrH9xHuiU7ACTRazKj7kuawTECFz4q0Lpn3O899ikBQgVxnDzKn3AQKs4SRWvi7XstT0g45RE5WBPBuJogCi1yQwGLBAggoRAtcY4EkXGgXKhg6JJBZ9wdh4XwHWpO9EDQRBko4L2v0G1Oq+I2Bp/Qux/g0xPk3Ef7gCD9gIYhUqhcXpvz52QUvemLiJZTBAKkSVrWZzx6NLN7FpnKyXF0H/1FDoydXD0l5ZzJQ0h9b5S0BexcHwVtWaixnYWZoh4MDyZH9MOgSeMwRgyf6A0T5nvjnzMiD62gkcPEZqmpAQawWZMGTVZ6v7dPW32kEyrJpfAwTB/tRQ6Mjyp2ESgWRLqJDrMLdIxs+OOEjLcA4F//9V9Phpye07V2lDTnAINzATrnu55rK6wVzb51DUKyz0GKYFuiym6wZ1KpXuwbJtV3BTaB3r3zPBk15wIdUp5kRv2YcZU2AJqNHVAsoJESwIwZS6wNfeAwMWwAMnvN4WMDMAPaywewb8ADYIcpZrcEUX4rjRALMAOw+hXrIbjDorCLAKKgqmXXe8dgPR4Qw4Kw09Is9NmLjOg720Ru2Iq32MX3KQFCeW6Tb1JR5hTSxHKEHGRLw+R+RAuED5rl0NG4pSkYCRS7a0GvKDhCLeLmoKE8Sm9vAMwC44CiFn1DwIAI9EuQpRq2dhC8Rsgol34RIsaGA3HtllMCJ4AOR6PYBk1YlE/RoF9RKjBAyLURADI2omZRkDXsIiXfR3VhG7AImAUK44/CAhMf/dWSVYaJsRe9SC0YU8b+3qfukQXRkDEG2syBseb0GQKGmdMB7MiY+RJFAJMMBnqa8yFXUhKMpLYBoSJUzABZLf1yLoUz5+neqGdrzsmDKAvTAeB8tFcMjCgaKOYkzQPdx/bIYwNf2ARBBhYA0GJb6AUqm961isF8iHpFueZEHRJ9ZQM4ME4BgHjLVQwtN+xJjWqP2EX91VcgVWDEpgC2KPaZirkFaJaemPIKEAjg3JtTVMdivI0ru6N9QC8AD4RhdTAvHD9gqh3ssnFVdC7C136Agy13Lt1Sk1CdQWnadcvlVW4xQvSQ7eWoyTbwTT+18d4Ug/sBmgAAdpu9wRzyRfS0zfywglJTe+s+jtDDpwQIBoYwtobeul1oDACQSjAZHBxDYNAJIhQLeUKvJh7zIKoISVcMpljGxAEcDDbjLkel2Ab1ZGIZEeiYkSAAkK0osud+7zXSUV7etREzQqE5cYqrr/J1qE99oQCo3uhD/dUnBg7apoTazWjpn75wVIAP1K3fHBhqlCKKDFGNvqcwcqof0RGQi1nnwEgyTBwwY9gmPwzhPYWkRUoAomuTQ3Qo9kY0YqwZAjKDmWLI1MFwUBVZqQEpvVVbAFEsArYg5ihZmgWcq2EgH3NVzxGGY0ZZ5JycAKn6kbx2z1lH0hxkXM9R7C9R7/O3Wyj6daxalQAoAvNkgv6io+kKh0M2gEY6Zy5R4MAbPdAXDJ7IlD62TI6uYBzYHulIMqZwkWN662WO2qoN1WfRaX0FWul5S6TZC/JarYL5K9reI0crJd8cNH/GHED2Px0AVIA1gZfaAexOSyzNA0YDMOjZJz4L2kT6WAYpDKBCINTS8/RgBTdTXutT3+VLnIMFZB/VDQgw7wUIxoA9oNd8iBdQQsasSHJ99WRkBmsyd+ncM/b3HPu0AGEOCsFAlUOVcj4cnypxy1xEcz30hiEwaT3UAyIFICgLSktKgtJDj5x9O6Mx0uWHCGxr3EOqQAKDLmpoD4W9kxbinyg4JdZmkT60jyJXMEbwKLe2AALaAE1jFhTEQOIMl6hW9IyVUIEuInUvSJwjgpgZDgKqP1Iwijsp8Ud7BQ4qTDQm+qxfnJvxuecVJUkeSt+UmlGhbZxFlaIm9S5AF3Cmetm5ChIBM0YOcMBOGX+7FKqnkRYKECRbe8HmPf3bOpdukTfGm0yJhlovnhOIkl6BSkzfNMpbRjeA0fytBr77TPAxQcB6zSLZeV+fAThMT0BRYbOUYDpXagegwwSiqzk2cwYYuWebrPkfmBPZmk96ab69m3N/b8kgcEjY055yaxUKcIPdSEYFEdJfR9HpL8meOWGDBCyCHLKPWci2Am5sF/sksNMuThqjC0iz2QCCIIeTFUhVH8a+VyB5j/ybd4GXugas0L2PYyYvgjd7L7iuLewBbewN2ZG2w2gCS1IumOHXfn01ACHamABC/QSOYUZlof7bI2BGNrMoxPeU3x9hFEG0ExpHTeFEioTTeYxYTyXDHgAOQEXGc89Eu14GD5PBuBAWxitjx/lgKtoTgDADPOhtkSojjmEAjvxflByyn1HeLNKhBCg9zlOfKR06+ej19HvG49ZjW2LYHHPCKH9RitTTLbTpCkSNJzAp+iQPIkeGjRGQxhEtMMyYBdGBWg7On2Oq0FWERLYAA7+LWOdeD8nXEYVSt45l52mDlBW2BLOFHs2RV/kfIPO/yJXspFuTdl4ddtHlXEmyxRgku1t96fip1x03vwvItSlWYKb6BHowKfauMZmZnvWCghaImF8ODHhn7M2lOQY83hogsAGtOCkfX4Gzfsrpq4/pOQz3OsNLcjYZBXNWbUH7g3Ck1Zb5nQ0W5GEJsD3Sor4XvGENsB7mxnWTx3vBtKDL/Hm3UiJm4lLfzv2ubVJTAKYCUClgQQKAhnnCkgjUBLJkqhVwt97vlvO+GoBQhXHV/ykF501ZoNW2+gxMQNM+c+4Ej0MWQbdRCMELnTIo/bWpkusRaoYegHCvW6nrDBVAwwFpC1qwJ5FJn1juUxpCYSRH5Fi5dfQYhAqBO5aR9scR6R9mQ19bf2y89K2q+HZiNG63FindIqBHnpND1X5jgHEBtDAk+ncvZaitCkJFj+RMpKOOoOinh365HxmRUlB8JHLDDnAkPnMs2K52rMtpRe2ei6SPHKtrr0W+ORIrW0R92qhvAW7/G3egRxpM3l79BOcUyCZnE3BWJDrTQYHWSf06LlC3AgD3rFI/gDJBjd+10TGBe4yS/9uXgv77H3jj0NtAJ5aAbuhDO64C0pgjEaDx0C/gSTQIoNN9c9s272/JIOg/QMe5qqHggDGc5sH8sBcc0mSsrpWJW4+b89TcezcHomhtxcBwloI6c0Jf/I/t5LT1yZbQAcPSotp0r34bM+kL98ByAP33vPSXLRDYkSFtFbBIb1s+CySQbzZbMNumfffcc++5XwVAMCgZWZ8Jj8mez1Kg9B0zI6AZ1YRGO4/y5HS8zzXm05CpF2A0RQ4VFe6dKPf2B02ip322LC6AAolyTKJNa2ahTyswUHFoX3+iZEWI0W0UpvYXHU1DHAIvElyjsb19eOvjm3f9AqBQ/SIUY+a7vRHGLIZ17VIWDJVIAIsDfIpyAAfryBXKcqSWw6JwsRdymqIS6Q75VsDFK3rV50mRFjEHGN5yXPWbgwWGMVacjP9nvrciwPTDb16l66RfVHKLogBfumg+XIdTliv32Ri14Y7fGUzgtmepuCY94zhEoECgcwIrzb/7u05/Ra+B40BHzF3fN97a51zX9Vr1xP+Ag0JHx9JL7Zcnxxz5DHy0o+q9zNUt81/KMsfp//pkXKeDfu32teJm9iv71264QBYdUmvAmfoztuyc4Mb460/Mxxb7s3fcjEkPnFN/0sPc9l5nHo9VtLoMKwssYJ7YaAXI+sNmACL6+ogdeC+1/asBCJcG4ujfMzqMUUaPwSo62otmM7LTiPU8CUojR0WQCJmKd/k4f6p3FVVyOoRbEVIU9dF9fu/XK5qVK+e0GW4gSiQXCNrTh4wo9kn0KPISXTBwxl46Rm5X1KzGwT4SznFP84VaJA/mUe5UPltbZgS9V072tP+IY3MsnLzP+s6QiT4BYyAAM9KOjsYIkNJ/zlvkmqMl2xUWe++piD0rJSNP3n0HDBjPlq2V1nOctnAO2sBZmCN/wIb2qb3BBmqD/8mEc2xs1qPdXVcU5xoKMQMbqud7CJO2YBjoHRkAWLQNSNQ+dQ36LMJVyNjzWYCYyVq993k+QlaOvkbBTDpUSncrwDvi3q6LDbISjA4LLO55uZ60k1QJNhirZvUbBgoThVnAOKljwZ68NlA7gcdvJo93T28/z/1uBKbgioAYT3+osCKOvcMFFVcw6DNjKs/GCPpDExIk632h27bnRO1yRBgG64AJeFHD3jZ89OM5KWOoqImxttoEC5Pj2Wukqzfh1AECKYGAoSVbHJD0kgIky2ZRnwAbAwMMiBwoPSBhz4PqQshP7MHeNr32HMUG6J+UCnnnUDEzACsWhSHVN2wWR1lkLjoS+SmixaRw4OoxsC5WFanjsGrI/4ogXRvF3FNTAQ9jLhfM0KKbARPjK+JSbyNC89JO82BFE+OrYLD6AXqpdgLrI8oHaoAYtUqobcYbaHANEStgSfek74AbaSQ1GJaiWSWlz+p9YvfoHYeCKnYOINLDhJrf9z7Pry1X195v2lrnHMEUnLu3eRPVqykiM0DmPS/XI3fqDMgsOSLjZAeAFsxJTVlWSwZjcO+5595zPwHC3hG78vgElVPCIKhGtQoio7THIJQGwECooC1Hio5uAxMrFjgfQkToFOpwMhygilvtYMBVaN+a5riy6+/2MGNjnDgfRl5k3+Yjt7AqGSepI47MuKodYEBaxob+tgmNvCLH6TfRJhrRvTEMKpcBl1mIeETV9WtMhDFoNQ2HzaBhS8gsJ6woWL8AKCmVjDiHChyImtTIcPo5WqkWTpaOAFLGCAiwMyHZBsxE7XSBI1cIaqUAZ61YzRJSoANdq31AcpuhSeeoxQnYoPqBFrUgnLi6EOcAkdbgqyGgZ6VSLIVkvOmUVQxy0cCC42OP9Mn8Y+yskqKv2CN91q42SiqV8rUC9nvlszTWrD95ZPqNDQUyS1/dW7ip/UA0efKyWy+dwaqRKXUW5E7dg2DmFht17xh/AoR7R3Dj/Ll8Cy0pqhDpiIJuMQYzF1pRFeGcz5MX+WAP5A/tz8CgckIiK8cRbgZKbus9VL8/YNh/65Ih7t45Mo4C+ucQbDhUyubaFMNE8c2L6BLlLCLmVOSeLavlCOTWORPOTDQrAhZFor1F2W3MFKCcc7MHRL7GeG7do3aX0+akLVcjZ+oRAGI0Peq0NevyrcaCceSUjQUnjUZVJW781DMABPRGgbAIqqetkm/HubaKb8BCOwA/Y0v2OW477XHUAAdjixHgxCuI1NaeVsqBq90x5gCB6yoIxnoEJuxjoPgQC+ez8wEKwIhMuR/mAojADrmOwlT3JmdAaakV7TIepZPeav4+8n3TxcB0gGGtB7u1jzNV4TPAaW8GgRh7e6t+1m5pJkFDz30RsFieSXf4DfbE3hBYNXsjXGujbu3v1nmfAOHI0fyfa7V0i/JDm6JLBkc0cQ8KRMGiPL1z+Ayf1AVDRYCsC2aA3M/6ZhQrkMBZqTRnHIvibhXuBwzXwy4Z3R8o46j135IzbMreosRJZzbHlFj0ip6Wx65Q1HxgC0SgKHLFpXbmk5vm8DhRS8l6uXaGbY2IHjZAD7hwhWHYLkvkOEdO1EY3ImY6QBY5eDsvYlhE32jWUhKOi8qnQ5g3IMy1RVdSNVgBm525lvECEqQ51ASY51b0WOZr9QSdaBvtHpYEoKkal5qwN4h7AJEiNlG/Nmmf9gB72gmAA5dACIeBDsYk2BuEHppbDssxwKFVRlgDrJG258T0T1FmgPBr0MejxW3qozE3hgGuIxi4itJdC/WPvaLL7CiZvoVBmG0GZqXfBJAAB7tEJwBqIAEIlWYQ2LEx9/iOW8f+EyDcOnIvnDfLOjgN0WMPHbkleo8mJTTqCwim6zBSnL+cKWpbVb4NjRhlBS6OZzTbAUx0qy23sBgPGKaHXzKkXgQI+as9ALLkg28BCNN5o7oBA3Q3xeYIpJMsWcTcGHsOiMKLOjk1zkbU7DzXMpdtRFMUPqvoo0w/2pyh/o0/B0oHfOaAOWs7jmJc1Aswior+RPUcuDFwrLy9VIU0hGOMHfAL8Iq0OGMRuzkwXnL68+U7865wkHGnK47tiYDG1VwAAu5XQWS663h9EOU7j7OYW/M6Tluxc9pCnhwvZdE13ItuOq9VCxUWW8kC3H8yCLebgVY7zLqDGfXffuVvz8xuuD49lppiVzn2mQ7cc59ZvM4mCCTcx3UFDZ7tobAV+BTEsFfAp9UZbwEiPwHCntm98tgJEAiTqBX9j668ZYMh1xM9hYoJJ6PFaDK2BAf1JeJBd8qT+V/el4ESEcnzMtQit7dAolcO3aGHpYzeASm5YVQ2BbznscfNL7Bm9YH/pSvcgwNwvxw6B9NOmr6vYl/UynGRB8VOqHTFiqIJL3OsjTOl8RFAAjll8OZW0CJ1zw0hr+RRhI9RUSejRsE59W0uHW7+yHfgyZhYUgkEu1ZgihPGqnVO3/c8DfduY5t2QDW22unaAYTu457aUtsCLgEM51aEWJrKMdrknGTE9d3PfJt7Y2Opq7oK57Xa4lDB/0ouFhvTnBtzQFFa54g0Q0srWwVGRgBcNpTumtM9r5XRVFTOXksrqN2xmsEWy4oSMUxqmwBP6StytDeg2dO2c8d+AoQjRnHjGlFJqFXLnERCBCDDtRcNtgtgRrbru/UEAYSQI1SM517uq8CFkSLols34/i2WzDxoqM9etsjCWDHIFBGVJ6r13V6QkOM3duYB6qfIxralduZV1MrRo5gZK3Q7h+iFggYk5OcZmRwRgxZwcw5DoeAOI1E7H1mhfdTcNEb6wqDpYwyJlTTGxYoFTnLdAMpYqEcwftJoUgGccI/l9lm+1vwZW1uhG0dj6hhpBLoACAAREwjn7NsRcVK9sXodrw857/TE9Zv39mawM6paAoacDGA0pCCwQ7EJmAN/sRCMf098zeDvtQVHzdVHvk7OFsukEBvot7ybfqtdwRa28d2t/QTeyKFULjkT0bOn5hI4uMWGkjHy5hpsseAA+yiVoGaFjfYbppdcSEFIF78VkHw4QCgC2jJu0+DeOonv8bzpmIAC1JR3wtVWs7Pdq4GYY0ZgFDyhVwlpERYjyghZtmWnPtXZljZyKLZdRnsTLsYTlavISwFVD9O5RrirTtfW2aeivWvmb42Au1bfX9OOW+c4w98DUTgqdN25Hclq02SAzM3se87DPEoVGHeOycZLIgLjPVmiHJHztKe12j4XlQIQ5odxE1FEU7ctt9y3lIXceytQ6tvc3OuRY3nrHKznaS/Z/LM/+7OTPAOzPcugZ2E05tiY+qnfM+c7dWam7VzfOEwmojmoyKvIsLTBKpNFpjnwjp8RXKmfmXJynRzAuR1T54Zt9fNRxWeNyy1pzaPm+9brzDou11gLETlRNT3qUwABoJt9tYTVuXL2AgI6FMBOv/3Ots3n4pTqKRBzLFAP0Kk/wQArYgUMJrjc27/2+VCQyz5b3qgI0TWBX/ZDn6xsUhALOND95G1lyFaZ29ueS8c/HCCYDIjbwDf4FN1A35rHudSpt/59OhrFiZyIR45akphBeSlqyEFRClQqIYFiOXffcXjy6PKfred2H4VW0grQpz/AQA7L0kZLaOyVILo5R1V1X9ExBRKhFcVFz9Y37eDIKsxqMxtz7VzUrva1nj9QsTU3WyDiiDlMmUQXxp4BoXT1/5xD1Z76l3OI2l6fpTHTBgzOBMKrkZuOyOfy5OVSi1pV6QMMKHiGpPOMp8I89SwMSVH6nJO9rMgR47z3Gs1LmyElIxOYTSaisUpntubNtQBmDETAgvxOcGCcyWYPLmv31GxU9SBkV+ToOCyBwjTFpf6AmpyL6wObig2BG3Pifw5LfYHrJz8TSEwG70jZJ7N0N7aCLPTsmLegp/fKxXp8QM3Y9VkfPbOguhTfi7zVW5l77BR7Zy4xcf7n3HOwZMCYt7x53rOdNfkmNoPjdn31Xa5T7VeAbi/zM22DZc+KDxXTelouZk36onSwpbtSmNLCAhDzyp5PRis51+/qY2bN0ks299q5eThAMBmUjAIlpDpLeGenrm3wRzguo6StqG1FWGgvxWvX0MQTYBRl5LQ4oejocpuuGVOBjoI4Ieoqwy3vEpmWYohK3RpLCkRRWpJmzgIJGbwMceh1TZvkNKPd9+bqjpxjbQCWgCNbVPfo2peUW/vlsylefawGpJx2c5BDrop6RqmzAG06AtdPRoo4HRsVn6Nsp8B2x1Q9rR3AmhoTlCrn5J7VNtxS43LkeF9zrWn45wN4tsBkYxGo0NcJEBpHMjrTCsbOfZovwNX/5jT59y5nrWCQIbYdNjBAVnougzmpkDFWoDoF1/PyfYAmMOM798aOcFDSIpxBdSXVMtzy8LZzYzztRp+B+Ld4TPA1cvDSMRP0xryxX5w2feg5MaJtq4Hm9szmT3Ru1QhdMcZSduqP1A9sjUfgUZ2Y9BeQTtYwEey338nOdMB7AYL+6otrWbFD3tkjYBLI8T22EDglh75ns7DCvdZ7kjuA0LltkX2uXdf4nnVOXg0g2FWuV5XHtz76+F7he/T5hLvJ8PwDm71gAVSoSg2sE7hVyewaJt2xjGi79vlfJOlVxEpZ7MRnSZ1rMW7+V/sAbWsDg8QAQqrn7ufaK3hrrHqYFUPs/jmi2ZdJvUVrcrSUtOPqS0ZWH+aGMUfOjTb0tDTRnv4HVkoVzPtNA6vdORfHxID1XYBtred4iTaeICFAkVNc8+ATZLqH+5sD0QYDJi2hLfaDt1pCv450NkfOwzrGOf3pqJuPDPBLkfVK68dE5Jy7brLnvWjab5wm8KyAuK2eu6bj6ICxtUSRkTa27Fe1Dq5n/TqHZf4cT86k+3raqqCIrmQH0lvV6JZeKlxuJYt23+Js1jnqXjOdpQ235ssfJQPXXHcCQ3Ue2FGrgQqKsASCL/PVg/gawwqFsYVWvTjHmLSqxDyaB+DasVJeVn9VK0I3HSMNJqhHoqObAAAgAElEQVQLvCeb3WfvnGXzpICt6MESYDmwFRhgy2UV9LLb7qlwUQpideyrzfV/u+uWhnOvQE+pNL+xt3teX379619/s7ejRVUp8aXzTTAGoUmvM2tjp4PZ04n3eGwV1fYikFtmSBgdQpqxquLbxAEO/nxHqU1wETjH4GWic8yctL9ZMKNOwVzYMEZhImMFoTJgrociZfC2jG9zQ2FmNBvqbYneZBdWqjc5KNoTtel3zzpwD30rMndtx5SKuCaHvkbinbOFjh2rfkN6pxqQ1bnM/6cBCCDMSMbYTLCzyt1WSuFI2WyOtE2UZJ20FBJjJvcqQupVRPsRqeW9Y8YQtuRwAi/OHy0bu6CgzVJgeuE4L1thW9OuWEwE1qoF5/Uy3oFy8ubcjG62MP0sOIhxwlAAD8CImhWRKTlhA8ybzZikv3oyYKA/sDOZk3mvLdtbnn6On814gONps7v23nF+5PETEDeWZBcNL7jCiJof1LzNg9jKS87ONdkXhcR25jT3IvLm0H0C9D67n3tgYKUsHvH0RPZaGkE6AcA0N7Zvlj7GjrDhbHaPrcaOaO9LvrEiaWPSK1tR4EGOsl8vzWPnfQeCehbD+sO5i6wCux7XdRp875cAwjmHdQl4PFJg77l2k6m6trXdhK+nQPo9OtnkziiyZVLl9BNm57TmOuNWhfdUqC9fvve9f/iHn52Kv6BUCmKpjD0QVFtHV21RVSmLc6awtR7c97MyWJuAF++ilHKg2tz68Wjf5EEOF1js/oyvfgR8XoocM3JbCHprvrSNgqnjsE++qG+V863/Xf8WgDDbcKkft8iXa3KGzbv/5SkxR+YGHYqqjGr0+zWg65a2vKdzAp6T2TL37SBqmRhH4zvjJ2qz2yFgkNzmtPWL7E7ASRYqTvN70Vl1OY3FmmYolZRe+Z8txP7YDhqIp5PaKZq11JWT4DQ4Esxac3jOFk7HcQkgXJqzR8jspXvO32fqhvOU+xfZsw1YWAWDpYjM16WNitLtfJZzgEZ7cEgrAWt+s1TcqhgpICsL2GA2+Whw3fwrKrdTqP086Kr0s1VnGA/yCaxiLvS5Wonq+HqYW0DW2JCV7HX6viULpZv2zMmJQZjO/NqTrxGmjrkEEC4hmo8GFIoiFBKij1BJnKxKd/vyV2Vt50OGwneeLkiA0UvoL7vwMVS2nRUF2zGO0BAGeU1GjoBhBf7gD/7gZGRy1gQeKFB9q9DNfUSaRVTnxjOjqB0Yg47refcc7SyOK2KmSNOgAj3OzemHgH2HenWNXgGEqezXgNX1mC0GQdRhLEVnANLMz5+L9pPZewHCtXq057ja1jp7/REVMHhy3D4zcAocAcFLBnTPvd/zsTnmivPIbk6W7vif4bU/iC2fOZkYAWNoXMlDuW5ymqH12wQIfovC7vG7W2Db+dqVc8rZVLcQLSy6VVvCGdBXumHbZ0vqpAMDF7M92evVBt8LEN5yjpsDjAuGQCqtwENdABsXWCpoulRvM8e/guDp9GfdQmCuYM24H+13zD1GWZ0YcAkECaCwBlJOQCzQIrXgM39RUIQJcuys96qeIVZ6ygNZmIsAphxf629P1/uP//iPE4mQUkSDX4o8DG6FP93QNShe1cB9fwkgRH9UDJTCc0z+LgnCWwr21r2rHTAeJpGjUlRm2QyDZTmiXbTkjlvmYixRT+hQztw8QJbybHLOqDUGUM6ZQMljicTtJW8drSiJIcQceLmv7Wedq0iRgwQQGKCtuc3hOlf7GcWMkznQHgAB9dqxlyj1jgu4uLb+Qc8pn9/M+9wUiPKs9SlkQpuMQeAjOtnxGfw5H8AVwGUMVD27hjEqdVP7yKv+TeNwDUBI/ot83Ns12j3vaAOTsciw9d4WxBgrYMF4kC+rHb4WkGAsyFZpIkDUeDC4cv6WGovMyL7jRG7Jb84gO5j8V4jqXQ1Cx/mdTZs7K7ZaoPsnWwIDx5O9gLTfyGushN+AamkIcoph0D7MkHaTxeY+cFAR5LSN1wAEukYHpr675qxhuSb4O9rmGgNpMmkzzlC/sGFWaXGM2dJpuy75qMDYCq4ay8BC/Y2Naa6O1l/jbq8MAR491TfpDC+MFlDbcvbAYsEVeSaDWynV2k1O8j3VUcwxwlYFapu/0k/9n41sM7Evv/zlL78J7XonQP6i6xqkBMqNNcSNTGJGtQiuGziuatEJEPwePVJjUR/uF6VWYzkPaP9oqudo4b50PWMBHKgNIADoRJE/itH+3mh3VbfGAGUs+oMgGXiFOUAAYWfoRIciDhGjKIPzsxROpb4NWEQdomYRifGkdJboqNImZKioSafW9hmRM6BRVr7nlLWt7+exDCC5qY6giCm0H2Mwz5mKF8rPuXonHzm2gEEFRhNBdy/jy1nrr3bon+NULmNw7P9AMf1W3nIqjuu4RlSd37YAQisItNH9AsL1x7vxuKUY6JIMnfs941YfPEHQQ8GMF9oUe4VK99LHIuZA5EdYFnlpbMy3QjOsmRdZV9SGPVMYjKEjz9kq88zG+W6uQgmkxhjM+zbOydbUG78Z27l0ju0y1lvr8MkJWQo4AKe+cw2GWWW+edQntLq+YMGm4yKjHI5+OJ9crwBBu2YNQjVBUejZbNdxvezv0Y5xa/4aR2PANkqtAEjaAdSj29tTZDry7EqyfEk23vL3CTiMKUDA5vMB6qLoqc9sNiZZQGgMMEie8TL9oXnODuc3J7Dxe7Ztgqk5lyvwy2ZkE1zfuAow0osvv/rVr75xYMoRuiqHR+gzplWgVxVbhOmc9RoEgLEEEgjpLFKsUt49OR0NWpc8cpqQI+G4hBTfUgiuuXeRiggcxcmhc1Y28oAmMQeAUOth7Vlgvbv9v+XhjIGH3EDUGAcUlBSE4pYeR6sK1vGQp3FjVOzz3d7vhMP9i5TXdl8DEEKV2j6FraWR5KOd7JKJVj+kLJMpSNZmNEOmpnOu/mHSZTm7rlVbKgwNBFnSJBrDrijO/E7ox9a9M3qshsIYVS3dtcs7U07yS97J7QQsZNn/RYavYWjXSFA7Fb1ZxdLzB9CagELzVlTy0YF3Mky/YgXsYU+vyA0GQV7ffM1amM6LTargt+8rpF0Nas4pWY62DtTGerF3ZDDZmOmGZDBw29p7cuW3IkDRnoI6+5o4VtBgK25sYGxvc0/Hut+Mlv3euHifBcPa7DpAg9fcs+Q15LbAQCBjUyBBpEI9rKoivdXuB548o4MzlbMXCL3nVwynNpojQICtt+GSQlm2n60HCNgo7JG0Mf+A7Sql0DyTc/LSZkut/jJf7FUBe8BvC+CuwLaaJvoS8znl/LTMcTXQoTsnBQaKsPwfjTbptIzOvHjbAhPOAEIOILailEYN17kE3rHPYMSMZ8yJz+hfDt5nRtzyFuiRE7M3PcfvmJbx2MNAJMHgeUwuQ8Lg+x7aRqMSLt8TNsLCWUormDcC5cXoRJWuoOsagOAabZ2bs2m+A0EEuB0YCTCgF5OUvGQwp3Oegtv57lV0lUHrGgEQ1wqoRh9X9CiixKpA5e1gGCjR3kCHPqRU5fd9N4HQLMB0nwrUOq+I0fdbCvpIQzYdWbl0lCVn6aW9ahNEJXZjnEzCRwffzR0HI6drzTo9QM2be0YvVmcuWy3KKpoXPTnWnLcRUjIX45aOBBD8nn2K9WpZYbK9Ne8z8vO5JcwVRwIYgRbr4a3AwbLqlweCSR1O1td8auMM5tIPfdeWVk7N87SVXsxnWjxSTtdrc45sXelQgQ/Ke/aneTIO0rNWoqipkop477JrbqsFEBhihjzlk/MnN1YdAX4YXrUX+u8cqdHGgL/NnmSz/M+xt7y3vXGa546fcpY8TDamQCtwEQM2beyX//qv/zqlGNycgM6cpRsRVk6lB85ER6RYQEBG180DEI73P4O5MgicV4VEBLcGxTqUVphA5DUF9+h7hSSjEb3/7Gc/OxkxkwgccPy2AebUfSf1UM6Scihmsi67zYqMKYdfnlSbi0Byms4nSKpmGTAbjPRwp1sBQlGJe81IuYioOXNfhq+K++hRQj0LHasrmLlUMpNirfLmmsmbd7/P7U/dP2etkBPrgoUJbBZtar82+T+queVC5K+NkiaDgPLt2QgroGo/hwl0X9uAzbZymLZu/fd///n3fvd3/++JSTFOUk427oluf+02Hq1bGTmFX/TIi8HtmQ4FLkXKbXYzAWmfA7fsYLS738hcMkF26Z3xpVd+y/mS9VYANRdkjCOer1imAIhjyaz70hsvAKEoG8iWblRrRC8EFCJtEWj1Eq1cmSuitMu8k9no59o10w0xEo+Ym3PXpHdYUYGOvVo8OyF2pQBVW80DKr7HcqvfEgQZw/cuuwVN9sf4vd/7vZNNkQrGfrBb9uLQN6yIJbCWPvIJ9Fbf23sln7oyOx0TU9/OirGd1ZsFsshse6V0rVhG8h2wKK17an+rGExk0eGszo0FgGAz7C6uMQS/ojXf6VBURYZXJyZA6DiTG5rJULtXWzC/prC+9r3018tYMUomzZJEICCDVoFNjiiFoEQMEfqJAxQZKkyMQm/8HE8gCKX6BoIQDblFIRYlaRs5mLuGrZsdaXs5Me1p6c0K6Kr2nts0V49SG8rlJ7gBjXZr7JoZ2pZZFqGFpOdujRQEALNXuzy0baoDZ1Guk/GqCMwxMRZkce7fEMgjs6VSvLepTqBsjsEKmvotI72O19a87JXNolvtwSwxSNooD2/jF+ON1vUUSq/GoXu/d6MbY9A8aK8iYPsZAIJSbhx3LMmM5MljK2zm5kGNmXd60HJeTgmNzWBz0jbnQYdL3wAGUhleGdZZad4c9zCpObfpzkxDuG854Nbf19cCKnUJ7u1ajgF+UdbpRHUQE3hEIdc349bOqDFkHb9X1u45Xn9///d//7SfB+ZH4bJXQZHPom11RPaRwJDa8I2/qdbCOBR4vDZrt9X3IvwAjmN8JptqscgOAKAInU3iUxUpsudq0rB7WIS5i63zW1EW2+O6kzWctjH9XetRnDNry2o/YDprDjoOBjgxCr+RX/ifPQuqbMyZUyoXmVXeKBHRaI3thjk/xzZgs0hxNYKOj75tl8EjDOU9wvvoc1P8mBvvlOTf/u3fTmCK8SIkxoPyVxBqwqLPzYdjpmOac+B7xoEQiiKAD8surWRoOZjzsUPAhV3d7PkNBDov46WtHOFcJRBoSQFcz1xXBBirATyY+yJ0510CCK5JHhjFmTcGGJLB1bHOrZ87n0FhYDxNs01vqmeYY5YTX2lkfVrXuXdt/WLkja3UWfMY4HUtffCKvnUf/Y/iTcZzYLXjXgc9VzZoT0sgzTP6XdEeYyXaBhyjFScQfbT833P9nHl2xzhz4Pa5ABRiQdmslXLvvqVLS/HNQk2G2hjSQftm2FtC3Y/5ZrzR2wqFjadHWOfQzKNxnRssVV+1VQjaapyCMfNfwW9r/V3TdxU70glMAmqenOifDX1EobENs1YnGWtuY//S0+lk7pmTW87VXiuzpL1Q7ZYyTj2yf4y+KS7GenGyzkG/A0eKtGMdV3twS3uOOofszFonsgMEkBlPfxXUkSPsCXlRYyIFai7VjalTiD2ac0lmK2yNqY+hMG6B3wkWV7nbAgj8TYDUOLbChR6d5GNulOSAcnEzwtIRYCBBM1FFThOhz+hlIrp1meMKAKBsxvjcuuKjJu+9XCc0n6My+TEqFSmtlbvaPufE/42j8wEARtJ2wiJHc6Yo0WdgbguUTMXymTOjkNgMey6gMFtPPmsB3DsgONsUjTtXQDiuhze9BBBmaquCpLk5jb7MZT4Zt9XBJ3eerMh5MzwxHO2oF3DtGlNu+65CyQmAuxfZt4GL1I/iIsAOWIiWrpCIoTd+2oHmZRysYJEbl4eM1nOPo4pxS800R+aH4UFjijZ/+MMfnordtJHREslMR3EvQHm0jk2AQGY5R2AQ8NHP6NgJEGb/VnA750rfbc1rvuyJzxlz0IriyBD9AqIDiu28WIE1GS1oosf+N+frmKY77j0r0skQp5eupS9AO5mNLVN3JN2Q3KiOR9U7xvWyyWuUWV9bit5cvQVQ0FbjydbwOXY6JIul/jhQeqVfdEhRn/lAz0szqEeYuvkegspAmraYc0yBVLHVawIVOq6GxKqNHhNPB8mXfRAAJnNcseuWb/WdeSyAcs10frJV2bipj1sAoXOymxiFya79FoMQtTovLPdK0HtFQ29VBnfMdD4rg7AqrGMpR7TGezdS9xrBjFxCPXNuPq9r1yfYKhI1J1A2Q2FZFwWqHoSRMZb+GCxGTWVwqYiEqlwVwSGwcmCUkgDagZAhcY5lchS5NEfOZ85xhpfgVi1du+eDdM4xCLPPlKRVBAGhrU2e5rh0/5QKEkevQ+iuHaht5cFqFKfjCEmvDEIV55aWAgY95CdWoFUVtauIaL2X70Waakrsj6H4VKqoepx75GvKkvs21yrEtVnKRbQh/WKMFE4p5qyt733PkcC1MSJLwBY5xpRILdTnCriyJVM+VmCo6M/+IjbjkTbAtNnelz4B2OYpW+fccsMz0vc9UA40FPmtoHbOq+NLLyazFSJWrOj7CnWj0n1npRJH0zJH1+VcMESuq89r9BgomUXG01bfI3O3nFsKVVpIDYLomrNMh1p9ZSyBfJsnGRe1Fwq2m891Xf8tbTnqnCJ6Y43NUncgOLOdNoCgza0+E2CYS6DWPAKmZCz7X/A425a9dZ1Y97mzLaAV2zQDuK5xjkHoqaeOI4OTPT4tcywKdMB8uEcNYazbF6GbtXFDUVWC6b1lGBn3nELnTop7osC51GIiwnvRYQ55Gobp5LYowKOE5prrTMCwov7mxjgbNwUvcsj2QiB8FMiEcuQQOEWzZahou6VLrXue0ddMbzQWLTsFNsyZKnipDzlAymm5HINs+aB7uh6BJKzlvFqrO5czztzsupNiS16rQdCWUgwzR0su9ae5ykDoR6h3si76D7nbT6Lv21dj0vs580nXaUMphuZDmyB/11NMqh3SMgARCpSDV1nteDugiWyBKk7ZklXtRItC7KKgHFmpDUVaHkftnApRZzu16Rrg7LpV4ZeH9/5Xf/VXp3005NT//u///vQkSKyCZYCcYmP01rpwrb6YN33AiDDAIk0sjTHL+TRmMVItJcx4NrdSFGTFyiEpBnOM3hYUxapOBq0nRc4aFdekj9J1OXyyYc5mrn/aQL+11l1bWopYPY3rzDRFMu/dQ33UkdgfAZCVTsOkcDgTuGtTjwlOxmO6Shtmu68Z+6OOyW8IdDCV9EKhNt0pENFeqTB7JNAPxadALZaUTpFl5+Rv0qmuPf3GtKtH9aHxbPxayWLM7YwLyGFk2YBqrXxnzoAheyGYX3pvl8/scKsSYsEC7YFE9/OZXW1X2uQ0Bmn2N1Bb0DXHpe2XO74HWyUbp42SEuiWxExlIExuWnFXg9uF/FYezoA5rnXkrbmvSDHA0L7SIrsZpRXlpXhd9xrD+NKkE7420ck4VE+RUB0lNLdcZwIEcxFVVf85NooiX2fTn2hIVDG6UXFLdSMxDFPJGr8UJ3CQAc2g5KxaZup3Cqy4jRMUOamglg8k+KrhRekJLlmJ5pwbFs0agfn42cCkc77LeX35cnKezgEQcuAh5kBC40QO/dbeB75nMBhqzIe9JZLvDHt1HClkhlz/2pOjFFqK4zdOVpGRYinXBpbMC4dieaqcNUoRiGMIOFtLVQE6BoEj4owZcg4NlS16UsFcPy2H4rhFwxPEptSXdCGjIldrrBgeY2uMAEi0LsYAo4R90k8siwj6PejCNfpTDYE0DXujT9XTpN8BVrIV2DPP5qS6kCJ4c2L9uTnBuDmXDGWbSgXEILkHOZYu8rnVQ7GvAbwCLkzDnDey5NgAsPtVt6OtLQvOLrTCoVRGzgEgVYyrMNNSSCybjdawUgUWWAx2hH0oKs3OkqkcwSW5umZe9hwzwY48vb7oN4aLTUkWRdbGmt4ZV/UXPrM/mAXsKPaTvrRSo5RtzF7gd0/7rjl2As3017wCrFImbAMZYicxUewDuSI3GFqMLVsAmMY6VQCtz+TG/9V3FXQVwBijlu7GwrfrZCDC98lCwVn/F0zE3uZv+Od2Mf7yn//5n9/4gdBqUE8TawIz1IR0Vte6cUvZZlFaypASc2YtaWzQ/a9RBiuEHXhwLYMTdXJERMOYyxebGJGeHeZ89s5Qlje8Rigeccwaxeao7bIlP2U3RcpPGPRF9S9HQjkqiDPO01HncAMMljhC6hXAYAkYD99NBsnnaCZ9JQe2daaoLeOKxgb8KCaaEHAgE44JHJCrWYwVC5KDzgC2wZDzW6VBMZw/N9Di/Mgc2cqAaG9UbxEzes88o4w59bm0p6VsjUtGsvu0/EvfcxCBDsVGohgbmahxwCTYoMpabgyO3+wA9zd/8zene3PAdsFUbe4Y1DXjJ99oTl1XlTb6UcGb83pqnXvJqyf/19YomBtAUgSMGtfW0k1kSWrBtbBA5Et/jZX15fr73lMMgSb6bMzpsVRP+f8AXXJHZtiSdKOlrPSBbCg6ND5WLCjaNK8FOhy49B0AxWaR9wIjwJmemEsgUGSbwe1ppf53LcAkexoo75h0L4egnTmEzgmweM8pabNzpEf0lXxhqLBEouocByaQ3Z51QAFmc+9zQd4jbNtL16wvfAtbZpzMJ2YI0Nbfdoh0bGBbUaM+GjtgHXtClo2XFGm2aAZGjwBA+b18FztG3zGvbe9u3PkXdRNtekffsLKAOjnsCbv662Uc5t4xAcoCRzYhu5fvWBmFgqzkzDzz5fkW/7c3TLLRXLkW2Tjp0rqKIQXzPpdAOGldIrY1+TUgBFN15dzzWYN0kFGuSnfde3/e+97JhehQcglbiue6il3sOPiWrznmxo/wMFiiS8LBwP3RH/3RiYpCF8Z+pOjO6TvRlKjRLmxQtj7Kd4n6rbuVu/TiQBhW37kO4eTsCDgBLlfv/JgB48eBibjIAmbG79oox43NQLuHhvVr1hyQoaKlorhpOLXLtXxHNsqZNT4pYkyI7ye4SUb1h1IyJGg86YbO7X7Rg5OlymBVyzE31iHHLcVCcRqHP/mTPzlFAiIaOXBUKNqT89cPRo8DsXOafjN6KGzFS+hwEauKZg/iQpm2Q2aGB63qWj2Bs2j1ktHlvMy/9eIZkFZeaB/dEuFgMLSZbti22zKsR0VbR+qXOVTExghjtoArdsQ8Jyvmy5iTo2o7khttEXXKa7sGJiJwmgyJtuibCnPzAQgDJI6TAjB27um4jC8HLT8u6Jg0f3Mwx6DftVdbvRfNz82WAhSB6ZizUnkeYQxgYg04ep/JJNZPu9naItG2lw5k0Z2W+M5lwkfO1blrNRfpodUiWDgvbVEDQjb1myNzHKBtjtku/2NQ7RujjsbcSLsC3HSzvVQEBD5nK47sWyyVe9A5QZugwTiz33yL+QIE2G02QrvZV20E2NUfNRbmo029ZqpglZsCt2n/kpn8gGNm7V8+NL/snQy15wd7vBWM/wZAyHh6JzgVu01UblDWJY91oONCOlFuDFLLwULZGqxBOlTUtu4x3TMa5h7T10xwEa62ugbnJceowEUUhwK2LlxuCBJlYF771USl8MaD4+F8OQVjyHABBijEqPXos8AB4eQIHScnCU1jGCgb2tgYiw59h+aWG3NtgimnLsI0vsYF8oZ05aVbieA+ZMH9zWMbArkvA8pA5vTJi+pvVdWBvypiS3kkmDEFU9ij0UtJUbSWWK7Cm6xmaF2HwLcrHVSuZsJYBmznNaYBrw1Fe+R7jbhEqKIbzAD6nhOQS0RzGgNUIUAgojNWZIrBwtSQfWkDRhtFypCYA+wNYyENot0AiG2SsUTmTnsALtfpQUNT17aAs3EBTooCRFaYhHSW0VUoxXjRAWOj7sFYW5NeDj3Q2Zy8tn68dD92RXqH3SDDxnsu1zIGZFLbq3FhW/SpglW/AXhkGzgqmjIeAJzI1LySGfOMHfIODHLA1ZWg9O1NULpGW+iWucYq5ADT1xkM+G7WM2TczV06F608z5uV6/oHlKCw6TD5I6ty+QIjjqsIlS6Rs5aT52DaonzdtfQ159zmU9g186nPAQDMZQXy2ttvFdram4IemTf6qd+AN90AKOgn++d6KH3HsVHZDxE80CxivxSIBtIal5hFAZg552ukFYw7O4uhcgzgjxVhP9kO9lztjO/nY5q1sc2O3KsUffZpC2Bm95wbWzCPm9vWBwyTMwBC4K6NxoWOsO+/IaNzo6RuFvJeHbbfCXQVwqEc32dIMkwGO1RSyiCj7HyNnIVp0V0tSQtVVaQzCzUuTWQKpn2UR0TOcYoqDSQl4TChOAVbBOy1X4x40RpgwIGI5Lw4CsLDyTTGMwrpc2CLkIlOCaTfGDJUstyW/x2HSuW46yuBlToQgRlPY2RM0KlqGkonJRNFN1G0zQHQRQEpbnlVfQMyRMABwebe/+agQqkKKJMfbZ11ChWYRYmVL5tgtrSB31yPUxbxAQjodveLqapwM4CmPcaoNcYV45LHWBS/A5MAlHHljMiN2gHGRWGY37EF7mU8OH2fnUPeGG99wAaQZRGFcxg0Dly7MTLmCEj0hwHCCAEHIlkGsGVgtXvVBffUXvdUsEq2LA8TKfve9txkheHAJsldGyN1EqJyBjcGaOr1a+vHS/czbsaMQ2H0i+CbO3NrPr0KQNgcBjd61jnGiM4BbH73x8AbB+eLUNkfY4iRca7xMpcCC/JB50SC9BVTBJCaA7YGSAckS6nFUGlXYJQsuM4KxLJT3kv9BDbohH6li9oE2Kua5/zIZhX/6wZpbdJUCncGf9rwVkvN9e2v//qvT/rVSij9lLfXP7oVWzi3Fo5Vk1pgbwR/HKV5o2vqG6QmnEsf3AcAjDmUagOQzdu6emyVweYv+0tG6DlQb7yBRHJpHjBUBU9YDukrcoTpoPtsr/FuQzqfC7S0o/S9dldcu1aaFV8AACAASURBVPrZjqmWL1A/291KF4FaAVK2uNqW0tMBxYJR9z7VIExEVJHWGqlkkEMzrcktb9L3bpahLjoOJecU2xFqVp07n/A6JiOXUzi3NO2cEWn7UyhNAZltWBlF19Y2KQUOU55X9PDaUVJI1LuiHNEc6plj12bAYKZcqo51PNSnf6KTBIYCoNI5Vn3kwHwm/ClC9yyS8W6cvXLarYnN4YY0jdlcetVcmVd/UDEFE61QzNIE0hUMl7aehO3Ll9+Ysu6T4SuiIR+zwtp5reHO8M/IyrETzBY1y/kZl8ap5ZPJof4FVlOglCeg652MU3IMjXH47//+f9/78Y9/cnKm6gSkgmIdHOtaMT2rsuegYtcc194XOTTjgZYUAWEm1J+YS20wNmuKaQ5qfXMNcyLa5aRK6ZgvRkoRpXYyCmpxOD2GCyDpHsndewIH2gLMGHdOmQMwHsZz5uh9RyaSu2yR1SUcBEBujOeqG4yCiNXLu0iPw8HoiAqBAnPACUtP0FvjRs4BDXMkTYdtiK0AuLFO5kV7yJv32Nmc3qobBUixuaVcRdiibXNnHskXcM8xCRRUtWMQzKv2S18lc+lBYKjgIbnLMaSHrznv2SJBDftsvIAsNsnY0D12ToCjffmO7Jh340CWnQu8V/dT/6VZzSObH8AW4EjLSLVeqr+p9sm5gku6ad6BLTauQIlsmnc22LHsEduOYaR3ahTqR4yBsc4vlhLzXTYrn5ifLfBqs7ytNFbHFjCU2s8XuM9cJtlYxtyeZNAyx5zGBAUJyaRytwRmAocp5JOmmMhnXmNeO4WYYMXnGS1f68h1EJojDIQNrWqATQBjy2Ayho6puvc1laGxAQ44MdEtFCoSnZuk1KYqWwkLYMNAckrthEdYIFKRf2PkPaaniW8sp7M2LrUno+Z9OuAplDnQSbf5rA+UWPTCGRlXy30YYSibMZv3XQX6N2it/1nJkNxsyZg2Fj3XP8dptwI2kTsHy5BPObtGnieb0X2ATBElw+TaxltU6el62sF4MMgekqTPmIUKffSjNe7kzvcMjBqQNrJi+H3H+DPws3pZG8w9WhvgKuVmDNeagYx+kZVz3VufejqqNfOiXY5P3lwOlxGbFOmszXhN3bh0L/MntWXNPyNM5rbswpRPvzOO+mTMMQaANrDA2Zs/QINzD9wJHnoAGifrN/cE3rFj5JycsSmYHsWBbI0oFojABGkfh22/Es5p1aNsXjo15W46vn6XypBK9L/rtaMjMCDSJoNkR0pKPRCHTwcD25fGdrbvmmOPPiaQYE45XhG/P7KqX8YLlW8uLOWe6aKCv4INx5pj4x9DSNcwiwHHmJhqnS4x045n5zyyGcjAENBJwSeQiMVwffUH7HSrAQR/wIHzMXm2zJ72LrvYd83D9JuTMc1fx4LOQPsc0Jx+dfrUl2zs6TcphtWxnwMHq3FdjXod63pTAWanZ2O3DPY50HFOIENXUSiESeSEOpIjLELWHlGHyAr9J3c/0fXRAt/13Lc/k6m99hdgTCi3nBmDkqB45yAIrkiGUZJzdZ4oXT0F4RS9VIRzRHHZCthC2dOAnTPG9ZVjhOTLhaKvKbK1/2pBosFme3N0UwkuKetEx0XUjEQ1F5YUSqMAYBOYrO3fAg9z3moHY2zcXd+SOBGBP31zTQ6+KC/24Jo+rICZUSEbAAn6GmgQHbsH58XBzf0hVpk1BlGGwAZjy3BJGanIVw+hL1G2gByWhRNpsyDpjBmhPUovbrkuWeHUyRMHrYZjgs0A3WqDjIuXsQEWBAeCBSkeDl0wYb6kCzgkUSWAidFzvHGUnulhasA4QMARA1wAgyXIbM+3D8n699O4qkXQRkWhbUgzHUKyP/uwJZN+J2OiT2AbKCEHyVqFyZayck7Sa+4DLLTscXU41waBt8zTLedoj/6YF+1XH2Cu2UCpUO/plF1BOVp2sX0mcpwr1V5qYDrSAGTX6/+u4X0yLGwxvbccU82Bl1Qwhgm4xgj4DLhgLxQIt1oPoGWLgBv2sNT6Ov7Nz0tsQO2azNNWcJXNbh46ZgWeK0BY7eN3D2sKjThgGtQV1awo95xR3wIPU2iatNWI1o5JAztvTuTaifZqaNBsE8zIyflU2ey6/pe3hEopDuO+lbe5RbhfOidwUKTJiFBodFMMR+NYHyBVuXTHOZ/BYniiKuW4GB6v0PM97Z7zPNubwqzXXoFdaQXPfQAEtJ/BxHRgPIw1I9kz3LtuSticTgXYAiNT4DuXUZk7qjHk5lkKQCHepOTPAdV53ZRmshTWm4u2GWYASATRkkbOA1vDmYvu57LKPXOSE6sGwDVR/iISaRx0OApWjrx+rPpTZbXfeww4oMzQtsKEsWNY0bfqGoBOLBtQwjgzgL4/N/d7+nT0sfpHD1pJ0pNfyULgaEZYPhvHZIWz51hzFv5XUBYDJ9o3f4w6BsDYi9rpIuZRpI55wPgZJ6DNeAKO7s9ZAXkq7RU0qs7n6NDjwEL2zT183pLNadzTgVJR7skhCQzIuPoU1yGD5g/Fzq5oCzaSzJKdaT+nrE8w+5bznf1J5+gSO46lYwP90TnMCf1j87/55tenJ5UKrkTwPWm1OrbGegKygsWtiLzaO+NQPYB5VxvBTmsTgN1zXoB17aNn9EmRL/tmJQOgRq/4GQWvls8Cpe5fKkMbktmCsanP0yavvjM/MUFM8/fSNQraXW+mrpO53zoXg+AkipJxZsxbF74ikK1Gh4QcOw3U7NQEDH0/nUEGz3HVIlAeRpESFqmdcxoNFCck0hMJ2KCiHI/zfE9ZofDo+BD80YZs7fuks0QrVg/IYUor5NxKgyS82sYYyGkxTiKaBNzYBDi8741WX+ov5XN97AaF2GKCVqDY/DkWjcahMl6Wzomk1IKg1+V/qxnoGnMZZTUGl5ZdGSO1FhVx6n8yQkEV4ImSY5C0b43SVllq3NexMS/mC5Wo6FV/OFtUtVUJIgmMDueqDUUOM793jXwFmnMc5dQ5H+koEYjoERMwdWgLvM3IlA5M42+sjA+DZj5Evyj2mDhjZuxmseI17X+NY9gDzA2nLKJu9UEsi/eeOpuuNM/Gj1wKELCIZFvf6aPonnOVdlHUaezpp98FG+yFCFbUmr4pRsNikFUOALvgN8CruitOWpv7PidkjrV9FmqfYxOyk67rPu1tIN0k7eU8gMbqFDprXvUPM4nyVtQ5mdIcZ7aWzvncHiZHsJG3yELpzhw6B4spAN44Uqww8M8misjpobHR3lY7AbbYB6k+qzfoINCubzPwdV61P/rufMCOrghyOH6pBPPruICgNA/WiB2QSsQImBf3an8UzB0gKU1ljqzCwC60cqvgt90VyYd2bgXLWzYqFuBbkPTNqW3kLbuzrn7oGvrmNVlGv7Wb55ZvPTEIbiL/aCB7tO80+BU4uYFOzv8b5Bxgv7vORMImsQrscqomTeNcwwQ1QI5jAMoxcShz+cWWAXfNCrDkiAGEuQYarYpCpfSKkdowSBuPdK5bipFC6qOclbXLVgxApl4Juc/ynAQPIo4y7z1AkOGeUfwRSh2II7DmukI6184QT6q2z+0cZ7wZLwIb5cmBQvhytJwcSlcRVwbSvKLmXcP8kaPWMFesM9FySua7DG/3ZCj97n/siojC2uNZ/OP6baKTjHdNv5mjrlNNhnsxGKJw1yVfIgNAhDL6Ho0vckuejdlcCXKtwZwAXHsqaku2tY8BK8oprTaBfNdwjOO1F5gSkVlfbn44SykMbWdsRUoMH6NsfkQ9RwPPa8fgpePICidQuqXK8ww85gpASKf0IQfImPsMuKodMXeCBjKCFrbSSWqM7JJb8i0NifFDGfuObHAG1ttjCfxvntzTHJkPQQrmSqSb4dYOkWY1Rq1BzzZU8xMTYQwK1Mhhq2zaFRYLQk/YSfdQQCnCxi5pqzECDjgebEtL4Nrjw33ZwAqFjVfV8OeCsCPm79w1JluXXhpX/QPg6J9xx4aIzgV5ZBejhlURnZsn+teOmV2TjaGLgKVrGDfzxucB9YCmOoEZTH7vewDT/zmBRvfg8AWcZIVdAS7piXqUNkPCONErMuh393c/LGC+qCAwv2k+843Zu2Qg3zRlJD+oj67Z0m7n6KPr5p8DEM7XZ3PtmnTIPcmEthZkxWY1bifw+otf/OKbGfW0/0GKV9FH1b4u0v7eGtC2yhXCOM41emxwnXad9sInABTGtdrrIAQ7GYiinkvOr8jLZIl+IOaq/BM2NCtaHiI0aa/50jf9l9vEBlBa0QZD1aTog8lqm06GXC6xaHK2dwKDCeQmu9A4FjU3j871WztmRm1NNsc5AcXYId8RZspBCClTq0vabZOiuC4nAx2LulQiM7yEUMTFsFEs0YBrt62z31vSakzK5/tMztrVkHy1SqYIO4BQRKZ9nCHDYZzJJjkTJbaE0rmOD1gWJUyqLWWq0E+u2dyJKlHMGB1pFHPFYLWPQGvuV+d9i8wFvLUPe6Cvxneydi9d17xxHNrEqXJqDIOCyiIwhlN+VTEp+cT6ANETrNzS9kecg6kBoKUOGfVe+skuMZLGzJybP8e0uVhrvc27YxhujAGH2qN2za2onI3g6F3X7+TWHBg34J59I5vJPD2iB17frnT59jHNgAQgyfagpLU7/WmJ7xwnetPeIYGIbKS2uAYwQx84SpQ7OQN+LNHULs7UtQFD5wKCBXeBb/IwHwSVrZ1R9iPm79prZqcC/GqJpH+8LAEGhLAp7D395OTR/AIQNkf0D5C1SVLzlB8L2GVfA2hWg2DXOHgpITrtumpeBG2YAPOKNfSd2gNywLZg4bQT4KZD5oK/IX9bqWzf9WgC1yiyz79mB80Jnc0Okt125yzFZlzy3frCVtMF9/B/7EIFztnsAnHyEHg0Zi1D/26jpAyvEzvAIFKMnrSYwSTALtDjeB3PcBmI1lZm+B2nUQ1EndD5IrWQTfRbT067FskaWAZa0R+BgfqjqwwOWopSm0BLXy4tZ7lWiK89LupWAQtBxhJwNoEnQppCeGekODZRiP9DhStImJHiFEBjXwUzYTOu0LV5AJwIM0MV8HKuV3OS484RE1ARaGmNlkOZS4bHvE9nb17NNyeK0rVZiSVgiu+AHr8xvrEIDBU5Mx4txfE/Z1CqQZ9CyTEo2q1vyR45dU2KyZlSEGyN40PQfnNclCFDoG8tRyzC07fWWxubCl9dh1EADhgP82g8HI8K1c8Yn0vA9pL8BO70ybhwBq7N8PW6pCPONd4MyZQR82B9ObrdXgLSJ+oQOMOWh1669qX2P+J3MsF5AwmcZW3UzwACeY2VZPgYSzJvDIEr9sY8cTJ0Ud+lizAHzsUGcewcjZSC1IIlbOpp1D9k58gS+SO/rj/ZNXav5YjkRdt6IqnfHGtOkllyl8PWF3rVMlTvbSUNjHI6Lb/kxOgFu8ZmAAeobmwdxsNvvqcP+q7N9IUNTOfe4zwnO+aqIAq7o0/Gj26YO4yssQQMpIIwYcYSMOTEzSUWQNqBHwAujK+VKcZUKob+2n9BWoJeGxtgywoo5xsn4wlcCz7pEUYBqOZXyIB7Yd3cV80VXWUPAlznUu/mpK2w2RZ2hFzk4J1XMBOT63+v7B77ZTyMlb5rn3nma8hlz8JxjL6yB+0Hk2/SZxjAtUs5nPbnaBVDCLMNYqJ33EhjCRpjGj3hnSPv+euh3IxROSHnta7SZw2LXin61UEdC9V6n0VnlwyNjnN8nB5FjjrTae0gPNAng2LA7jXcl9qz9TvB5kwYZILci7BOliUkWzphph+2rpszch19JTSMCCFNkFp/HdNifIw3B04xCPes8XBedH+Gj+Caa0LEcTJ+CvYcG/vjnCg+32NMrDMWnaED9UVODk1HYaUdYpzMVRucuH5Umt/b9IRhWB9Gok8UncOgCOSXzPbAF3nZqFZjo99RcBn0mAvtb0vwdo0k+2RL29VWcKYiDO3nVBRkqnQXzaEie/DKUTIWg6Btcpn6YvzOGZxVRvTDuXQM+8MYmS+RsLEBqPWRQ4xJBBIUvL3Hl36Ya3OsaGwFCPrW1tQ9pp79YcwV8gWILKPTf5Emx6A2ie7J2/cAMlEgICsSNz6KGY1RRjs74//Wo7s/OdRO8wUUOI/ucBidq01kjUySFU7IXLUHBcNNl8j2ZGPdn63NztIPv5ML38nP+44DUyDpfNQ3vXEvfXSvan2KKN8bSEjuY8qyc0C55d36YoxE/FKYlj6yN2yKc7ALjjUWbATfRX/JvWtLFZpfY8SRAlAKERWkelmtQDewn15qqIDF0kbGWz0CtomtZufoPhvFJmAWA+QvpQPNmeNKAZVS9D25KHhyXXLtWH8V3pIR8haDxQcCo9qn36UZyVVMq/6XvnAd9yavxo08+L36qROD4AcOwM1cxI8mpG05NTaaI2QzEa6LlnfRIcf6ndK4TtHZNDgasdLbvqM0BiDBvYZKlZdisLEIlNurSfn/7N09y3RtVubxp7+FiCZiImaKM4qTCCqCiR+gI21oEAXBzGBEDQRBDQRNbFQ6EBEnElEY0RYx0kgxaAy09SM4qQ6/av+Py21dV+29a1fdVfdTBRdVV9V+OV/WudaxjrXOtbWdgpd4xCP/EHFVfdAuaNSec/FP4yNmrYiKtsqMZbDnA3PyICfFvhzD8jUoMmPQvLlmHo77AyjuTSnygOZzFBxHUdaWkkSL/TeW3ikXSo9ydBwvK+WivZSc87SZ0rUAhRQYHfLkvgysYygzMpKQ6hvFpU/tBqAMo0V9F4Byz5Lv8sxcnzHUHwq9+2uDPsdIxH6RVbJejYLk1LVjmQq16JsxBjZ5nLxC2exyESQsaqNFqU8W9loDfskIxxKRbYaMEhMGSDYu5c84ttg5BZNHVHEf237txsAeoKm1m5eMxXoUunmOkTkDaI0xby02idz0kDFyQT7Jg5d5JZeMJWVIZs0X5U53ANPCX3KUeKDmE41PViWjYSSNESOfzEQHe09faYPrA8/G2lgyMNZ7xsu8OT4ZrGpgLGthh+RHu8kzBR6wtWZKiNVP48DgkUn607Hob2FVYTbARDjTeOR8pfNL6Hw0gJDDU3y+EIHxJpc8fImZVf+jFxhxIJAcGH8GXt4A/WNHifkHFDhoknDpX7LgOGCfUZcMbn4ABSEo7IuxkeMBIADnQLbxxrQJCdNtjLK2YnIwTs6prYVvsktTns1j9tZcsr/ZgHLAChPoY2sypp9O0wd9I5+BSt8ByNX1cE3tKSyWjs2Rz0lKBwd4TwCBMDq5BKuAge+iPFy4hIYWnEnMoytBJwSdp+Z/HXUPjQw4aIjvNdB982D97l5zF8UUXtfr5XuD14JHYfeAnXIcGAeLEy0HbbawLynma38PPRYblTRUNby8EJMEhfJaoF3GVx96fvtkGQJa+p9x8DsvimGKcXBNCJZB8cowUxgMsyQa1CqBqHgRytqYU5I9JrjKgCmlFFnxfG2lLCsVWn8rme18Y65iHcVlwVmc7mvBWnwAEaTvZd7Igus0PuSiOKwFYFzmmJCVcikoc3IQpW483cc1hThmQo92OC6GhRyV9FPyqvGO3fFbj5OmWLAI2BNjK1bvKYwS/MizXQG81GJ8W+RI36dRdv/+gAPggxKj/Fx/Zit3n+Q7OZlhiq5dPoM6Go6jbGWL877MPzmlCKdi29KPWx5b0iXl7i+2IBA9y7qXpEWO+p78lUBmGyxlrt/ixmSW3KDt7RRR3IYx4Vy0g6ikvhgu74UG8v6K91LewAVZL4Gup+Kaa5+rjVAoFjDtgT3WcnHqjKL1htFgoPxmjqx1dLu1JvSAdrcWrHe/qyGgndZAurWEPDIUCL3lvB197eSbXkPtY4e99NNaNd4MpHHgIPZ8GudhTRninvRKD3GQ6NLyP4BF82ptG3tJkCUjC1lgH7AGOQN0rmMKUa4BXOZg6u1qdLCl5jnwSeays4EMv5GTdviVw+b7QlPkPEeq7b3e6TggsryanGbtoRN9n0x8moPgwlUbI0h9NuBOjEZ2XI1w8xZhnp3j/e57i9HLBPkcOxA9Uizb8Q1WiWbvCRSj4Tj3RIUyekpl5plnNCwgyBkw4BG0oG6dg5BSLhFGvNd+aghXImWGIDBUKKRJfEu4MsLmwmfX5VE6X1zWrggUGg8I4jWugAnky6NmYAm8ccJY/PZv//YpLseQMxAEES1qx4d8icbLXFgIFK1jjH8x/QDZnK9CHfpvYVJeFpfvyZZYrvbwxjEajku56ntg0/clFZGfCZxSEH4nB/6iTd2D8WPotJkXpZ0zdyLjHzoPEJSP4HiLJUo+OUdVGyvjweMWWpDE5DhtUZSGkX1v69B7sj1BQl4e5odnhPb0Z1xmUtO8XqCpBT6Vf14YjxM4ZGSSOYo2Wlt/ANUjkixvYRisdyEC7A0P0Uvby2XyWb/bvaKPDIZ3xoS8Awe8RWvBCyvEy9R3+sO6kqNhPNUgAdB8rhR9jlBhU8bEZ/POK6RkMROtM+yeeUumHZtx8V3ricyRU21t7vwGHNpxAcyTNesc0Ad8OAg5C4VgxM+BHvfAYlgL7jOvWyLnswIEfU6mJYHKMaNb9NMcCrPQfUKA8jLa2k4n2oKINSMzakUwksC9saALMGzm1Lrwv3kB9oA+68c4e7lWVUmduyW06Hgy1YvcZv98nmH7wgutSXqy88vTyO7FNAAQhajbqRAwNPd0WnKY7qTD5oOrPt3mqJFRyimgaehm51NiU7CmUdOIaOO2+fTUqBCQ97yjPJVi5EsDufw/w6VTrmtxy8COjWhCGVCLhFdQac6M7NGKa16vfvUdpcNg8SQsZu209YgnSkH5rq035wSs64U2vaO25FWkDCkjBhetSLgpQBQ4RUFBGAOxOqiacCjoIdNffoDQAgHUFmPmN8mFlFxgqjmIxtdOfxMgNH8zNIGaBdLQuckL9G4+LGAAJXDZeDlfvyzKDLN7QdVR6sXXumfjZmxrM9koLssbdIzjk+Upv/plQVZYy2cIPAq7OXAcsMNrw36gFLEjFDfPwv1bmO282CJr+t3aMOY8I8yOdpnDGJYUxDkwGT1N5hgV4JEhFW4w97wlc4+9slaANTQ0IE2RkEcAoTDflvbf41jMELnuWQN5QBNANy6+84cFYgCMgb4z3Oh1uxjsMjAOzjHn4tm2QzsO/SzcYl3NMScPU87129z7joxYP9aSMURTp7y7RjJYmycwLPwa8CmPy3s0cQAR+OYc+d72V1VXebeux3smizxjn3tNffuILNFaGSpPofXi3TyrkgtIYxUDvebVnNo9BWwDDBIJ9R/gxMrQhYVHgQf5bNglc+lzRpQOEYYzzkJQ7jHXylrA5bjsYQ5PLJ++Vardd/TsBOzpv2lPs9fJUuO4tNOdq++BVvKjf/6nZz8FIp7FkNKtkSnShHn+XoOmMVg2JGWqk0tvvYXb4ExlOH97SwFOUCEpBD1vAZSd2RO7ZK/z5hhFNKIORynfwzPSThMlqYW3RkAZkehzXgnFbFLQU7JkZ9XHGVueY2VceJTQrJd6DxQZShhzwNDL1AUSABOMAMXIQDCWQAnDwRhgXyyiassz2La8aRPDTolOmZjgKmFMyAKYc3ETukrU8tq0FS0sF8S93Nvc6fcMmwRQk415r7mo5jkZVrLbZ0odAMGsMOoTTLRIul7KPqVTG5JDbcnwMtQy3qugBygwIkAaJcQw6ONcvGuUXm1pQVP4whg8FvJCtgNPMxdjXnvOEZAjKbTkN14To0j5YZgYS7S0/BiAU2Y3etLcPDJAoLCBWaErwGaCvsai7wLVeevppLxMjJoxJvPAnhCO3BXgshAoGbKGvZKb5mEyOc2bNcZwmCO7Cqy1zs0ATIMwjUTXaB45WkJkDBiQy7tLTwonkD06NtkTC+fVAn+V0wYyO+8coJzraI2cPsIx2YGcwsl2GmO6h24RBjB+HCOv5IATRO8AFP6AOtfyl5ft3di6F7kBtIWs5T6UzNw6NIZzTa4FCem4eXy6JxuSk/LWuE+DP6/T5/ReoJYMTDC9tN9Tp38aYrjlpG8ZrHPtmMrc5PsfjUeRUYBibu5BKMSVLCQAgXAwypKapmG5ZV/nYPvMUNhVAAxA+yF27aGAKG/CJzN7Ape3PEPnAT6Uln7zGNDcrmNB+MwYAyLQMnAkPk7BQIYUK8Mj5AId855k8UpkQ59jHdybcYWyjal2nWvPe+MYs8GouQfAwXDydlB9FChF7Deg5FoZOdcWC1n8FRUL7c+FsUcpOsdcGVu0YhnPmBvhGqEH8me8sDaU0BJopNhmPsCkDRtv26nMj6RChp1XOxXFW+OVMpjAxuf215d/ALgCC8AOkMCgiLtrM8bnkUMMPQRM++mB8nPeSgxdjlX/NxeYCNS09WH+zI11IzeDgQAiMA1eGaTkZ75jS7GEGE2eO2BuDU4maY2cp7z1C8gDTnrokpLNvGPHiKX3iHc1Laxza1+WP5lyjndA9lHZoFvq4sa6cDewhlEG5q2JmYPUsRxNfwBAT0KlC4E8Tt6SUb1l+/dee42Mrb32XQDC2sa8h5Dy8BxjYnlwMo4pOlnDFioazUKwqHjP6FX7XG+dc/BWuy1i3gljTAExJKGzcwzBUqkvkZ2Jr+63flKOaDGUsRgcsIASpRiEXMRbxd/cnyHIQFYoJrBVzCqjbiwr0Zohm+1dM59tpUHj9cAh+QaUGkNHiUkA4w2i6/Ki1lx77TG8KpnGjB5Ps4TLvWAxhdK4AadtawRCySNDrjCRmC+A5Z5zXil9rzyTJVtHmWOAJMrxanj5jFXg4NI8lKyHneFh84KsA2CZ4hPa4nVaHzxQxk9uh3kSytBm70Iozf3a8b7XcfrEOwY2hdnkBwQS9oQQhbwqf45xw0oaMwCczPYEPtcu16X5q890jn361qL5FlYAfDtuK8Ama+TUvAN31jfZMKeADHANtPjfCyvI8Fm32olNFC/nTBijCt/da44ejlhNAgAAIABJREFU4T5LIBjLwJmqhovv6Lvyr8oxaY3GOCzDCI/Qv3u04SkAgoGYnhFPF2UsSQla56FbxGLmEq94rRQsZej/rYvziIGP5ua5S5LjUfKc83JmLHKyCufamkFzTeEFykzSE5pY/wAB4QDJoAwv75b3Izs3UAARU3qMMapMkk2eKwaBoWYUeoa5WHQPJ9mDSPPOyr+QoCkUUgxV3I9xAmSEP24xR+KGjJ0XhYpdCYjsuV8sFWVb7A7zYvyj79D1wiiUM69cqMcrw52SKmfCea5l/I0RowfwUlTmlNGZ2zsvAYTa5TigyJy6N6CBUgWYsB2AgMIvZMn6AdwYN+3xnZDGpXsdsU72XMMYijNrvzk1t+azHRxbr2nMrAGhNvNgfq1bnjtgD/xJiiTLWAIAxTqROEiGJbIx4NpgrvzvXNfVpq3eu/OAAXMFaMqo5832Mp8cJM4R1kd8Wk6PNUvnkS3b9gAGbAMG6lHncutcbTk+HZR+LT9p6SBMAD9BRWOW43SP0PSW/t3j2KcCCCbMwhRCYOTQr17Fm3hNFresVOhalnnbTu4xmPMeUY89LY8yoWgS1mV7LhnhPCNhCjQjWpgBYUjQwTwHcUaUIy8Ic8FQURa24qHDbZWZMbV2T8SwGFuGg8EAaAAbiXdvtfnSmBoDnox2lChlrhRuAV70iYdGMe8x2JfuT8lqf88hcK88qQz6pWvM36P/fVcikD4KB9gKB7hWCMyxQmC2xwkfFftui50xEeoBCBglgMI1zQVjgAr1XnKbe16KRU4gXf/yRF1XJj/DByRimhggbWfkgJKy5IXFZPTvnfctY7rnWH0iqzx0VL6xLKF0D0gwh8aeV8mgoutbv4WUPt0X/h/UdNUQO84cWzeArznzt4fNMB7u6c88kAOGyRoH8MyJbH2/YRKEFOQdeccCaYfPdA25B1xsyf0sMgjndOwM8Z0LPc3vHlX+96yZvec8PEAI7aX8xJNRruhRCphxgZwtEgkkDBxvSSyQcdhjCPYOZufFHlAevHrK30LVXu3ZE9On+AAkVLGtOwy+uH4PiZGIhEpHl6KQARLGgIIRQ5tU57mF0fhaFPIleE7CGRTOHuNdvJ6R039gowfHAG/axNOSGIfKvQU65zEI60hSIiNkBrgs/nhU6Ml4mnNhHCEGIR2vZK+ENt9V36MteYWceIpyDniGklaXoQnnvjUPGanKpcuFIA+YGYak/jIswCKDYezlf4hbA4NirNYSz1x+C8/8Emi9dp3sOX96hWRHXos/OSZVdd1z3c4xlgysHCasQbUikmdyCiwwwMYIhU+WOQJLpmDt+AU2AzfAG+aLTgOEzB9HwL2xJSozVjsfKym27hrehVusM2CwejXOu8X6WjpEU0bLvUmvBLT25jRdM6edu3Y+WrsxC3v03xHtfYRrPA1AIHA8BUZQ8pkQAsSPgqUMexodLxHdhoovq3TL3tQjJiVQY1Hw5iF5Skc4oLjilvsk2BYXZc4DpKBkSwMdvBnJeLZ+6bcEQGyCjGy/G7tLCiLF652BUTWQ10/J7IlFl1iqnWhZdCijSPFRYt4BOoDP360oUDSrZ3RQoPIx7G1vS9vRXpU+Gz90NaAqSQ3IoqzFkc2TsaBweLzGRtKocBn6+lT7/HOf+xQIXEqknHPmugCPccSskQchBvFnhtP8WxfWjBis8BRv13qyhiTqkU+GB3AoL+VW87JF/s95gtYW+ZRQCSQDocbj3M6prfcyllXVdL3Cm+1wMTaVRN6zns/1p/wG98bkYAzIhtCpPgprANKVwBZetXMJc8Uh4jhoC3l3vs90pJ0Za5inrWN0rg/Jf/oi+Q0oF+/3+7118rX9+6ye//AAwcRUWAltDkHzCEuCo+wheuEFMVwLRFEiXnDK7UMgwJQ3gKBtPHreazTyVoHL4PISKXKJiMrkUvQMEGWPNZF/IS4OLPREPovxkqIP1DDiGAiKCv28jNetbXfn8azMlXwAtRAAF3kH5kmsG9jDCN3iRTa0AwvS8z60gzGeHs5R965gSUYjg5WCLpaZp2VcqsjX9sy5DW4N+1XOAfDB8+ddludSQqRrWhO8bBS6QliAgWRIrAUvFbugHgbQ5vuAyodYO+/NR2C5sQU0GUoGE/A8IpmsPJHa8VZeUB7mpbW1Rr5swwM65AoBkxwB4BJ4pEMAbCEEMuY7a4hetK1W7ojwlsqJHBH5D0CM7bFVDT2ijWv6UcJf4Dt2xLkl977AwZqRfIxjHh4ghN5R9DJ2GS6v6glYpO1waPFYMFUJSzDvPdwpMl6bhc6bR0le8grfamfnUfq8YNnz7tHDkYQyStwEHihNMVqvLQCBh8ljQUMzpinHrYaiuC4vWdhDjoQ5Ue8BdaosKU8HkJM1ntE8cp6SHZQ9+p+cSMZzv0p7H3k/18rLLDl0OW79H4AK+M1dOlsMT88b4PUz8MI3dm8ERt1HLgZQafzJhfwV7AKQZh4AN0wTJg5zxBAFWI4Kwxw5zo2dazKMco7IuhDS3vU129f1z4Hjee+9a+PcWEh0Va+j55bM3S0cDMnYEhDdH6g0bwABMCGUaG4lLMr5AYY5D3IiCmHdwyg3NuVekLueYqlNdIqQY07SVp1ypAy9rrVuBB4eIOgGwbPwKQChBIJFwUd/M5pVwrP9aVbcy1CvG45jjppUmhihdmM3bEMsFrf3Tvpje6PF5j68YYrB/7w/OQe+N06VzMwbnAovw6QdkwqU9OValI6tWns97Rge10L/iotS5q6rHUJBaG2FrGTV3wIg1AZ5ATxkRpjBYxwBt5TmFoP83rxNWTtnSN4yOCnxNQYn7zZvbAISCarCKBSzMEeJcrLgsQaSQ30GoBkQ3iaAKY5OhuQsiH+35u7lde5ZCzF0FbCpz7Y6Z6D2sl/nQMacz2tltetrZ7t4rDtbluWAWA92I5X3gOWRSKo4GlkWQsQqCGOZP+tU7oodNGRbqAp7ADQkk7c2xoUXrGnOEGAAFFQJlSwJdemv0Mk9AMseuXqd819H4GkAQkrr3OJMwa+hZO8hAHmuFgWFzDNA79ofX/uvWbCub+uSJC0gSS4CL0o8UliBN8hTtAijtwME3TcQU8JkVcMsagwCZSPZzvl7xrX78WTljlB8qiq6v/oBlCHvR5Kc3SaXciT2zFv0prHgXWOYGBRhGExGj1htTB7ZIE6g3Nh6l79he69dB/qrj5SzXT7GFBADGiQgykcw1hR1Bax4nLbEScjjlfZsgj3j/aHOkeshz0Sf5ODEKu7dRXDrfsSuuQ9W1DMhhICESjPs5sjaozcULwMAGFdzCuwJz82cGr8zzGRYsqIww3QMrtE3a8ZDnzCFamrQSRgr4Q26CGijA4BPfcEavgDCmlH98Mc8FUAICCyH7dbCv2ea8nAsfElg6H8eXq9r28ygq4XA0EnSAhDUGUAXUxZASYakxThZgzyL4uKOkfQFdEhww0Z499qb+OUeQgsYBPkRQgvob4oN1Y9V4RVJvNoDQtbMi7ZTmpgLYSovfeUt6x/j6vc9iZhr7n/kMclUCW3eFQKz7VViKRA2vV9xecYfEBLTxhTI+DfmDJM6DYyS2L3chQzQkW2+9bXKRfBQMMmZto0Ct3u2O966rfP6JT8KG1jHEo9trySHbU3lBNAfXtaMLbP6q29qQAAKQkLWv/kUiuj5FNORulbXrBkXsihEZTcMnQRotntCm7UNm2h3VI7Cmuu+jvmwI/AUAOHSEKU411C0l651xO+TspeNLAbOEFlA6L8j0DPqTr4AQ6siIcpRwpK4I+PnuQdVATMuMQH6FzgooQi9zLhY2Khp3iflI3xhke+N6zpPMhzvwXXlAUimlECp3bahMk4M2S0YhOTCO8bC2FRDXWInQCUfoQdOHTEvR8jPW9eoPzw13llzaf4ZEgmrclGMO0oaOGBMMEFyExgiSaOy2xlRNDb5ZFRte/Tdo4/BW2NTHQDrQCgLM1IeyKP1qSTSwDnWDvMB3AMIwg3WiGJnmC/hOfMpmde6cYy6FX6TpMlZwA6J78sbmqW7Y9FuDRL0CXNlTdNzWIOZb4MZwUwCoeTu0dm6W67jZ7r20wGEI2OBt5qoFmWUr0XDIPHiJIB5HbFALEpJmzxIBh697J6MAM8SzVgckqGgiCRM8qQtZrUJGAj/txtESARd3eNhoym3jlV5I5SY7HpGiOeA6ZAnIWcE/Sieit6+lRI3Hl4UlD6hboVihHu0QbEpYZnJIBTfP2KO3hu3ZYy8/yfAzKNM2Zo/dLqcCqyU+Q0IVgYYIJDboe/i2Xls6mdgczA3GCKPpTbvYtx2vgQkt871hz4+oGtOMWDYBAya+Hzs0Idu4/L+E6RPNs/OIdsZ5RVYv8I+1jn2R+6REBEDa633GHBzqK/WGQ9+5sIcBQzeyqmZIABowRJwBrCFk8XgJMj7sQsNkLmFQ/Boc/wxtOfpAMIzDHrJRRLifOaZiYMrbCTcsNfonlMyFi4PAk3Pi5TNTqF4iQVKVGRAsA08k7a+Fa5xjEVtR8GP/diPnTx+7b5WsWTkJI1SZECLdqgaaNuhbV3yEwAEBu0WxngaYGOi7DG2Qg6EBD4G0/cAAqVcHYLG+doxuCSrs30BqsI5KflCL8AcZsc8ij8LB6nEaJxjeRyrzLanNfpOeAcIwAR5YZgk86F5K1cOYCjHLJl2GpZLbX+U36dxBYgkAisTjR0ChB4VIMzx027zrigT0MfQMrDmBrDmjQtFmHcOgf4JKQD2qHy5PLavesT7EnQeNU8lIb61ddx9ySOWgCOCMZ0vAB1AkC8i5+LWa+uofn/Wr/MCCDeSgLLLXV7s0OLFJDDgS0O0pwld38JtpwHlgaVgFHgTai8wCBYjg4GqRMEy1ihYRgEg4HXMokFHxeMpDd4p8AKoyKJHdWunCn8MNYAgnDG9jT3j8dY50+hJ3rJdjLfls2x+XicFjVWQIW5uivHfWonNthVbzthPz0w4iVfMo+RBqlugVgGwad6015/22wLb0yYlgzEw8i+AM8aHDCqqI1kMQHINxiWP7hG3NV6Sh0IvgLJ+Yk8YUXS22im3AJ+X2rTld+vXriPVUe144kgw/ACBZD/sIHmwtoUPgQf9k+CLASTT1ry+N39H9zng0fu8fuBWnhGGFBgAauaLQwAg6EvPXrn1+toyB69jz4/ACyDcQDLmYrII0PkMMqRv7zkjecTimFveZkGStveh0KF5ihO1zkhXmEcbMwolL07v44j2uZ6kKTS34lYMFGpUZjYD53fKTe7DUazKuemcdC6WhJKSlCfGKz8EJer+YsAMrJr39/Y8zQGPUGjI+PAeJRRmKIDMX/3VXz0ZEEAvEFf2uKQ1TA2Ag17XL2BQ4h5A6AVkCC0I8/DiMBI8urYGHgUMb7Ck3r1kO3CaZ5UiJf1hW1D283HL927bmvtZE8JA5o9sAjUMvV0J1oy6FeaXTAC18hCsZ/1U1EwYotLc126jfqu9lXqfoDZ5CaBhQLBV8iUA/yVAwBgCsZylWzkEa8b7dcz6EXgBhPVjtenISckxPha6ZDIZ5Izl3H7owlsR/xIcuEbFbZa7Ftp2qR3dZzIPhRt6j9be1OHFwYEO3ikKv9gj1oDXjga3BY+xwjDcIiY5afr6xpNhPMREKTOeG6MJLAjBiI/aOijO3+OhdW0mat6CindNXqHEQgmDiuBQ/saF52hOxdd5mejbCulI/ESny02gxIUYGBBGR0Imrw5A8D9QJJREDiWzMTbkMmUdE/XevM/8iCk3zglg9nmrTO+VN/ct10SbyBVmRP8xdiV07r3+rc8D4smkaonkD4MAzGG6rBegVU6ComNCTbx0/QTygMESbws33aK9clesWaCLHGGlrB/hydZuYUNrHsidL+tN+IFDYK3ZWZO8xIC1LbsS+cnlLdbbLcboY7zmCyDcaVYpeaiaoka1i823AG7pPd+pe//tNnkVvF5Utixr2fee4oj6ZsR4uW3Pqx7DLdurTTws8XceG89TO2wvkxvBWGb0eO68drR+4Zy5r/4Wc0b5S6RUVU9FPZ4hxkPxG6BA+yt+hB2yU8X2N9/xzsSp/VW9kvLuSYfGF+hRXMcLDS/MsOdRxBnjybKk7OfjjWcRp1vMa9S2a7ed1dZAMoeat41V/s/Rz9w4ui8MO5BgLiuhzJCSP3OIkjdPAKI5ZKyxkPJpKhZ369AQuQJeqkBaRVshK2sp3aatwK0Q3nxpM4DgPECgEIR5w6z6w/QAc+6jpgXd0AP3bpXEfPRcfmzXewGEO8xoxrKKdhA/qhjlTzk8ugLbO0T6zaPl9Yrxi58zgAqm8HgpEtsePTnP69YeZ9vKGHcJnYALT4bnLnHPbgrbxig3bAKjas4wCkJEM3nzCJZlOa7AI6UobwRNyygALsZJm8mJ+C5vkiG0nQztrAgSr5PS9Z0QidCCRDb5Co7xksBn7Clq1wU6thqWmKEYsrw97VuGqprTySwcEbqa4xY7Rp6EiPS7XSrR7reWq73ro/NiZcy/bbdYA/Os/bakkkkMQ+DV1mChCAxDfby2DZfOx8SQJ3kPQoa2lUoulj9Elwl3mGdtwlhhrubLb5wEa10yI6AQ4G7rN9ALSHAk/AEdwo/VU7jUxtfvx4/ACyAcP6ZvXpHy5pEyALwD5W6fNe67ZtgoBUbX7gFK0LZGHqzYNyOsoNMXvvCFmz2LYdnGjJp28Ug8z4JXRkFJBJQ4af85r5uhtvPE/DjeNjO/YT3KATjaq+FNKSjDi8QiMBhelC82QXKhuHQv40hJA12AAGBAxipIgxJ2PYpYKAVt7ZrYLAljJWOumcuOqYiP/1Hi8jdKDlRFj8HSDkrd53MJudeChJkrow92YYjbuxfjJWzVbpAZVtvSz3seW7hQv8wPWfQQM4mH+gEgqJZagS+7M6rdUXhlKxO0tX92zWCmJE4C1MY1A0/GrGuMFqZBYuwyrDNDrjNc1/eTkSPvnkKpCJQaLUD8M8zj1jF9huNfAOEOsxS1bYHz4qBo3iD0nWdwC8r6Dl179xb6LZ6OdhTnl4vAuAJGmAWGpcpv9+h/Hq5Gp6S0SU0BbeGV8UJtM8NsSC4FCCTyMcDaSBGLweoP+prX3mOWL433jKVm5CYTEWVe2wBJxgBw8dm9jR+Z4UWqV9FTAHllYsI8LwoVw6C2AcXOu1aPAo3NO7XdEfCh4LcyCBkz4RAepXHzSoHP3TXi1OLN7aK4ND5rf88weQeQgDkhFiAKOKp2xNoiXzNXpb4scy3Wtm3vcbGMzYvxlJtj+60aKuYJkyQ8VmjH2JOJNbkje9vVeTx+Rl9oQzLlMr+nJEY6DhMQazXvO/OmWouzkFNjoO/yLjzqGnNh18atAdC14/Oxnv8CCHecWQuAJ8BztjDsU4fGeYAZB9/PJ1HesXk3uRWPl0FDnaLCxdYlMKG3GV3VDRm6ewCEZQdLjuL5ACo8N1nWdpqgUFGinsApO9vTAs0L5SxemufDKGOFGEEK3LsM82jTWIYUajSxtvRd7WAEKH1/tqmKScvCZ/CNIXpXNUSGTx4H4wjMBMQkwM7QCIADAGFwtBlo8Fcuw/Tk1k4+AGCcFO2RS+MdaNEHIAWjgB7XLoYCG6Jd0+u/hkFozLRDdUxMnHUkZNJD2rYyO66preV3mIcJQm6RQPveeE+HAlVvqzDP3JrByJFFn/Pi75G/AwCQbZU6JbnGfCbPxo/T8x4om6Gm+j/XwwTwErnt3JB/I58k1m+tnL6OO2YEXgDhmHFcdZW2H6o7gJ61yMSDgQT1CLwqifzocdNLHU6Ri0/yNBlgxlaSosQ7Y8AA/tqv/dopO/pDAIS2x1FMvCK5EmKg2qLCIgPEc0ftYxl4b5SVNkuEY0gYZIaFh0VBUpQ8HvXxAT8KFZ3PiKHeGbEyuBkhWeEMqi2OxspuD/Ur0Kyui8lgBB2HaiY3lDA63zhKNNR+rIykNeeSHaAA1dsDqoRTADHHTgO41Vhrs6RO44O9YKjmLpkob8wKIGGXBRmfRnbrPZey5rrCCpgpmfz6jXI3/lvBQWzS3JGRIQskfIi1yCC3U8XcYx4BVjLBeGKQYg5uuXuhsae75OMAfj0GvnlsvMjaW/U0/GYtAZESD62BdnLNHShd0/xi6oQi1Wu5N0i7pN8+K7+/AMIdZjp2gPBXB4CBSZlRpij39g7voX7v0I1Nt4guFBPn8TCYGANxTAl4Fr7sZzQ45ed1b0VsLswJg6m9jLTYP+VkDsS1GSCsAloe+8Fw+x5trw+8dAmPkhzlBLgmKj+jGVMw6xaU15AHOKvTUYTRzORBUqHjsC62tFUaW6Y379J4+h0IA7p49ZQwpgEL4VpAhJCIPs6kwj05CHIZ3BPY0RZAJeNauARrYG4BG2XA688R+TbuYXyFfow9+dKGQhuYkp7SuVZgZ+Jl8wVoMWTW6L2N0zLUVPsk1dqZASQI3dh1E5O1BxitHZ9AFNZKXgRgb0yAYgDZmJsLbcEmYeTOvYBWsgHMCXlhJADnGCgAAugEmAFheQ2AOzDkdS2w3NLf17FfH4EXQLiTJEyDYQGgoy2qlCvlKQmOpzdDDDNufU1T37rOufjrEfdMyfE4eN2UCQPKaFHo9uB//vOfPyWVef8QDEIeIqPeThIMAKUkSQpdTvGaD8oK0KEkKWftVrOAUmOYKTsxcC9bCGVfU4jmWrKj3ABG1TjwCL0YMuCkZ2hgUnhp4uiSwRhiChWNbwzlR3ggk3vbay6Z0jg7X1gDy9Gjn91DmIPXSdb0b85r2wIvgbJ5DhmWPMeDleioP8WGM2Kuiw2zUwftnywXa96j6KeM+mydAGvqaWBOGJwZy760Tpbyre0lBgqHfPd3f/eJ9QHa5TecM0zzGkesl9nmPPJp/H32J4fErhpryW4W78s8kqPbE0AAToCD6P7qFgSyyZy2VL01sJVj5BkSWC1yjyHxl16c17QTwrUV+iJDdns9WpLie2N8i/G/JNO3+v0FEG41sheuS8nzViVXMQpoawvG/0IOy8SuPPKpYC2atQlKS4WWQs9AzOqLDMv0cvcMUe3lEdgiqG+S/Xh+lLnkK2PgD4PwCN7BpMopOUmLqhlqr98UqGEYbaOzrZBhlk8iYQ+VzrDz6nn+vGdetGMYTMdhjYwDyhQAcAzjpv/OA0IoRyENiYkAh/wGcWf1GoArQMHODwmuEhC9MB4MGQUtbMK7k0wGpKRs9+QbZBhiOsTBJWYKvcQMZMwAH8eZY9Q/kKUNW5Mgz8mae0RDY3mEqhhw4xHjskVGjYV5cF0Z+MCMcQI2XFMfADqsV09eDEQmC+7bb7Mw2WRLGr9rvfvWUmCQbABIxptcSWYscdE89JCqLWNy6VhjZqyMDVACvKYnujfgYj1zCrTB+DgPOPVOLoBleTXGE6OIDcJAGFfz4NoYhRgKYCIwe28mZzkm05HwW/PfcfqYHjU3H7q9l+Z0ze8vgLBmlA4+Ju+aoueloH/F6BkKCXEE0bY6RohRarFU2a9YX/kKa0ACz5iyXpZX1jVGRTKQtlDsWAxtmwlEewy4flaDnXL48pe/fFJkKv8BQT4LMfC4L3myB0/B2cu14I1n9LuQgpi7uSgvAADwf948pYgt8Duvx598AmOG6hdSqT7BF7/4xZPhlp3NAAEXPHyMAM8YqySs4R7mQ5vMBcUqP8E1AQj3FNpQhte1eMDaLdMcxev8QOEa+XhrfIuFa4d8CNS7tvSU0KVBBIbQw8BKrMwe2ZntSel6N868SmMBLF1jfDFBPGK5JUI2xsk6wcZ4mQsMDsYEW4MpUuBMCEd4RV/lVzDS5pzB1OcJJo4yEgH6vG7tMA4ApqJKGLnk99rxfguktZ01IG3uyyMAqAFgwCXDz+AHWLTNOgeCgWm/xRrENPg/MNCcV5gptu8eeuCte5hXfe491qrQWUWgWhvXyOaH7Oe89wsgfICZSPhtX7K4eY+UPkPgXQJYiUd5NrxRGfOEbmlM1yye6fn4TNHYZ+yZCEBBi9/1K3QSAJmsxdbhAhAoUWEE99JHQEGYgQJmzFD1t1BqW9uaV9DC1/9i2xa/rVdofAqiJ3U6BhjA/GCEGBNGn/G3g0NioT6aP3kLvF+xZPXoXdu4iOuK7Utu7CFM8hsYLfNk3jEv8hyEDAATnlzbxgBHwMC2MExCBq52xgZRwFuBWPfAWCjTDNi5x6TBjZtxAB4YTYmo8h7yLPfMQ+fM0AF6GnAW5mCMot23shQZWW1WmZCRZWAL93g3lpgSY1geQnUpAl7JR2yCdWP9Amclonbs1nGfYxY4iDF0LbtsABNevXvw3oVcADM64yhgUjvqR0xOCZSxG/43Zv4wAq2bX/mVXzk5CYCxHUt/+Id/eHKCquMQyJh9XIZYtOHo/uyRSTqSzsKMAYm1M0eq2h8Ykp5/suc+j3TOCyB8gNkotujWUaYMEAVoAcreZUjFGIGHFqXjhR4oYB45IWyL03sGNmTuWpLYPBAIOFkKOGOlbgFFKP6+jFtvHarJIGBHtJennIFTWZHBU9jmGgW6tV1vHZ+SyqMJGGVo/e8YjIAdD2jo5hItynOya4EC9EKDU9a8TcqFgeV9o+qBAV6/JC1eMZbCeKHweaK2kjmORybUEQh0P4CAp+s4HjBqHOCqfXk5JV/m5e/xaMo+Z5jJgwz2PCaGgKIne4yu8riYKEqUF3UUg6AN+i0RE0vTcyf2GkLhEddTpdC1sQPWlRf2A1PCAGcUGX07RhgFiYHmmUE2DupUODYg1VhjybBjrnHEHv4Z/jLWxtaWVYC1rYXmxs6ZW1VmzbEIHJfwGvDEaGmTOfIblgdABliFQYBnNWDMX7sYlgCk/wuJJfePENc37oC8kKkx9qwUjgE2hExwuOhzYFpRsnO1II7SVfe6zgsg3GukF/ch+O1WYAAAAqjbwpHhy5C3IHkKvDMvQIJSZnBaNFF1DIDzJfUwWLwJhr6kuDyQUD/LOPcyAAAgAElEQVRvjyC7P+9DGwi9cyTG9RS8a7x7cXIesOQ5hgONzssAcBhBBlPy34dIUrxm6hkWitBebbsLemWExVJleBtjShEFy/PAlvCuja9QA29Y8iEDjzIG4gJ0lCRl7A+YMEaUk3PkMKC1J027N89gOQ7TW3RPnjRDRAEy0vPlWIqToZSbAWQCgIHPa4FfoE24RYIo5gXIrK9rrm/NMNJtawXwyF8PFWpdmBuA1boD9L70pS+dQgryZSQHWp/qmGAI5IX4zdpilI0B7xiNbq02b4CFap0MZizeVsbjnJwaXzIEYJb/Yd3bphtjFMC9h3HVN2Evu33IvTFtqysmDEspyRGA4JxgvK7RK9es3ffOnc6bPhlbAAcgB0iBG6EmCZfW73xZu37DkAotpt/1k+zQGXSq+SA3getb9eWI674AwhGjuPEaM4ZXuEHiEUVMmOzrFnqgdAgkBYSik9QmAUjymm1vUCtlkLLsutBtyqgwgfswQv6H5gmyz+5jEUh0Ex+UxU2ZFTOPPtu7mAMI0HSPWHYtHikPg1fGm97j3W4c9qsPzxjmQeWx+15clWE0d5iFKNaOKQ8gNqjxdC3HpswDBeaeAlEkx9zbcud/x5ctPis4HmUEAo8NllK3QCTwWO2HOZDaSX5K9AMuKcEjjGD3QVEzMsCJ4lDR2xnCSyChPhW2015/QKv5sMawWO5jLoBr3xlv4T6GDwv0jd/4jae1BhgwBgGBHnPsfx6ltSM/ovoYDLdcBuPofkcwCuWGoO3pjvponiQ8M2aTIbxa+C9cwLgwmAwjYwqMeQcs6SPJvhgOIZ3pFNy6XVuuvxwvBp2uJAN0rlApholDg2XCiMwXXeYY4Sq/W+MBi1ifqfuPWrNb+rj12BdA2DpiBxyfQS+piKBQHDwktCSFIi6N9mRILTbeG0PKE6WEKUzeigqFBBkVzVOhzGzTguJdj9CqDCjDXgY+NsJ37oHiJ/yMGhDCwxVPp8DQppTdBCB7uj4BAkBgAfFy9C2GI8O35/r3PCejn0F372h8yqAn0jE+qEjJgwwaI1vilvHkkTBytgkaY96UrHCgjUeIGXDM9DBiFYrZLjOqAxhHjEdelH4wnJgf2f1tN5v3cKzQyZ/+6f/95A/+4P+cPPNeUc/XtolcA8SSCVWUrK9rr29tATeMqT8JwSXDCeOpa2HuGH4GTNjG/RzLS2cQhBbkgJjnnmyo8JRjfOc8oQoPi3JtgMka5S3LEzCWEkoxINfO1aTfrSXPOJn5EGStB4vd0whxMDwFlX7BwGC9YiH1GfsiDEWW7OTZ63RcK0/vnT9DORg9smGtYe44UfSZxHF6U4hqvvxmPWOXOFr6zzEC2CR+cyBUQ01/HAmibzUmL4Bwq5G9cN25RcYiJpiUCDoTRQV1o6kpF5SoTHeCCpEyJpQPhZmy4fXYR0+ZelF8CowADnZJUCCAA4CALqUQGWlUtdihkrzCDATafRi1WIZrlEwAAS3O0wEKgJ4ymSnVdmc8osKY05iXVrx5yXqUNFdeiOPM82R08lJiISYdPMGYc2eMd+ndNFZzzK6Zp2nUfdZusoQS/s3f/M1TmWzfLb1fIIhsUqQSGOdOkFiTa+aVAQSaKF6Jm8a8Rxxr5zmgtFx6UfCUtHwCIR6hIR6/9eAecmR+/dd//WS05Bf4bJcD0ABIW5c8YOtOH60Vih8QBOTIsZwTHiaDzRDylP2O+bPmXLvS4teqnXYyuY728tSBSo4BA6at5uoImVjTVnPNubADR04M/WJ86S+ODdnGtGBmjAuD+2iv1re20lvAKOcMiyd5WAgKcARuyBB9uwQIdDPWAUCwhoVR5RiRGdcHKoW2yuO5Zm3cY/xeAOEeo7ziHlHPqCgxekqFIpRTIH7HiwEOeHSEl7KMmg+VW5AEVGyc0gYagAgongKh1GTY8uIJKgUn016sUJY8lgHyp+ihZQlGvS7RuMsuxopgO8ThZe5THAAJT0N/tYPHxRDuDTEsgZZ2ZEx9LsmpOHOAasbuV0zPZ+aQEjIBTMyAWKv8AnNUJnnghTEil5XQBS5R29e+2rngOowzgEupMoTN33v3mGAqNoT8khVrg0F3DG8XEHYMMIztwd4Yg551wdBKrrXG9E8SL8MLVAALP/3TP33yJlubwng8SNeVz4Ods2b1AeDQDlQ8RkJ73LutfFvGLWNGrrEc1m6siOvQET1Vs9DKlutvPdY9gCOhlRn6mSE1bQUk5eSsfcDZ1nZcc3xtNbeSTDkx5k9oi+xhoeQLaT8WhM6cL7qO/uXgARWOM+8cPYATe0BOhB+sKXIUA5kjcU37b3HuCyDcYlQ3XrNErBnjRscpjmOhEyKolRcl9OA3ysn3SvESWoq0xBiCKOYpTGDBovwU3IF4K/AjpCB50HEAiGJN/uykIMTia9HFeYJbupXnwmvAVGAQVBXUTgoTcPEusass7K0gBLpvp4W2NY6h8jz6uRsj47OWnt7S54/hWAAVyyMRj+cNzPUQpMY48MfrJo/iy9ihI7Y1do/esU2MrT8e+hqAMOeB4gWCAQA5B23nlVBJaTPiEgkZesnB+kNxAz2MuLwDa8G2Uvk6MtTtNLHrBCNB1gAHMgwwuZ9cG+AcUCD7vE7G2vbQnnRYTkNgZqvs6+MEwpUxBup4reYGpX1tDtFame6pnsbUeqNfAmXpD2MJgBVmW3vtex0HGJJ9cmCrMgeKbBhDc9vzTYQEMUYzfKKN9BswKcxLN5sDjhqZ0m/5Y3Qs1g0rBiSQpfSf++yRg1uOzwsg3HJ0N1w7Y5YC5FGL/aJEGfUZYxRDlS3MW+PB8R4oUMdQhpKhJLY5D+3Ia5eHABGjP8VQoWK0GaXHu8cadG8C29MXi3fupcLcC7ihRMXkbDEDVmS7YxQwJWuTzZbDSUFGMUPrkgN5cFVj02bfGROGDosCFN3Do9ow9Q91qDFl8O1fl9GPgk/2NDSPR/hBPF3eiuOqz7GXCWoQJnsgERBdjskqnLbm+pNWdz10tu8ofLkCqHBrBJMgzozJsvWXbFpv2ANAiZeIZRDiczywgvECNHjt2kLGGERgKg++7PW5pp2DvfByHtCA0dsLvjuv9QnYAyauK9kZQOFcFL67dR2B6dws+1QI1ftkodbM5T0XB/Amf4O8GTvhNcyBdgJAQIH1ADzKpwKC5kuSKxBEnrAJQIDcsZ7s6ljnYqM4b/Su0G6g4NHAwcke/PuEofecjde9Ph2BFlAx6Iyx/yvOwZiLBStNWqKaRCiKCrIlzJSQBCsKmxJkKAkimhj7wKOQYW3LGE+oh9ow3JQbwOEa4obABa9q6ZVvmTbnQstQshePDM2qH2jZ4njXxEkBBH9QPaUeCvdeWKHxZQx4B9Gzj6agtoztrY5Vx4ACA+AY1MBB5XKNXSWXyUqPo85TPcIQtbOn2v/YCco0g3yp7zOW7LOYN48feGSUgQSygP7l8VboSJ4BtoCxrdQ5cC0E50V2A6Q8QUAdk+ce2gwkWJ+AgL/qiWDoMBDWWX2whgEggD1gfqlf8/eZ4GzsrVleqgJdWATJzvoKMHgdMS/vtS8wVP+WZqUxSnftdTi2jNHWYwE77aQjFTYzPx7UZmt2oSphKLkI2Fp6dL4Yf4m8xoAutTZiTFybsyK8AFwIQVhf6eC1sr21T9ce/wII147gHc7PwMmIZtgpMQoO7ZVyoQCqBGcRTmM/K8cl6M5zXcABgJDQKInRnn4eFHAgFyLvfquCKRtYO12f8qXoXQf1hrFQ60F45BqaFYBqaxpvT6Z4NLnvLVD/i32i+nhZ14CeO0z3XW8x49aUmLkCLoWxyEYJmeVyGG+Je1gZhhSFeuQruSET7uMejKtQwFpgl4zHFAUUyYH4si2jAWJhAHLjhV7GiPC6GXXsm7Acyrg6BnYOAStCFmspYfdtJ4hkRfkd1qo1oTrnHs+xfIoKUpkXDoPrygXAKvpc0aoXGL4spe1SIuuSS8tDwJbRibEkQIMQHKA5XwCh74VVyRWGoURRIFXIWCElbCc9BGA/IlCafXoBhMty8xBHhMAtegoHWqUIeHy2LzLE6DGeXt4L4aPkKDeKBLrlGQkvoPnR7TxvQkyZWiCMKAPOg+SFRBfuUWLaDAjIiVBuWAyWV4g96F4MdwzCnsXiXMAJEOAlihl65WF597tESQlHKMLA0Z4+PYQwHNiIKH3jJPuaZ4RWLb5evkEhBDLBsGGseKdHG55AAI9Ywpd5FT7jacVSXJq3Ei0LFeiTebd2lMPm+QEfQm4MK6AKHBsLjJvcGEABQOLluR8Qgbpve5514XolbF7yrstil92vDXKHrE1t0M8tL+sbs8FDFT4BoLy0WyjN9VDcGA3hEW3fCvC3tOdjOTYwnMMCTGKKzBEgVz5CuTZLfUUmhCHMdQDNZ4XoMLt0MwaiHWl7klPvPdYvgHDvEd9xvwxo2+Za7G2ViSHIG6w0rfMIYcdHY3nvmksqUNIg5cNwS2CcuwC2NL3ri2VjI+RAACk8VFSrNmMrQuGXlP5795b8UzKZcIt7lyCl74AUYGRnhm1Y1wCSLWPwDMdmkMkM0EjJAZzzWQKFvnhGwkVCV2Lxzjli18Icp9gdXrZQRxXr2vK5BkSSLcfLOpfjAmyoYQAoyNlBHdudwIPj8ekDWRQ7Ju8YOts69ZvM2gaMcnZcICWWoi2t7801EAKEVxcAuBcGwNIArfq4pl/dw/l2dcii135hBWu6apPAj/lhrCr5fDSQewbZ3trGwHCyZo6FGwAvoSNOGD1CvoDDc9ucC1MEIuhQIQnOmZwWu8RcvzV1jd7b2r89x78Awp5Ru/M505hTJMtM/KixqNQZf9fUqXwmTZuSS0j9xpDLFaB4KM2utbfL6FiKmsLHTPBqJFBRYLaM8dT2JGrVHn3HnIgvixFTiMWw9cdilDFOmTIKPMBXiOE/ZzOlKClV0ihvh9fU93k5wIDvjSFFKfa+xnveIzeuW/6BhEmJXAHZNfLY/Ls3eQMg2xIsvAAwMJ4MK8oXIAYwKXOyyaBLSOzR3grilAwYCA+ctzbf66exa43VfkmXwLG+VTxp7VgVcnSt2uOzPmEUhEUkXDJmAE7VLdde/7N6XNUpA4HkUCiNfBjLqnjmYJ1jZcy182OXVFWk98if0F2Pr55O3iOP9wsgPPLs3LFtKWAGQBYvBcmArzWmHafJefAWnII0Ym7CGkABoMCrQ+tSwAx2xy+7OxOf+i1FHfBxruxjGeniw7ZRes32xCAolypJsfDDvEaxb99RAG1Hu+MUfJBbUYIoazF+xlOYgXJDidqG5Tvet7mycyaDHbN0dKOTQwZOEivAwntfAwwmaDSHAZjqDVDKPDmePGNKaXuh6oW/hNzkGwgziBFLIBQ77umYR/bVmLu/REcx7ksMwgRI2gH02FbHIxWGIb+AMnYHKDCHcpSsQfIvXNLavHSvI/v5TNcKyBU+Eh4FtsiBnALjHAt7zqnJ+Zpz5bNkUUnfchCEQQMgt3qo1pFj/gIIR47mE18roRbv5W1TkPZTr1XM0yC3AAyH2C/QYfFJ7hHfxlAw1qheW4Hy9Ofw1Z5lCCQGZdJ7DIF95hYcxTmvp11V47N7QvZwxi2wMRPj8gg/KzFb80JpYQ9syTL34uR2xyi8BXiZIwAPWBCmuWXly1gtoSLhLkmKKtptpWIBDAVrhAVs5cWQmFtMAfCnUBjPvZLE+qruBwDBwIrlC48BRUfT88kbtgIQk9vw3iuZ7LzKQws1CCfIZ9BGzAgmTd+9C0M4F8DDrC2ZyCdWVzdpOjDlFYMlDwdwtPU1mU8WziWoAqISXc0TUCk/TA4LnecZGUJKwgzYt/Tqo4O1F0C4iag930UnQBCnp3go6DUU6rK3nWOh2T/OC1PyGYKmfJUhtRVT2dWem75UwtGovrfgUMWKl9ifjBqWXMl4MQD+5DnwCl13nuuzTG7xZX88KWDC3mTGwLVsY+OJ8SB7bHIxxOebyW0tNq5YHH1naBhOgIGy81hx3q3Yvd0z/hjrGJ89srGmdeZbrgMFS3ZSqEsv+q1rOV/oQPIemSEflL05lcDHkOqfXToMtN8ZB3QyYOJ3ciHnwm9bwcmaPsqSB7iAVhT0WoDAoDiXR6sIGrZPGwEdoI4ci3lj0iSSYuska2JjCotMFm5NWz8rx1gLADOWTDJuW33b4mvsgTLjWPL3HBvMlLwZDknMl+sBdOTJfAPgdsgUhnj0sX0BhEefoTu1bxligJxRbGup5M5HnRJ+BpgXrvqdBB/KVvzN4rGIKPCoz3N0XYxE15VFjIEI5buHhQtAuFdJRBZg1HKxQoqzKnzoQiyD6zuOUkhhSlqzTZLX+FbY407TcbfbtCuBMZVdbZ7kbJg7mf08HoAOcLBroW1bxrZkraMbKwfAFjEJYupotKVwLUAoUUzoQPEaoFTfGFFy4LqAYsVw5MlkBGzFBRwYB+EGQOLoh+qQN4AWqwEA2WFz6bVk1PI8S8h0PuPFEGF7hAcxJXISxM8rue64F0A4P9rmGquEMTCGGFSy43vygWWSvM2pAZaXLCOAwNkgf5gqO7ewRAq00XnWGOAg1EoOn4GlfAGESytz5+8WJwGojObSC5neVwt27hjIEHonpBks/1dsZGfTzp6WQZakKGtXYo4tjyU+XvKinG+B8EQpeEqJJ4reZVQk6IiR8tB4avrBu4Oqvc6FMlJ+xoUXJOFHIhn0Thm6ni2MjABvyrUrf6o92uF/oAXFCmCozAcUtKWJQbRg1ceXUS67XBy+Nh05xo9wrWloeDeSRIUUvvSlL51ktfrw2Bnjaksj2tSzP/zu+1u/tJFcYISAFTsPtrzMrVAIOSa3wIDtfsDhd3zHd5xkkQeOMeFpMwq8RqCHnKHk/fHE29655f7LY2O0MurkEQDyV6nxLVSz6/VUV8V3sCLyGawHDIL+CxECdQwaVkw4T1/m00ev6dPHeK5xE/qUN2VNcJDIkLkBNtVs4dgAdHJyvCRGVy1RnoHflLb3El6lh/wu1KBIknAdVkduwwsgfIxStKJPZcPykHnMvFsJQ4QuMACR8ljR3D273TFQKgXG8KESnYuC5HE4Z+5YWNGU1YdQOv5s8WJM7fmVSZ7HcSkOG3CR4U7wGR/GGD0MTVt4ks0YGv2g4IQYKO23PMOZ1/CTP/mTp8XI62P0U6jlJGhnVf+qjFebC1EwfpRAdR/c15hjNigA2/zUbGA0PnYGQf9URJScCNjNrPy27gXQeNLmzjmX5GC1wL1zoPsAmrEZGIQtL+czlsAkoAGs8qy9sCEoXqyBehziw/rnM6BgpwbvW7U7bNQRcjC3J7ue9Qyc8CjJ3Natoq4huVF5aKE2nmrUNrBg2yQZB3itQ3vyyXdPwdwCRraM+7Mfa1zJvHmhB+gtskLncpiALGMIhGF+OIFAnjE25hwi+q6cJ44H5kp+j3nCOmBC6VjA7R5r6do5eTEI147gmfMJjNLIPFbeV3teO3Qm8c24YIYSyo/a9G47FA93nne0cMVoQLeoZHu/eY+zze8NFSPM6Mustoh4LfoGMaPTUG8Ur8QpeQKABKqX8mrb5lJxBVrclzL0wCdxaQZjsi7LLWRLOjZQ1XEle/EGoHoLFtsg90KfoX2vj1GRBrq8k1NJgGKkxiYAxbgCb+ZGmAE4SE7vMSbkQWxdwqwQByO65ZXH3k6GQli+x0IpsUxGGWoZ5v4wKBLJAFly4Q/zcAQdn7yRMcwGT9S9bJ9sz/0lhm7Zf6EXDgiZRXk733qSZ6N8tD7apszQ6Udho3vO45Y5e4RjmydtEf6RnwJQctKMn3HFLJEN4Jou47RYN1gHyaHGn/6m44ADc05+YxzMvXPaDXGP9XTN2L4AwjWj98a5aD+JX5Akip3Q8HqLmUOpaG7gAavgs4ULmaJT0eWEkjBSaD31MLrzCK9m2fSyx8VeeTcUkHYwIhbAGkEWs0PRO57XZiGgdHvSG/Qs8U0ogPLClLz18KTAQeCKsZAgx1vi5c1CI28pccAgZsHxgaD6qn0oZYpWXgJjqH3A3drdGzcQn5teMvAUaIoVqHZASaEa0bEM9gStN23gf9xXDgz6naIl/1te2r3MnUmerDcGE3Nkjil2uxWAeaC47HTsBcN7BEDQduuIF6++iLi0nT3eW1dbAMKyf+VcMFzWnfCC9eWayi9bx+7nvGjtNet5y5h/DMcax+bbeiB3wLN5Ahh4/f5sg6Uz6DNsg5CnBGy7YCq2BWALUQCCrqWaJZaBvLnenItHHrsXQLjB7CjNibqF4mXvh9rnrTJwKaS5YDNgvGVGUda9eL1cBK9bZNgTYlQzykzYQx+2vIAe1+DFUL4AkT+UGyqO4ZX8Q0GJ7YoB2/YTjXuJEdF/4KmHSNW2WJWSDnu0czkG/d44Zyj8L7ObF8cboFwBBBX0eAp+v9SmLePzOnbdCOT9CwEw3HZReDRzLMC5hNZ1V/7Po9TLUJsDkCWzPEEP5JH1b716oZALbWwx3t1lAi7fARwMDnYGa9PjkPcAELItrm1d0Q1AOAAipGDHiX7ZBaKPQg5YBuxd++733HPrGH8Mx2N7JBjKT2Hgzaky2bbPSjakm0uEJrf0py3c9J5QKrkRrjT+gNseOfrQ4/gCCDeYAduk0LMZG4LFi5acREFgDhgg9Lv4NyFbJqxQAhQAL4bX037wvOCjhc39xMjE2noU7Zahibqeme32kltYP/qjP3pSvAAOL8oikl9hAaKS13jrtioqVILys2+cR4upMa7GAiihgI1jizag5X/HlY1uPvxJJpIIh7nhcTEQv/ALv3BK7lrTpi3j8zp2/QgwdhSwPBgeN7n0Ooo5s6tFdr/1Zf1ZX4pCCaX0gKiSFPckBM8wDjkiY7xH+UWeqMqLjNHSr63ePD2i4BcwTj9YZ4ySxDcMG6/WmrMWybg1Aywk/+mQ9TPy2TyycYqhMU+qwgIMVUpsTM25z0ACBhKQKGSRk3K0zr7HrLwAwg1GmbECEFCZqD2Cg01Al0p8kQlOkCTeofQr1lJTohD9z/NGhaPuUf/CEYzg0VuvKEvUPc/Jn3ZueTHAlKpKbsIGFDDvj7GVb4BRQdeJwQFQFg+U3dMALylJoErYBrUXDR7tnbfvtx6vagwrQyu5SKKQsI1+ur85Yogsfkli5sP1xAp5judYny3j8Tp2/wiYkxK8eNrWUAzQHoO6bAnZE1IANFHCdgCgjYFEAFbYSQY6YDLvu7ZH2t+L8ZbrIDfHFlpMxbXxZ7LdfnzXKndEno/f7D4h+1gEn8XGJWO+QO/aGfzP42aitDGlf9XUEILtmTK+T9/QfRgGgG06Ks+wY+Hc6LwAwnaZuXgG5M4rZYzEolD2diW0Y6GkvGK8S2MUDe4dlSimSMBQrl/84hdvQn2j2yUB2i2Bxt+KdjECvBp9ZmjR9hgUcWT0vW1mro+WE++niCX+iI/OJMP3BldNebFALIys4ECYe1GChTZK8Gxxy2ZHK/sfgGAQgDTHAQmoV4bC3meATcb7i4a9KOY3OaAQgzUkPAXU2VHQI5qP2HZobil38iqUJn4MkFirZAUo550DCIDCJfC6HAjrW/vtAsLG+V9+g3h0AOcaYz09WmsHeMYqWA9k1zqhLxRhknSLqRM+OwJc3WTSH/iiEyBo5tQLM3zpN7ILQHA4Oi7Wy/ftInng7v63pr0Awg1mi+ERFxQ355lgEixq++vRjChN8XSJWIzpOTagrZLePUO+B9bY3mQ7FgPplTd9TliXCiFhD+1SIq4vg7sMXPSkJJotW69cj6GtLdGnWAOJiDwytJtwAxYEiyBkEkUalbdVETd1GAKeJuAhKcv17How9lgRyrPnNAihhOy3gqAbiMrrkosRiJYll7x8iWDo8mrYH2HkWlsYLYllgCXg7X+gtd0PakTY5hYoqW1zJ4DvpjGwzsm88Agv0zZeoAPYab1upfhzJLwD4PQKnWKbdIDKOGFEtA1jwZmwgwFAB9577sRL4F4jsGUEXgBhy2itPJbCsEjFUdGjtrkADbL3K0bDg1WxrafMzUu36DP6fhPDBxIYO+AASOD5MIhRlike7+1hn9n7rhN7oT3i+jwciTTYDVsp5QSsoddjOTKyWALtFZooiVKYgTdjPMR2UW8yft3D9jX35/Es27hymD/NVBcSkQhk1whw47qUowRIgMCY2ycuPmsOnjkmuHZsnvm4diD0yOcK0xzlgWXUrRsxZWEw8ozdsl6BSuBVuAmwBVBKWI0hmwmsrifEBhhYTzx2MvYDP/ADp7XFkAfO94DSQo6uydhbP8ZICA/w5Z1yOIQdjBlmxDNHhPycK+eiAmLPLBevtt9/BF4A4QZjThnI2BdvVMqWseJhYwos5hLrKvhzbhuha1TiM2qL0uLpq3aIIpX0JzEPjUhBABsZ52UWf+CAsZTcR3nY/03hCYcoFsNjmtsH1w6Ne0mEwj64lrgrIOCzbZ68KcpXf2QFo14pM2CnMdhDuWZIgI3/+T//xyf/+q//7xSPBRhsMaLEUcQKNqnFIHQieWjJtqzt5+u4+4xAOwCsFcwQA4dxAvjWgNdLrQwgkAMyZJ1KHgSqGVShJveydgFnZYoxAW2Dw1TJd8E2kDXA1DsmQvt494w3dmLKdffbujtGe927Il/CLnYBcRRsu8NUkHNJiuLjADIQoT3AlVyfo3OWLo3x6/ePYwReAOEG82hBM1q8VtuOZEhTPBKVeBVinZSFxDmsQPvMa0pJTlH2xdT9TolRmLZ+qTvgf0aeYWQEGWLhDdufXKcKjrZZUWTi97YXMtA8MiEL27zaHii0sNxDfm6I8oj0o90CFJP7CC24j5go2tM9eGOAkmP0B3PAG5r7sreGGGJMeG4oXPeUlY5tAUIoaJ6U/ALJQxK1tKW44Nb73UBUXpc8MwKBW8bWnJEhOwxk4h8xZzF0Vd60fjAHstPJEnmuMmjNsz4CCMscAG0C1rFndv4+ffYAACAASURBVMHYpWM9un45Lq7jvlvBQffHSmDkJCK6HyejbZqSnYUxgAPy7Xc5PrbWCT3I/dnDXLyE8zUCL4BwAxmgCGTK8+opG4CAArFw0fiURB4/g7Y1JhmjwMPyvAQ0qEQ9rELKL4XkPaUaO0DZ2RFgv39PytuaZVtc1LUVc5JIJmasn/qssJEnOcoFwFjI4MZwCKtgFNqbXfv2KLDaYHyBI2MAeGRgKGdgxPfAye/8zu+cQg7Fkvcq6xuIzOuSb4yAWiBkRUjOMzwAvWSczK4Bs2sHFyhQyltyHwYKoCZDM/fAPYWxMGN2CTDY2mT3ju+PegVSenYCoIs5tJ4A33bwaCN2QxhDbpMkY8wgnaB8NNkHkPesr6P68rrO847ACyDcYO6qBcBA8tZR7j0mN4+bcWfQ5RDs2UoVTVqpVtdiKBlqmdkAiusCIGhSeRCUrPMoNEqjJEUKtyIqa4ejXAb3UJ4WdY96pcR5OrwayY+MsPEQKxV2kZfhN0qMdzjZkrX37rjyLDAzPbBGGyboiJalUNHA6N8Xg7B1pD/c8YUZUPryWFDrE9g1l9e0cObukGeg0trgpZMxa6YkXIbY5x6gNtm9yXxc0x7n6rd+klsMh3tiGxVDEjIQwvO7BGbA3HeYRaXDrUXHWRd2T+WcXNum1/mfvRF4AYQbzTmlYl+1jH30KOQfTelhSChNRp3CKzFwbVOWCYIxCsU4U2BRon6vsAdPYiq1AMtWDyPvneKWSwCA6BMwAoAo4GIPtvuibhUhotCwB7/3e793yq62fbOM8T3efG2gBHlOYrFYCsrTH1bB/YU1FKVCv3Yf87Pnnmvn6HXcMSNgnlDnKl6aL2tK8SSvDPtW2V22bIbLkqnko6eqlttzLsQxWYw9bOCyPQGU7l3uUjuLCnEIEwL6WAxMgTb2PAbtoFfkBfn8ykE4Rh4/a1d5AYQbzHjeNeTPYxUbl+VfohP60jGyjcXpKYKtHnzNnt5PiqNErqjYlF1sQ0BiD3PRfYutAj6So4QqsBfugRaWfyGMgtb3ziOSTGkng/Y4FnWcove+1WDrX89boABnFUftm2AoINLYtDXtBtP/uuSBI2CO5a/Yx0++GUQsFTo/uT4iL6Ewwtw5NB83XjGzc3LTOrtmPS2HzL2FOv7oj/7oFEYsR6g+u6ekW+CJTNvV5A+IsCVU3oHEY2XNt4YPD5y+16WefAReAOFGE9jDcHjJEowsWiVWLfC8eQmEaqRTgBa0JyAypM+wJSlPy7t+2ComdIDq73G2PHpevGN4fRI3P/nk3z/5t3/7+tYr/X29XiNwaQTIl4qbaohYOz/xEz9x2iUwEwAvXePRfs+JWIY3KgkObCiSpnaIp4sC1z04zTnl3QhdSliWo4CV+77v+75TUifwYLw4JS8w/Giz/zzteQGEG8xVngeQILtYghxkj+qWecwbqKa379HudhLIEfCyoB33yC/KyktfGHs0ZwVoxGlR/QACSlhlOtXefEfZ25IlRnqE5/fIY/Rq2/UjwBgypvJXJN15WRvCWUpiPyN9vtwBZB1wDJRUZ+CF56wr+kOIQEgOSGjXgvM9Al5OjRwnIT2gwJ+wgx1MXrZD9trKzl0/c68rfAwj8AIIN5hFSkt4ARMgsejnf/7nTwBB0p7qieUGVMvAbzwHCx4daJvitXHVG3Trv1wSKBDXp5Q8Nz3qXrgBW4La5AHJD1CHQBVJ3hDPh1LjEb4Awq1n6eO4PuAp+ZQhLBFQjQ0e8pG0/r1Gq3CGd+s9ttH2YLshAAJgwO/lC9EpJUpab+o2KPpl66e1B2DY3VCCstLpWIccjkfXJ/ca+9d9to3ACyBsG69VR0cTUmY8HfS6hY7uE5+PKaDceNSykHkPAIUdAfP5BKtu+AEOoqw8X0HVOduv5FNQaFWNK9FKDXqgCEMCOAi5eGgVhfXyaj7AxD3ZLWMQvAtjYd6qvMkgqlRop86zvQIJCpZJYgYIhCLt1LBFmK5op0RGnl7xGGzrqFyEWYbaNke7ovxmazE9s2eH0rON5au9txuBpwUIk6bLGC2H6dz3M+bXFqllHPDa4a5troNaVxxJYhXAoICPRd3uAYVZeN28a9n+dgHULuBBNv4WT/tW8ca5F3wmdPHseC+SMcU9f/Zn//cn3/u9/+tULMZ2K+33WTU652ES/P9Zzaqecju3is7PyV9zufyt/I8tcnGtTB95futtuXsguZ/3agy8K9ut+A/mzcvxqh7a4metMI5zzVdM6Mi2771Wc6Zuga2JdmUIB9gSbAcOw9/6AKL1pd0Rvnes9SRhUQhBkq8HTAHoQpTqHjgeqMDsYVfOjefa9k8Zmzsz5twtS6TP4966z63009p+7TmusZjrMufmaNuxp323POdpAUKDMvfRm6wmLOU5k+l81/dlv8/M/pTOtYp3KVA8Zt6OBYUlkJQoea/HhEbP88opP9nIPAqJWNqyfBz0e4tv9vFIwUlZiWsCM2oYKPMqVpo3A9xQysIP+mQLJBpU8Rl9o/RUeCs58dpxPrJ/97jWVCZTUTZ+fbdUtNOQamcyf0TZ4Xv0e96jtTGz8efOgbe2EUaRy+z3YCX/85ABA/kvHgJmp0OJfFHzQn2M5od86au6H9aGx74LuQknYgrlFqi+yKBj3+ijKRuAAVABVH/ta187/abAmesYA0XKfAbUsY+SFVUzBdiveS0Nn//n9uhzurLQ6QT/Uyc350fp2Wv6t+bcJRCfY+L8aWM+Vl321AABpRaFxrBSGHM7kkmjIBzH4Fb+lCD7zgJDTybQaxDwWsEKvVsU7id+WkVFBZRsdaS4UvLe0Y0SsbTJ7+rQV0ntrRiiGgTu1bY+xwMhR3volIPHN6NDeXLYDvFOVKhxlotACaoUiSb1NDm5F9qm/9pnpwbQc41ns2b8H/kYckcmzE/GbD4eVtsZEnLr5bdKbju+Ghfm+MgqgvcaM3KEVfMeE2UsyPy5fIKppJ2jz5J+Jbn6zRZaT/N0DV64UFaP1n2U/ATtFArBFNIBGALPPZF4Kb8CSPDE09jCnBfv1hVAQG6wBY6Rd4CBkItAVjCUwLlQHxBuS/WRSc7uYc7oV+/0luvHICQ7tnOTz4COfpuLcie0sS3WzxBenLKnH/oeOE9mlw7mvdbRve7ztADBgiFklfYleASUEPaCvk0kJTsR3jTeKSwK98hFFXLOsDOOv/Ebv/FpmViG1jMatK9jPFuB160aGhrRb3mP5wCC3yQBVp9dv8UeW6BHCpGFocATUPD7v//7p7EGYIy/73hvqM2/+Iu/+OTzn//8KUGR8kaJ8n54NWKrHh4TKPpYUfdb414p7LaxkhEeMPksKc3/lM6sfrdkFhgV8u86Wx7LfaQ87L0WOSKzdrTEHOhLYHkp5ylp5+VdqxIq2x8bpUCX/BdJec5VQlxtDu/OvabGyN4+Ls9jYP1ZL3b1WNucAQ+JihHS1rY/M0aYEvkWnleCpfPkVs8YcZzvAQQ5QBIbhViMAX1o2zTwccSr8dMeAC4GgIyar4w8ua7qY2B2ubady5kh5+VgHdHGW18jp1Hb6dX6BcD7bP0d5Vjeui97rv+UAMGEMITAQAqFAKZICSkq3ITOokHLiWyyKRELuKQe30O9vusci3Tp6b014Mv7zCzsnuSojTwJIIGynOcEYMrYfgttO061QpnPKVLK01Pejs5ajnWRQ2GXhbYbJ0mYtlxRErwg4ZR/+qd/OoGEX/qlX/rk7//+70+Mgl0Lir4Yw9r2WQMIlAxFq/8zvtyOl3433+foTfI26WfU86wlMWXWsa4TGMkYbxnzWyk+AEG766N+W3sAwLn2zbHIaDGcagAwVupvKLpF5qwvegHbhcHKK59hDGMzWaxb9TP94PocEQDbA9o8wyEZ8J7hFZoDDOxQsCXafArRAQIKIslVcB36RE0Vu4EAcXKg/1hK621S+XuMwjyHbJKjCrnNUKNiVZywAK7zjPN7eQaON9cBiVihnqQJJMVOrJHVZKN7b+nve/O+/E272ZPu1zM6Cl/dWoa29OvIY58SIBiABK3BsNDahx8NNiuIRW1Fi7UwfU/JFILI88+rSbEQiAkg1k5CgqNtqEDPZZCkaDcDj1phIc8nEJc8V9/9EiUHIHzDN3zDqTnuRVnwUNYsrrV9yDDNxe9ekqRUTORheEhS3q/tnB7/bAwVTeI1/e7v/u6p7HTtOhrAbOnLhzqWzDJYxi4F6XN19ynWANRSyTpufkfGKe1ZgROrAxAEKEvYC3AcLRPnxnGNokxGU7bTaFxqY+PgHThVU8NndL1yw2X4W/uAN6Pqiao93XSC7ffYuSNlJJ1ifdAhM/RhjgBq7RdWBAz8bueTcKP15QFnGAeAILaQA/RDP/RDJ3mRmwBcqDsi6fHSGK7pW2NDNq3VmM6cluZs6sVCRoEv7ZjArIen9Yh3xwMgXduxlZcm11t1xBrZW9P35TGua+4mQNDOkkLTvUeM+5723fKcpwQIKQneQlRstCvvAbvAYE20x1gRxPYdW5h5Vz7PrYcBkLZPmfhicGsm45z35ztJRBL75CBY8P4k++mDxCufGRDtsTiKb7nnW4vlXgChvdoVgaKcJUd99atfPY2jZ0ooqyzBUgImhYdBoEh4i5SXvpVTMT24NWP6MRwTzSpO7GVMKR6eGOOO+ZnhBL95ZeCbA2AWYzPDaY5jXBjCZMVckd09Tz1cyvCe8X9LYV8LEFr/2vQnf/Innz7d8Kd+6qc+sa1Wgp6xsXPI2HkMM1DugWEAuVfOwzLxbk8/L51DT5XMOw2segfKIVtDOSmuJTwCVJeXIckXA4eJEz7JGZLPwLEAEvSvEEQ5LpfateZ340PWrF0v8hTjAzzE0ASC/GbMCwfFOJBZOpSsz7U/waHvHU9utySWnpPVNWDhvWPmby+AsEZSHuiYJg/6TDgIVeicUE/PikKiMIrpdz5E63M5Cl3LO8Gdj2+1GLYIbaiyRUXwXUPugVwDiUdoQluUJDBZeLKaUZCo0gxpnuZbYYZ7AYS22lEW2m5LI6Ump4CiYuCMu3HzUCTJimU1S170sKbYm88iOGj5kAF/xZvJns9l2+dxOcY4xSo1dr5nAPp+yoXwUsA4b8x5PYdiTWLYUcAguT+nNq4BCK5H1ooHGw+yZh0ZQ2PDaElcFJvHYBUj9z3jq4iXvBhAzTgyZlu91S3qUJvaoSRHADDABnjaYrF74RJ5BUIEnAXrS+ikdYeB00fr6Gd+5mdOfRJGAZC+8zu/8xTaWzo5W9q4PHYaSLrV/QqLFA4yD8Zw6lP9NM4BA785n24oXj8ZLTok1iuAAFDFMrzXh2S1Y6ZeWQMQ5nnzPksm4AUQrpGkD3Bu9BfBKxZE6IqVJSh5YwQZGk9BRpXX9JRp5YOdT6Cn8EO/ZZ1n/F1vmaQSbTbzF/LiCL3QAuXkOxnKPG4LnOdHCVBWHkjzIz/yIycFgCZ1zXIg5pZH7SwHQZscx4tEQ/ptZr9H3SX8jVVjEj24zEzOYGFgZI5X4933tmcZJ/FRiponJIyA6gV+JChS2vosYbHXkTHSDyB+u29pTshQjxA2hjwrc9ounGTWeJOFmYQ42QWNSPFOr1S4aTIIMWcp05mXMK9nnrqeaycfgeJz9GlKuPVC5ltDebHkdiYSu84ECNMjnRnh5Em/XLv1HNU9ZbZQoecQMKzYQ9fkbTPEf/zHf3wC5dpTomPr1/r+/u///k9++Id/+JTYJ5dnro/WRGtgro2lDC+Bld+tDc8fUfsD4yapUv5F49ajmYGZv/qrvzoxcF5Kk9u2iXGUhBnYAg6AczkKnAp9k5xoXWZkjwQ6jb15jdX0XbvBqtMSAE2+taU+JmONpffAhn6RO8zZDIuVzFi/yYV7TqPfvQKF9bscBtebIdEZnus6+kTO5o6aANt0BpPR2I/W3gwxNN/lmM22zjyg3crjA534lCGGAILJmF4RI44pWCaUUHx5bRn0FntCRGhnckwGtkXiuLn/3DWjz2tPlHBeYcrGNVLAhF3GtcXud8acp4MG5V3weGwd9JRH7fGURHFInk9CSHjzQMUi5y6G2JJCKfo10Xj90Z6ShVKY5XBoV+PD6P/iL/7iqW2u7Tdgi/JStAYQoPyUlJZp7fq//Mu/fJoX8V8JWejSZ3gA1a3XYHJQzNX/0bTmcW4D05ayxadynF5Tv2fQo8uTO/KyVNAAQ4mSzrNmHENmZ5Kg+7Ru2lVxzvhYE3PnxUxA9Rs5s07dM099AgT3aUdGACFwNFnAxq61NecqY4HJ4l3zqgEVoNR2XFtr//Zv//ZkqBljhlWhIW0LXJkTa1AJZywMYC4cISHX7hxhsjzn2MA8ZeNt7LXD9RUFs+XQutBX/dIe17DrwO+uJXTgHGsMUAESrH35BACLtkhQ1OecoRhI68uuCH1huPY+DfaSh6595XSlJ/TFeiazjHssh98Zd20JJEwg5Vpkxe/an46ZjptjmpOMbLq7rdvmTRuMS7kKyXkJ5+bD/CzrSqT/klnnF27KFrSd2Pf64dqFAlt/gfwAPJn1avtx66Acjq3s86110drrPyVASFCj/Zu0BDYK0nFNVHvxq66WkHZuSSgZ+7yG3icCTehnzLfSpnPbYtcKPVsI1WWQgMTDYfzF77VD0RPegGxntQZsGWzxETyKSsyREvGZIqNMeD5e7qMd2AjXMw7VhkggUsgh7WlMGi9FVyge1K1wSHkHSiYzYtrpGNeiQP3xwuznViVO2IHyMj7ADy9oDb29Vmif9biMXHkz/qdQA7VRxDE/5qaaCL6j8JLn5jdQMT2W5fjM32LTXLv6ID1KuGtPNsnndke4/5xH3xdXnuBh2RbXKDTiGudCDHnA2hRb1jrXVuvTPc5tkcuodDyZBQwk0QakXUNCI6bB9dH7cn4kCDMm1hMwzcMPIE9GEUiz3npxDoAIRtwcGgfXrMx6BsR55gg7COQLjah66AmMdjApbGRM7QQC9H2nfRIW6QHgXNhRH4GFL3zhC6c26ovy7FVePXKL9tQVPpuTWdG1Z8joayxY+scc0XH+AgpTrnLeYn4yyslVspMh93tGVh+1xXcljC9lLX0+gefcLk4W526hc4xpcqSf9C9wW8h5CRDKrXDdmY/ROJCDmcv2bLrrqQGCBRxyJjSMI0RrwffbpC1NrokMjTuHYjKZFniedkI3QUJCMxdPyZDLHAfHTEo2oEDYopOdozYCQCDWqIxqxpXy8KLobCuUdCW+TEhdS59VXvPOi//BH/zB004GHpB7UDTGoKe6tXjd23X01/hoPyPunefDy/Kn0EoJce7n6XLqxLsuxqD4rt/cw35uRWrqsxgvRawwjIJJ7udvjsmzLZSj2kvBlSuTEqNAMsIZwKlA3bt6HXk1fp+sw3vtm0rUOe6XAp/gIKW8NPYZYOcwcF55akt2qjlu7bQWyIrzeVzaEIj1e7UgalP5FV2j3Rn6fg5oFoqI6nae8WT8rakKB/kOqyWhTyKtNfg93/M9p8/kVT8xYXIByLzEQE9jrR0xiK3ngFyAyvnaiAW0DVjo0NZfa0qtEGs0vYQh+Md//MdPWQPH2Lkgz8D2TNf2WGusB0DuT0KjcZeMqSBUuu/oomhTx+kT3ZiRC+zFEDR3hT4bmykjPsf8lJRoTKesTDA4r+EYhtq4AiTLsNuUL8cWRppht/JVAuSznsG5NgQCrINygVyvHUj1LdbI/63b1ppx0Y+Zx3aUDrnndZ4WIES3p+BM9NxfTai9AgBTSSYAFmvJYQSgWFTKOXSekPp9CmGKo6IhsQwtqkm9zThUi4yxoBBsd7QFklDJwqacGHIeO8BDMVBm8hWqkii+DwmjLSmyHgULOLiunRLOLa7sPM99UIjJIq0qmD6UNJSi8x0FZqsiZaWCG89GmyRS2pttO1nUMY9I3FS/AQieDaUrEcsCmRTePYX7Ee/VbpjkcRZgMZ6xYtH9E6yanwxtOTcpT7Lm84yjR/+nBF1rhjcm7dl1k3FrYMqs/7XPNX2v3XNtReVGtbpe++Pdtzg2JUuOAgjaVoKr62V4ArWFUazzJWCfhmz2Ma9Um7VHbF+RMgmAxk2/UfqSacnol7/85dOOB/eupoD+MOpyboAMDJn4fzpDUiCwgSkTMsQuuId1IrwglKAdGDSlyTGG1lIeq2tjAYQMXNf95BZwGqwt7IH8Imu70B4jhPUAEIqxp8tuBb5df27xc590ZvrCfMrnmKGCOTclObaLjIwHEIync2s/+aKf6p/rGDPzT4baTREwIPOun86euRjZCMe0U6hQV+sqoBvILGfG9bWtIlHLEIPvy8EoDFFbz7FdS6bjEXXTuTY9LUAw4DNpUOcCCHW0rPq8rgzVpLEcSyAZ2BnP8t0SIMzdDgl0rEXKi1AW4ojaioplsN07D57ych+gwF5o32MSxO0pgt/6rd860YoeSCOhUaEhT35URY5ngW5EpaL0KROCCQQQ2BZhNJnnP6SI9VlRFYoSoJDvgIWo0hsFhyUwfsCKJEQ7ERRlERKhBCVQuh9WAYCRKwHsiLs6R7VFyq1wTAv6WRbGrdp5DiCU/BT4nBUXY16WXlUx1JST4xiSaHDXSnEGADOc0bzTqDD4xXTzwLUjxqB2MAbay0jkVZJvCtb9UtCuUUnl1kGAYhlicL7jrb+y371bH7NNe5VsuRBqkChE9Od//ucngBNTYh2QaUadPKtUKJfBNl1rjLF2jvXomSraafwlQlo/QhnCDcYG24cpsA696BxrCwBxbAynfgEYwID8HmvcGFhX2Dr3FHoE6OkmzoLjrTPHTZbnVrKaV5+8tIYL0zYfgVPv2lpcPocpOUsXxaClewudJZ9011LXkqVqhOh78lGl3NgvbQ0E1N4AjDlvi7HjyWusVmyM/8vlIZfJv/lu22kMgv7N0E6M4FuhsFvO062u/dEChEmXmvCe20AZ5I0kkAZ35iBQqJO+da350JfOi1mYnlbxrQBDC7mwhsVB8CgOwhwqRiHySiwO8X11A3juspUlMQENgAHDqy2Mr2tIFhRa8FntAQoKVVkFNMbd+bwUbaL4vvKVr5y+0xZUKGUkA5zA82gocCABIFCMhXJ0f54Y2pMnBlS4h8UNNFC++uo4gEFM17hNT+BWXs6tFsctrvseQOh+xonMto03WjWvK6+xuGiKGFhNAb4FEPIIKbvAqutYEym7QF3rpnoLgQDtnB594LyKoBmWgHAGLQ9zuYthesE+u39FhWbi5N750A+vQhCqMNolYM15aFKhA6yGkIM/gFx/7EIwrow8A2dNyDtwLedah0IWlXoWkhBiY+StBX23XjB6wL3wYQZOuwB1a8mjrCUpyvtxfJS9REvMg51Peagl6O0djy3nmY+3AELz7D0AS38FTOe2y/RhoK8kxUIOAVBjUlXbCYrL1YmVdVyAtP4EWNrJVfvaUeYeM0eMw1QiY9dt7bl+ycGuUx5GDNBSl2lrVSXXVtzdMg8f6tiPFiCkNKeQEaCJYouNR6+2ncZkLJ/rMAHCUiBTaoSe8qvUcYqv4yed7J7+J4iO9+KJKHYCFGgbrwHFKY5JGTHCMqt5EjwhykuIwfllcKNNUZcE2PUoNkoJLcmr8ZsCR3IDgARek3AFUKHP3/Zt33bajcB7Ajh+7ud+7lOKE7gAEng12kdxAgJ5FNoFkLRVaCqQjNuHEvRHue8lgJAiTXaKg7YNMsOcUaMkU0gl6eprAMHnmYfj/+ar4zIArZWp/MjEZDgYJ8Z75rdog/bEwM3Q2rxWCnwJEJbrye8AzAwf1tY981isOMMcYNFfVD+jnrdejkCJcUIRQm1AhVCDtcOYx9yoWSJ/ACAIEAENGAGhi9a5ao48WecbU2MoqXEClDLvMYKYComLkpJn7kVj+KEZhORwzkdx/2S23QclFKYPYmf9HxBMP7hGdRC6doAxb9731gO5D3Qau8JcOXutJcfHImTgvccKxFqdA6pdf4KkyWRNsN7usu77MThEHxVAWCqecwovaqktkU22ycyAE6gQa0IaFTVpsz7PhdGzEPLOpvKrfX1H6CjXWfXRfSkshhYStggqsIQGlXCl7rqcBYbdLgYMgmxoShVlWeY2g+4hScCA2DTPyD15QbxCdQyURaakAA0ABFCwTQwrQJmhPykyfZVNLV/CDgdJXcIOah6o2+AJc5KypiKfFORrF8PXZ/0SQEg2JlCIseLFMNYpNHMyQUGFkrpGe9enMZlsWEp5WWBpKsBlUhl5nVtrAyqxRUu515bWSe1ahhg6J2Ube7J8jkLjsMc4LkM083+f9YMsSwz2J8QmZBlQaMxT+nmj5jNHI6aiuSukWQ0Sa7nM/4w+4wlsfcu3fMspz0G+AtZgGq1p6JbM5B7AtOWctxiEGI5kZerRyd4an7aPpxumzM7nk/i9BPNZctz3s3CdMSjZdoLfciLM2cxlcT49ScdNBqCE4b6rfecAwDIPYwlqzde0H8tw9pYxf6RjPyqAMHMQLEoTPTN8z4GBqdCmJ1W8KqW1LJLUQg25EhBCMQXXRKdAQ6zF21p4hLk6Br6rkA6BlIdgu1N7hyUOQtFCETwfVCcvnsFXthktStFAsow+A86oAwYyun/8x3/8lEDIIyqDm2cDKHgBFz5TlO4DJOgf4KC/8iTcBz1LgXoJQcihABJer8sj8BZAoNz8ZWjPKSvGJbYg4y73hIEhe+XDpKDnewrLdcncfFxv3lgGeB47r5khrcxza6NEr3IS2ha7BDmtv1kK3THAt3tWPdR3JYiVlGb9tNYuj/K2I6bnGD2uTQobCccJ4/H629JmjU/9ou2BlhyQ8jJ42taScIU1gqGzTZlTgPnzfSXIyxXZA4C29Xj90W8BBP0KZBmLAEO1VNrhcW7epqNE584tlMnnzEHQhiUrQIYbd/eaO9rIFyA9nRJz1jbdxjeDXj8CCktASx5j0lqXZNFfdXUa0bmNeN5/go71o//hLPJllgAAFztJREFUj/yoAEKCR4GlZAhR26aml0NgxGsTlhKZipvFIEyvpnh6is85Pbq262TMAyZ5HK7Xc9S7pu+KL3uPmi2WTFDVQ5A0BRRgFCgV26PkGkiSsqtA4RWMgLCDMdBOW7UYFNuhKG67C+Q1yNqm6NCl9liLe0p80iZgwdiJgxJ+oQ4GyD1RsPISik+rfYDl4PGk3D+8OD9+CyZA0Nr+N/c+R39PDypF01Zcspa3lJJzTGGxgIFr9RyA6TnNJ6E6tgqIGfjA7kyWDDzkEWp7QMK1eWgxYRl61y73p+xw3wUQmi1rxnWd71pzV81MqHwr/nvErKfAMw4BgLmbxP19byza8VQCpt8aI+1vx0eP8Z7x7OYundH/ecPTaTmib9dc4y2AUFuLuxuXDPBkVMnQLEakLTPU2kPHkiVjEVM22YlZ/G4yasBXAMW1fXZ+YdvYKOvJ57lzR9vcT7ubA9f2fexbWxvnLgbHACj1o0qhzVus2yMCvq2y8FEBBFSpCYUm8zws1JRaQsg7sGAnDTWLcRjEYmMt4nYiABApA8dRymWOJ9C+c0zKJaXSuc4jgFU59F6GrGtEHVcnvv8Jvvi/0IIdDdqoD5KhvJRddY57q2aovoKQARAjt0G8FJsATPhM0CVqub4xEW+V42AftzAHzwngSDHLzgZKbMUSJ3Vei/MVQli39M4xCORiylHesyvmoZR0mpzEOMy69W27SoEWNpu1FWKyyE0xW9+RrbLQU5KMX8ozUBywDkD7PoNAMbaVzXf6UVKw9aUPPUxt5jD08J8U7jTKZcjPcMO6kV5/1NK7m8ZiOgN5w8u6A4133uV8d21rfSbrxlIsQz/Om7plfQ9ud+R7AKFQQTLQ/LcjoOJYs2R9uoZM+jyBVga1onONBXlwLb/HGpCLkmjbOdP2QvebzG7F48o5aH7cP5BQm9PJ7IO11fqq4mkjHYAsfDRrJORsTv39SKzQFml5WoCQcZrZ1Bkz6DHPfRlrjEVIqKPCluVeK7089/YSEgLj5XtClJc2K7xNbyRhnPdri07hhhmH69wU00THeS692zqFPWjnAyOD+keNOkZuAk+fcKbEKW1bEUPEZfW6RsCmbT7Op9CBAYmSAEjKMU9rScdtEb7P4rFlQ+u7sZt7ps1ZcjsVkeOWuwYCp1VSzHvyPj34FOksHEYeZvGb7pVhTL4nE+G7gHUy7z7nvKQAcaxYuwdi9YzBBAg9L8L1GJ3o4dZAhqCiM0vDuhyzPXK17GvXnOBhesaX7jHDFgGEdEH3yuOcuiqQcOn69/x9Sa+3UyEDqC1znAKvAdDm0bw5N+C7BLm+b4zp2eSIXLS1lAzEYnZP5/guuXdeBn8m0M4dFEuHZrZ5Mhc+t/UxhiTWzTsAbw1XmXYy0un1HNMj5PSe836S139Pku995yvul9Ev1pmHi4IPyVXhbXpTCWrvLdj2gM+a967dXu8p/Bln5xaDikbl3WUwUwK1rUXknXJu/26GYm6PPGcolm2PckPtQsyEkKDKHxAW8LsExTzWPESGAtNi66JjtLftbeg6faiGvdKwUYkvhuAKgR2nlhjVVwEE/8f+LBVucprMNddkYhaO8XtyRGmeq7Dnd0p2lpGdIHrZy+TYWnC/WW1UX9Z4Sa3Twmze5d3MMehZEIGmZVln7ajtM9Sw9P6PmaXXVaYMLkNXMSD0xyxy1Kilq5KddEdFtKa37Zxlye/u3Tzn+S+BYuti3m8CO7rPvduG7vi29MbMzXDPZIK6t3USczRzJehR53adGGf3CDS73rly988kXU8JEEKabfGaRpbAmryoopJnmpTpKVCiJpaSq7jHXBg9aKaHGs2YYSwAoxoydt8o4IkWy0guTFF4Y2ajp9zLU0joHaPNoVDXiO3QZjsMJCum5Oc2S9c0RtXLn56K7ylciwfabueD+8RaLBfPMwn2I7bVePKMilmSm5SvMae8zEeAbQkUk13zVp37c4xDGd+uv6Q2M7J5QZVPjkkrDyalHsVPLmZiY+PrXu5R+Gwa7OkpF5fV7uVuoxiEua0Rk2BtzWzwQILvX4D1PhJeiGGWDO5ZDOmsKRuFBar1EnvpHK8A7XR4Cre2TdA6mexKxY/S+zPGP+UjZsF7TMV8GmnOG53vNWW2UMFkSAMYhQBn4Tz989cWTv3heDmmNqXfC6HN5N/7zN71d3lagECA8oJMfHHLWRO7ZBOT1yNKDVkCSclM2mgK7WQpymAucSzSpYIeFkFCTfjanzuZCkKtDaHnhHkCEtctVqs/FGZolAD7zXfFhV0jIS704bxlrfFK+Lp+hsB9tXt6rbEjxUtfAOH6Bba8gvkylzE3xnwqMbJJVrzmQ14c77z2yk8vZd4j2SSzJejO34ulZshdNyYpNsBvbTcjI9XRz2ObYLuwQXLYg6iSawCkvrQeHOseyZe+JIfTG7SWJgBqzUxq+/gZel2xuZtzmH4zb4xo+VvNP3nzfWXn0yXF6umtvO089Qlec9a855Aly74r0bw2kaEKRsX8pg+T2ULAzpksWW0mm45d6tlCFpW19395Ba0B502WOmBNZgMi7lPIpLLjzyZdTwsQlkrxnHFfevEJSSh3qXzm/9O493ki25Bx75Tx3IZFuAlHAnXO41l6W7MPKekMeYupNrpXHmZ0WN/Ne3V8aLY2NhbznjPGmgJvrJ5NsB+1vSm9Of7JyDTafec481JyVvNSXP89ucoAN6+BisZmMmLJUIwVuZhZ9UumYoKFFKLvUqY+Fwee4bbunTzONTCv03F9N8dmhhgedZ4/hnYlP839NOxzrpZzOM9LPs/pujnHU76S8c6JCZvXmOe2pmY7l7p/KftL+U1X52gGRCZgnWtk5tdM8BHzESh5dll9SoDwlrCdE6C3FupUUFNBzwnu3LfuF2BYKum32uH4FtaS+r21Qgnhdp8lOLp3e27d30e8/hKUTSW1pr3T0J6Tsfe+69wU3lvzXWJYLNKWNbWmD3uOWQKH94zNnuu/zlk/Am/pvOUV0q/z++Q/WbykN5eG/71WLtdGoHp9z4458hzInWDjmLvc7ypPDxCWRnytQpsoN2ScAc/zWU7D2mufm74EZ+k53m+q//NOWxbeh2jf657nR8C85enMbXNvKaWucs7AngOKvptAcnqM18j+tfM5wc1s94ds07V9eqbzl4CsUM+lPkyjPcGBz8t4/FInzf/XzvM8bu7+utTOo3+vHdmTmLhzLNzR9z76ek8JEFJkJZuUKOj7S8qycylYMagSEYuDLrNeJ/qr6EdJiY49V5N8ThJKX5IKoWlf+Yeg7VtwYtBid7Wh7PGjBet1vfMjIHba3uqZGLtmvMi2hL7yTciWeG2x33OVBntQTZQoAFCVunMKyz3KFqdkJV1dkvE1bd97DLkt/6Ztc8nsWsOx996v874+AvQFPVnuwZpxmXNDb/ozj+UFmMPkf4Y508/tfCnElsy+dW/3szasL3KiNs29DfIMh1lnPVE3QDSLNK0Zw0c45mkBQkIru7as/rXxHgoQuKD8XMf/BJdgzYdyNEEJu4Ib1S6QZQ0gSCQ7t52scynouR0SmHG9e1P6AQT99lcxEQvvLcbkEQT0Y2uDTGcyQ5H15MX3lN7MOSlJlZyS+WQp+XedJW3bThVKatbbqMLfUg7JSQVigI8eEvVWUuSt56f2VA6a4m2L8Asg3Hr0v17fwNgb8xJc1+iu5oZskh3yliyR6eVDmuZcppNjzJxfLYS3ehx4tibaDXTvXQOTHa5mDlCQUzZrf9x+5o65w0WA0MRNatN3k2YyoXM74awcNmmmvHHvy0zWScfMrX2TrpmC6fuej+DxyKr8Qbmz0EoZtBRdT7BzX8fJQG1LIEGqyFIojzI1oe5DqaeMnQcotFOhB9docx5cXk87KlQybEuNfubBG7P2hjMaKXDHyApuO5e6BlUjC1xoZ/UXAB19co6HMnk1Dm0pq9hHSj+FXxWyY8TpdZVLI0BG2tJYaeIe61yWd3LdOjNHeSOVW6Zw22plXZjXnlhHFqfMkpWq3DmuSnV5h9ZElePattUzRbS1IkuVwC1jHViusqI1pCZH27y6R2u5ynn60U4M7/pjnbmHNqqPUPndjJP+aweZndUZL4316/frRyA9a+6Nvfkxp+bKnNNblZXO0XBsjwhve2P6r108Wsa5o/Pa2dXuFtdxfKXofSZn7TbQDu1yXtvZyXAARNv8Tl7ImzZaY/QqPZpsVnyJ7Ft76uj4HGPmeu0Ya221K0f/rDv6Nf3rPu12SGYdkzwva5ZcPzu3v8Ln/vIv//Lf37tNSSkzk7TjS0SJvpxGvs8mqb31Br4kqJSfiXXtDNZMbikr3+8zOcYjijO0JoLCCuWaLJNJ6RCwmIGKHmmL3/NClqjP9+3zzQB7Chjl1/5057TFUbsdRzhcW1sCD74LYLRVLOaCYOm7RaJtxoXwhrj1maC7fuAgYEPgovz082tf+9qpPz7rm3O1uQeHeJ5DxZRaZO2AuL2Ive4wR4DcJMspG4qD0gIIm2PHmceUV8W8yGZPdKxMbQDA95RcFQ57xoIHApG7ajAUXmtL4qzNQBmTjYArZWxNaiN5onDJVga9daaPPgPDAQDXr/pi/db31qj+Wb+Uf+G3HtxUOE972sExx3FJS7+k7NgRyDHLizf35pMc+U61WjJrHsiGOUrfmteMMr1XWe7kPX1Pj5F513HNHgBFxoDnDL3rV2rZ9ZyX7FTHQ+8rQtbvjqUP6dbAuPVBftuW6/7aRy57sFbOIpl0nN8AI3JafwPJExSRe2OULci2LR3qY2fqtlf73J/92Z+9CxBaiFGXs3qhAfEyEW1vCkhUgSrvp24UBvB/XlC0od+mpx+YmJ65wfaAIO8p07xt1zGZJnIWq6gcbZNJIPSLALiHNrq3811LX6cg+j8Ua2H4nyJ0j9Cja2iPe7h+Auk+jtVX14haS/H2hDiCGkqv7Yz6ZBMap57dUDGQ6GqCrU/GULtcT3v8dSwj0uJvbmN0bitqr6ubP/Nu3M1Hc0EmyFSFvypslfIjA44hK9aC+cvTN6rV9Qiox+A5Ju+FPFfPI7Yg2riZqT3+r25HQD+qlCyRPzL+zd/8zScPqsRGa6jYL0BNqUb3ksm8sShk1679PmtX1/K556O0t/4lp/dbQ0uAYL7JVY9Mji3yHZkgq3n9PSipZ8U4prybWGD/Z9DTm+SK/Lg2sJmszy2+hZatIfebdTdy7GLZHJOzGLgFlgPR5UT0vJCeZZKTp13aU1G51kBb2ltnvo8Jq+xy1RuNY69750QcIS2f+8pXvvIuQNDRb/qmbzrV+DcwHubjsb86/l3f9V2nNvzN3/zNieJXu/+f//mfT6V+/U8IGMdv//ZvPyFF13B+nrjjnEMpCBOYCE8pVCLYuZ4BQMF4QFFggSLx2GOCBggwhFWjKwyS593E+b74j3YHKIrPllDi+K5hwk1oeQkJkbb7rIKhsbEYnEPYo/idR+G3GCjRqCvXTaidl/GO+g04UY6FOKKxfFeyTkDA+T3m+qtf/eppPPPuSmCLlXFONcPdZyqBZxTeIxbAPa9hvEsaNEfWRMa//dfkhlyTLZ5IwDWan8KjtKpV73zHOcfnKmJWBIa8ZPjJu+v7vziw6/jfu/Z4Fc8N+PvOdQPqrk0ZAwC8v8Jr2mrde5FJ8lt+BMXp+o61lnMEYg/0fyrXjouqXuZMvOT1PpIbg1Cp9qh18x6lTqboQ3ai3TUxs87/l3/5l5NeMu/pWs5PpfHz+P3uj04lex1P9siW90IbftcGMpiHTj9aN+lY8uo7cheDRiYLJZBBclfFzh5tXgjCOY7XDtcMUAdezUAJwyXOOk6Yt3BHIeH7zNbxd1kFEBhtxifPhSE04ZSBgfnrv/7rT771W7/1ZNjV8f+7v/u7E7ozQQbVb85l6FMYlBJqnCB5ZPE//MM/nJ6VDkT436Q0yK4bJf7/27ufnDiSIIrD9kXYIZaILRL3Z8meDQfgEKNfS58VqsFmsLCngWgJ0V1/MrNevox8GRFVVTmFGCIi1xWBUZ2VS0FmVCPMMYkRSWs7NxaSeBJWqx1hgEgiDBA5ahv1K7PX4z8zjOHCgIk3i5f1u7rE2/pOsda9BgWPAtXuEcvidans6ql+rruER9uR3tvWKr9P+/ub+SLvT6kt8WcIxDuhhPo5riXwMrQSwISrvCCHxy3ee2Z9/R0fJMgSGXGmPo8zrZTcPdO48IROIQSrPfs8JZQg8XjYxmB1NzEQGLU5vuN053RcHoWEfr952sSRO8ekwttmLMTZOInztYVXRHjtI2aAf5aR4Im19UGTa7Y3kVrf1j/ynOIEQRcnLeI6rzKaTOOsyd8jlOWleJeNhROvWdzhgRJ2hi1bJpSb/bdAjJ8J6s7PJvJUVL6FXzY0W8wLGzc7p/IqyxNJ286jwYtGfBAJtakxmlDyuPOPzoFXBUKdfHNz8+3+/v4EtMEbCCnDgLy6ujqBmgG4uLj49vT0dJogI4b4USCmrAiBx8fH02TYNsYro5YSbUKeHV89M5u7EEMErFPrtP4Y0trnpRoRt/ZF4vngl7b1VycSHuLCYr5ibdy+EcRtlVZZndP2jGx1WdnN29e4xMSLrcSEYoRpeBt4HyR39Zt7TsJY152rr8Ga+JLhHZm5tDxamvJ1i5hky12B/f2hy9NUn/e9PohD8YW3oDEkb+Z4e6GkPgl7jHDcMVkTw3JaJKfGi8YALgn9tZ03A3dqmzDc5GntwUvufmE9SVlQbUzPHIfawVMhabhxmaCRY9T/sCBKhNrC5v+6i+Lvs+S8aowT7PPMVZFnwBNVn8rz4rEULspuZoc8ErlzhQgq09058hDqa56CvvNcxXG5LJXZfDG9oHIEhK76z+5rS7/tj89zLPJSy4UggoUSancCiGBiu+N537O/zV28cmz6efXo21rzqkBokOYVeHh4OIE9401N7lyHAdObBFv99xriPpKumsSazHIH5SGoY1tpVN7l5eVpW4S5vr4+iQ4vHypcESkiXitzRqIQQx+upToCiWyXHMWYdq48io7JKHZtjOI0UgSAshDa7/63rbJN+AyvvAjHdl1U70ysImi44tTJIAt1zLZ0vhVoeHh5CEHUfq5ZcbuX8gxWHLxtkLzX0QyTyZVxY7zi09w230JH1E6DODmLi5WtPOKXgeMulquQYc6wW+3YPw2b8YFbhKaxqD2Tx9rqGKED4qLtFgDGlrFc+43To3t2efteTHxbOXiLC/grP8VdN1b5BMK0gW2zctePbBxbiAtzwacuvOZdcOfc0TZPPhLFhLh653XMts45pbER1+VuJQKI+cl1Aqayawss3obw+R79qkCo6Sl4r+o0GRMAJi0vtgigANSBdbaXB3GF67D2dV6KLKDrkFYQnZvBq96OqW7GsM69u7v74TEwASKG31Se+2cRCdlnyGKKBOVMcjN400BNsrW/a4tsYlFH9TgNre8M4DT6qDKvaxrKsGkgcnMJjbxE+ilIJJfO8s+Xlp+zZcdJFIf0U30Uj+rLJm6rn8m7ySMo8STwSsQ9IoFRPtbduR5eIwv9pbK17WhIJ/9fah/OuqW3/xIm4+4UCHOsTX5q88/q+pwsOZ+rOvIBz+Z29ih+1Kdu7Z6cnCJwXt3RJh4FILtLQLQ/DvVh16dtxNFZ7uQ9sWFszLbwNji+Y8whFm1u1SUGjuNvziOu/3x68/da8p8Ewu8V/efOur29/SEYGNE/V9uWvAgsAovAIrAIfD0Evj8/P//yLoZzhKQEqKnWzrGN26ZFYBFYBBaBReAjI/DqkxTP9eI+iwvnXPHddi0Ci8AisAh8bQQ+pEB4KU/ga3fjXv0isAgsAovAIvC+CHxIgfC+EGxpi8AisAgsAovAInBEYAXCcmIRWAQWgUVgEVgE/oXACoQlxSKwCCwCi8AisAisQFgOLAKLwCKwCCwCi8DrCPwD8VjV+XzDOkQAAAAASUVORK5CYII=;" vertex="1" parent="7">
                    <mxGeometry x="540" y="105" width="260" height="195" as="geometry"/>
                </mxCell>
                <mxCell id="17" value="" style="ellipse;whiteSpace=wrap;html=1;aspect=fixed;fontSize=18;fillColor=#FFFFFF;" vertex="1" parent="7">
                    <mxGeometry x="15" y="195" width="10" height="10" as="geometry"/>
                </mxCell>
            </root>
        </mxGraphModel>
    </diagram>
</mxfile>